<svg width="200" height="200" viewBox="0 0 200 200" fill="none" xmlns="http://www.w3.org/2000/svg">
<g clip-path="url(#clip0_6_719)">
<path d="M0 0H200V200H0V0Z" fill="#671622"/>
<path d="M117.831 68.1675L118.022 68.1831C118.842 68.8103 120.083 74.0894 120.748 75.756C113.729 75.4458 108.149 80.8628 104.341 86.1739C109.629 84.4474 113.826 83.0864 119.4 84.1288C126.036 85.3702 131.492 88.6395 135.332 94.2499C138.972 99.6013 140.328 106.182 139.102 112.536C137.817 119.252 133.878 124.521 128.284 128.323C121.189 132.338 113.138 133.171 105.591 129.82C99.8561 127.333 95.368 122.637 93.1438 116.795C89.7625 108 92.0838 96.2856 95.7188 87.8343C98.3303 81.7628 103.379 75.9382 108.903 72.2786C111.187 70.7655 115.187 69.1765 117.831 68.1675Z" fill="#E7E1D5"/>
<path d="M109.194 91.7983C109.46 92.0181 109.544 92.1063 109.63 92.4519C111.721 100.915 106.913 108.968 98.9009 111.835L98.5691 111.853C98.4908 111.771 98.3583 111.645 98.3367 111.523C96.8714 103.263 100.956 94.6608 109.194 91.7983Z" fill="#671620"/>
<path d="M113.739 90.4736C121.882 89.7453 128.607 94.4443 131.751 101.779L129.32 102.289C123.785 103.024 119.123 101.429 115.178 97.4251C113.239 95.4576 112.387 93.5685 111.217 91.123C112.201 90.7816 112.733 90.6701 113.739 90.4736Z" fill="#671620"/>
<path d="M102.684 113.352C104.491 113.091 107.816 113.539 109.542 114.183C114.907 116.186 117.44 119.797 119.796 124.67C118.864 124.875 117.927 125.059 116.985 125.22C107.945 125.581 103.195 121.504 98.9678 114.055C100.359 113.723 101.269 113.532 102.684 113.352Z" fill="#671620"/>
<path d="M131.633 103.898C132.058 103.838 131.844 103.824 132.287 104.013C133.21 106.562 132.525 112.244 131.324 114.844C129.179 119.488 126.483 122.01 121.828 123.919L121.527 123.719C119.172 114.753 123.442 107.559 131.633 103.898Z" fill="#671620"/>
<path d="M49.7247 68.0247C52.3452 67.9068 55.162 67.9527 57.8017 67.9554C62.6325 79.4728 65.2874 93.9269 69.5995 105.802C71.6802 111.532 74.7005 126.337 78.2755 130.55C75.445 130.486 71.7374 130.399 68.9534 130.614C69.3206 128.995 69.4735 127.395 69.0001 125.788C66.7976 118.31 64.4876 110.614 62.0927 103.202L59.2991 104.297C50.1501 108.011 42.6263 116.927 40.1567 126.697C39.781 128.184 40.122 129.094 40.6089 130.487C38.0239 130.478 33.712 130.369 31.2749 130.663C34.1696 126.524 37.7269 112.562 39.4177 107.04L50.5829 70.4411C50.2136 69.5646 49.9378 68.9642 49.7247 68.0247Z" fill="#E7E1D5"/>
<path d="M54.4291 78.8179C55.1779 79.4825 57.499 88.3167 58.0523 89.9669C58.8684 92.4019 59.885 95.4659 60.7385 97.9431C56.9533 99.1249 53.7686 100.986 50.4607 103.114C49.2182 103.844 47.3043 105.317 46.2139 106.264C47.1672 103.794 48.0432 100.282 48.9006 97.6728C50.9463 91.4454 52.8941 85.1929 54.4291 78.8179Z" fill="#671620"/>
<path d="M135.604 67.968C146.295 67.8621 158.428 67.7559 169.058 68.033L151.834 108.455C149.666 113.611 147.489 118.401 145.403 123.66C151.439 123.958 157.79 123.716 163.847 123.668C164.091 123.666 166.418 122.627 166.731 122.492C166.747 122.513 168.84 130.17 168.867 130.489L135.069 130.509C136.638 125.31 139.623 120.019 141.546 114.959C146.644 101.543 153.709 88.1465 158.387 74.6445C153.224 75.0373 146.666 74.2885 141.379 74.785C139.437 74.9672 139.365 75.2637 138.231 76.6971C137.503 73.7449 136.626 70.8314 135.604 67.968Z" fill="#E7E1D5"/>
<path d="M82.544 68.0249C84.6649 67.913 86.6946 67.9812 88.8134 68.0308C88.7327 79.6716 88.7255 91.3128 88.7917 102.954L88.7786 116.485C88.772 120.715 88.3932 126.595 89.6083 130.5L81.9823 130.515C81.3472 130.529 81.4579 130.631 81.1108 130.314C82.3686 125.259 82.0157 122.382 82.0151 117.217L82.0118 105.112C82.0085 94.4732 82.1341 83.5417 81.9503 72.9337C80.4878 73.3171 77.7843 74.3892 76.6931 73.1318C76.4686 71.2425 81.0317 68.7031 82.544 68.0249Z" fill="#E7E1D5"/>
</g>
<defs>
<clipPath id="clip0_6_719">
<rect width="200" height="200" fill="white"/>
</clipPath>
</defs>
</svg>
