<svg width="200" height="150" viewBox="0 0 200 150" fill="none" xmlns="http://www.w3.org/2000/svg">
<path d="M174.11 42.8003V5.53027L142 24.0603C129.125 19.6602 115.606 17.443 102 17.5003C88.359 17.4411 74.8046 19.6687 61.9 24.0903L29.76 5.53027V42.8803H29.84C18.63 53.3403 12 66.3803 12 80.5003C12 103.5 30.49 122.5 56 122.5C73.5 122.5 82.5 111.5 82.5 111.5L102.01 143.5L121.52 111.5C121.52 111.5 130.52 122.5 148.02 122.5C173.52 122.5 192.02 103.5 192.02 80.5003C192 66.3603 185.34 53.3103 174.11 42.8003ZM54.49 112C35.73 112 20.49 97.1103 20.49 78.7403C20.49 60.3703 35.7 45.4803 54.49 45.4803C73.28 45.4803 88.49 60.3703 88.49 78.7403C88.49 97.1103 73.25 112 54.49 112ZM149.49 112C130.73 112 115.49 97.1103 115.49 78.7403C115.49 60.3703 130.7 45.4803 149.49 45.4803C168.28 45.4803 183.49 60.3703 183.49 78.7403C183.49 97.1103 168.25 112 149.49 112Z" fill="black"/>
<path d="M149.5 103.25C163.031 103.25 174 92.281 174 78.75C174 65.219 163.031 54.25 149.5 54.25C135.969 54.25 125 65.219 125 78.75C125 92.281 135.969 103.25 149.5 103.25Z" fill="black"/>
<path d="M160 78.75C166.075 78.75 171 73.8251 171 67.75C171 61.6749 166.075 56.75 160 56.75C153.925 56.75 149 61.6749 149 67.75C149 73.8251 153.925 78.75 160 78.75Z" fill="white"/>
<path d="M54.5 103.25C68.031 103.25 79 92.281 79 78.75C79 65.219 68.031 54.25 54.5 54.25C40.969 54.25 30 65.219 30 78.75C30 92.281 40.969 103.25 54.5 103.25Z" fill="black"/>
<path d="M65 78.75C71.0751 78.75 76 73.8251 76 67.75C76 61.6749 71.0751 56.75 65 56.75C58.9249 56.75 54 61.6749 54 67.75C54 73.8251 58.9249 78.75 65 78.75Z" fill="white"/>
</svg>
