<svg width="122" height="21" viewBox="0 0 122 21" fill="none" xmlns="http://www.w3.org/2000/svg">
<g clip-path="url(#clip0_12032_4914)">
<path d="M0 20.0151H2.86805L4.45807 16.4687H12.7382L14.2322 20.0151H17.1423L8.72414 0.820312L0 20.0151Z" fill="#006699"/>
<path d="M34.1354 0.986328L29.3593 14.5081H29.2813L24.4512 0.986328H19.2852V20.0152H22.4292V4.72327H22.4832L28.0453 20.0152H30.3553L36.0014 4.72327H36.0494V20.0152H39.3315V0.986328H34.1354Z" fill="#006699"/>
<path d="M54.5779 2.24632C53.9659 1.79764 53.2279 1.47803 52.3758 1.28135C51.5178 1.08467 50.5578 0.986328 49.4898 0.986328H43.4297V20.0214H46.7357V12.1418H49.2798C50.2578 12.1418 51.1878 12.0435 52.0638 11.8468C52.9398 11.6501 53.7019 11.3305 54.3619 10.8941C55.0159 10.4577 55.5379 9.88 55.9219 9.16088C56.3059 8.44177 56.4979 7.5567 56.4979 6.49954C56.4979 5.51614 56.3299 4.6741 55.9999 3.97342C55.6699 3.27274 55.1959 2.70114 54.5839 2.25246M52.8198 7.89475C52.5918 8.25123 52.2858 8.53396 51.9018 8.74294C51.5178 8.94576 51.0798 9.09327 50.5878 9.17317C50.0958 9.25308 49.5798 9.2961 49.0398 9.2961H46.7297V3.83206H49.1418C49.6518 3.83206 50.1438 3.86279 50.6238 3.92425C51.1038 3.98571 51.5358 4.11479 51.9078 4.31147C52.2858 4.50815 52.5858 4.77858 52.8138 5.12892C53.0418 5.47926 53.1558 5.93408 53.1558 6.48725C53.1558 7.04042 53.0418 7.52597 52.8138 7.88246" fill="#006699"/>
<path d="M71.5997 9.81853C72.3617 8.95191 72.7397 7.82714 72.7397 6.44423C72.7397 5.44238 72.5477 4.58805 72.1637 3.89352C71.7797 3.19284 71.2637 2.62739 70.6277 2.19715C69.9917 1.76691 69.2597 1.45959 68.4376 1.26906C67.6156 1.07852 66.7696 0.986328 65.8936 0.986328H59.4375V20.0214H62.7436V11.9574H65.1556L69.4577 20.0214H73.4477L68.4856 11.5825C69.7997 11.2752 70.8317 10.6913 71.5937 9.81853M66.8596 9.07483C66.3856 9.14859 65.9176 9.17932 65.4436 9.17932H62.7436V3.83206H65.7376C66.1576 3.83206 66.5896 3.86893 67.0396 3.94269C67.4836 4.01644 67.8856 4.14552 68.2336 4.34834C68.5817 4.54503 68.8697 4.80932 69.0977 5.14121C69.3257 5.47311 69.4397 5.89721 69.4397 6.41964C69.4397 6.99125 69.3197 7.46451 69.0737 7.83329C68.8277 8.20206 68.5156 8.48479 68.1436 8.68147C67.7656 8.87815 67.3456 9.01337 66.8716 9.08713" fill="#006699"/>
<path d="M79.2514 0.986328H75.9453V20.0214H79.2514V0.986328Z" fill="#006699"/>
<path d="M99.5837 3.18621C98.6897 2.32573 97.6337 1.66193 96.4096 1.19482C95.1856 0.727699 93.8476 0.494141 92.3956 0.494141C90.9436 0.494141 89.6355 0.727699 88.4175 1.19482C87.1995 1.66193 86.1495 2.32573 85.2675 3.18621C84.3854 4.04669 83.6954 5.09156 83.1914 6.32082C82.6934 7.55007 82.4414 8.92684 82.4414 10.445C82.4414 11.9631 82.6934 13.2907 83.1914 14.52C83.6894 15.7492 84.3794 16.8064 85.2675 17.6914C86.1495 18.5765 87.1995 19.271 88.4175 19.7627C89.6355 20.2544 90.9616 20.5003 92.3956 20.5003C93.8296 20.5003 95.1856 20.2544 96.4096 19.7627C97.6337 19.271 98.6957 18.5826 99.5837 17.6914C100.478 16.8064 101.174 15.7492 101.672 14.52C102.17 13.2907 102.422 11.9324 102.422 10.445C102.422 8.95757 102.17 7.54393 101.672 6.32082C101.174 5.09156 100.478 4.04669 99.5837 3.18621ZM98.3657 13.2538C98.0597 14.102 97.6217 14.8457 97.0517 15.4726C96.4816 16.0995 95.8036 16.5913 95.0176 16.9354C94.2316 17.2858 93.3616 17.4579 92.4196 17.4579C91.4776 17.4579 90.6135 17.2858 89.8335 16.9354C89.0535 16.5851 88.3815 16.0995 87.8115 15.4726C87.2415 14.8457 86.8035 14.1082 86.4975 13.2538C86.1915 12.4056 86.0415 11.4653 86.0415 10.445C86.0415 9.42469 86.1915 8.54577 86.4975 7.70373C86.8035 6.86169 87.2355 6.12413 87.7995 5.49721C88.3575 4.87029 89.0295 4.37859 89.8095 4.01596C90.5895 3.65948 91.4596 3.48123 92.4196 3.48123C93.3796 3.48123 94.2556 3.65948 95.0416 4.01596C95.8276 4.37244 96.4996 4.86415 97.0637 5.49721C97.6217 6.12413 98.0537 6.86169 98.3597 7.70373C98.6657 8.54577 98.8217 9.46157 98.8217 10.445C98.8217 11.4284 98.6717 12.4056 98.3597 13.2538" fill="#006699"/>
<path d="M118.689 0.986328V15.2334H118.641L110.007 0.986328H105.621V20.0152H108.927V5.31331H108.981L117.801 20.0152H122.001V0.986328H118.689Z" fill="#006699"/>
</g>
<defs>
<clipPath id="clip0_12032_4914">
<rect width="122" height="20" fill="white" transform="translate(0 0.5)"/>
</clipPath>
</defs>
</svg>
