<svg width="21" height="29" viewBox="0 0 21 29" fill="none" xmlns="http://www.w3.org/2000/svg">
<path d="M8.6119 25.8489C8.20663 26.2115 7.92801 26.6 7.80137 27.0663H12.4619C12.3099 26.6259 12.0567 26.2115 11.6514 25.8489H8.6119ZM12.9432 23.5179C12.5379 23.7769 12.082 24.01 11.6007 24.2172L11.4994 24.269L11.6007 24.3208C13.0192 25.2014 13.7284 26.341 13.7284 27.8433C13.7284 28.2577 14.0577 28.5944 14.4629 28.5944C14.8682 28.5944 15.1975 28.2577 15.1975 27.8433C15.1975 26.082 14.4629 24.6057 13.0192 23.492L12.9938 23.4661L12.9432 23.5179ZM7.77604 18.7262C7.92801 19.1924 8.1813 19.5809 8.58657 19.9436H11.6007C12.006 19.5809 12.2593 19.1924 12.4113 18.7262H7.77604ZM8.6119 15.7735C8.20663 16.1361 7.92801 16.5247 7.80137 16.9909H12.4619C12.3099 16.5506 12.0567 16.1361 11.6514 15.7735H8.6119ZM5.09115 7.66662C5.09115 7.17451 5.47109 6.786 5.95234 6.786C6.43359 6.786 6.81353 7.17451 6.81353 7.66662C6.81353 8.15873 6.43359 8.54725 5.95234 8.54725C5.47109 8.54725 5.09115 8.13283 5.09115 7.66662ZM13.3991 7.66662C13.3991 7.17451 13.779 6.786 14.2603 6.786C14.7415 6.786 15.1215 7.17451 15.1215 7.66662C15.1215 8.15873 14.7415 8.54725 14.2603 8.54725C13.779 8.54725 13.3991 8.13283 13.3991 7.66662ZM1.84903 7.22631C1.77304 7.56302 1.69705 7.87383 1.62106 8.02923C1.06382 9.50553 0.329279 10.179 0.329279 10.2049C0.151975 10.3085 0.0253291 10.5157 0 10.7229V10.9042C0 10.9301 0 10.956 0 10.9819C0.0759873 11.2668 0.303948 11.4999 0.607897 11.5258C4.48325 11.8884 6.66156 12.4582 8.10531 12.8726C6.07899 14.0382 5.04049 15.6958 5.04049 17.8197C5.04049 19.9954 6.12964 21.6789 8.25729 22.8444C6.12964 24.01 5.04049 25.7194 5.04049 27.8692C5.04049 28.2836 5.36977 28.6203 5.77504 28.6203C6.1803 28.6203 6.50958 28.2836 6.50958 27.8692C6.50958 25.305 8.56124 24.2172 10.1063 23.6215C10.1823 23.5956 10.2583 23.5697 10.3343 23.5438C10.8662 23.3365 11.3728 23.1293 11.8287 22.8962C14.0323 21.7307 15.1468 20.0212 15.1468 17.7938C15.1468 16.162 14.5136 14.7634 13.2725 13.6756L13.2471 13.6497H13.2218C12.6139 13.8051 12.0567 13.9605 11.5754 14.1159L11.4488 14.1677L11.5754 14.2454C12.9938 15.126 13.6777 16.2656 13.6777 17.7679C13.6777 20.3321 11.6261 21.4199 10.081 21.9897C8.53591 21.394 6.48425 20.3321 6.48425 17.7679C6.48425 15.2037 8.53591 14.1159 10.081 13.5202L10.1823 13.4943C10.5369 13.3389 11.0435 13.1316 11.9553 12.8726C13.4244 12.4323 15.6027 11.8625 19.6047 11.474C19.9087 11.4481 20.1366 11.2409 20.2126 10.9301C20.2886 10.6452 20.162 10.3344 19.9087 10.179C19.9087 10.179 19.1741 9.47963 18.6169 8.00333C18.5409 7.82203 18.4902 7.53712 18.3889 7.20041C17.857 5.05064 16.5906 0 10.1316 0C3.64739 0.025901 2.38094 5.07655 1.84903 7.22631Z" fill="#000DB5"/>
</svg>
