<svg width="93" height="101" viewBox="0 0 93 101" fill="none" xmlns="http://www.w3.org/2000/svg">
<path d="M0 53.5C0 35.834 10.3681 22.5987 19.7002 15.5996C23.2348 12.9489 28.2495 13.6657 30.9004 17.2002C33.5511 20.7348 32.8343 25.7495 29.2998 28.4004C22.632 33.4014 16 42.3617 16 53.5C16 70.4961 29.553 84.5 46.5 84.5C63.5801 84.5 77 70.861 77 54C77 48.1803 75.7781 43.6661 73.6299 39.7959C71.4403 35.8514 68.0499 32.1485 63.1084 28.3301C59.6124 25.6285 58.9684 20.6045 61.6699 17.1084C64.3715 13.6124 69.3955 12.9684 72.8916 15.6699C78.9499 20.3514 84.0597 25.6161 87.6201 32.0303C91.2219 38.519 93 45.7552 93 54C93 79.6159 72.4981 100.5 46.5 100.5C20.3688 100.5 0 78.9809 0 53.5Z" fill="url(#paint0_radial_2138_498)"/>
<path d="M38.5 51.5V8C38.5 3.58172 42.0817 0 46.5 0C50.9183 0 54.5 3.58172 54.5 8V51.5C54.5 55.9183 50.9183 59.5 46.5 59.5C42.0817 59.5 38.5 55.9183 38.5 51.5Z" fill="url(#paint1_radial_2138_498)"/>
<defs>
<radialGradient id="paint0_radial_2138_498" cx="0" cy="0" r="1" gradientTransform="matrix(2 75.3114 -80.9701 1.59294 46.5 58.756)" gradientUnits="userSpaceOnUse">
<stop stop-color="#7A4100" stop-opacity="0"/>
<stop offset="1" stop-color="#F79B29"/>
</radialGradient>
<radialGradient id="paint1_radial_2138_498" cx="0" cy="0" r="1" gradientTransform="matrix(0.344086 51.8035 -13.9303 1.09572 46.5 30.7861)" gradientUnits="userSpaceOnUse">
<stop stop-color="#7A4100" stop-opacity="0"/>
<stop offset="1" stop-color="#F79B29"/>
</radialGradient>
</defs>
</svg>
