<svg width="156" height="85" viewBox="0 0 156 85" fill="none" xmlns="http://www.w3.org/2000/svg">
<path d="M106.697 37.4145L106.929 37.5507L145.467 12.095V21.4666L155.182 14.1456V5.9834L145.236 0L106.69 25.4636V14.1536V14.1456V5.9834L96.7442 0L58.1987 25.4636V14.1536V14.1456V5.9834L48.253 0L9.71463 25.4636V13.9934L0 21.2985V31.5752L9.95309 37.5586L48.4915 12.1031V21.2985V21.3065V23.8216L48.2679 23.6854L9.71463 49.117V37.6467L0 44.9676V55.237L9.95309 61.2199L48.4915 35.7724V44.9676V44.9758V47.4829L48.2679 47.3467L9.72213 72.8027V61.3323L0 68.6295V78.9062L9.95309 84.8892L48.4915 59.4258V68.6213V68.6295V78.9062L58.4445 84.8892L96.9827 59.4258V68.6213V68.6295V78.9062L106.936 84.8892L145.475 59.4258V68.7977L155.189 61.4767V53.314L145.243 47.3311L106.697 72.7862V61.4767V61.4685V61.0682L106.929 61.2044L145.467 35.7565V45.1284L155.182 37.799V29.6448L145.236 23.6614L106.69 49.1088V37.799V37.791V37.3985L106.697 37.4145ZM96.9827 44.9676V47.4746L96.7597 47.3384L58.2136 72.7945V61.484V61.4767V61.0755L58.4445 61.2117L96.9827 35.7644V44.9603V44.9676ZM96.9827 21.2985V23.8136L96.7597 23.6775L58.2136 49.1253V37.815V37.807V37.4145L58.4445 37.5507L96.9827 12.095V21.2904V21.2985Z" fill="white"/>
</svg>
