<svg width="29" height="29" viewBox="0 0 29 29" fill="none" xmlns="http://www.w3.org/2000/svg">
<path fill-rule="evenodd" clip-rule="evenodd" d="M0 1.10836C0 0.498763 0.498763 0 1.10836 0H27.3396C27.9492 0 28.448 0.498763 28.448 1.10836V27.3396C28.448 27.9492 27.9492 28.448 27.3396 28.448H1.10836C0.498763 28.448 0 27.9492 0 27.3396V1.10836ZM23.468 23.8484H5.02618C4.80451 23.8484 4.63826 23.682 4.63826 23.4788V21.1643C4.63826 20.9611 4.82298 20.7948 5.02618 20.7948H20.4145C20.9989 20.7948 21.673 21.0719 22.0951 21.5522L23.7247 23.3196C23.9279 23.5228 23.7636 23.8484 23.468 23.8484Z" fill="black"/>
</svg>
