<svg width="320" height="320" viewBox="0 0 320 320" fill="none" xmlns="http://www.w3.org/2000/svg">
<g clip-path="url(#clip0_3_21)">
<path d="M0 0H320V320H0V0Z" fill="black"/>
<path d="M93.066 147.517C95.2808 147.385 96.1228 148.062 98.0243 149.106C103.296 152 108.487 155.034 113.735 157.972L158.434 183.133L190.499 201.23C195.654 204.138 200.841 207.076 206.023 209.939C207.082 210.523 208.129 211.687 208.904 212.616C209.12 216.02 209.917 234.99 207.645 236.375C205.421 236.234 197.133 231.33 194.714 229.985C187.385 225.34 179.003 221.174 171.464 216.835L105.152 179.441L86.2723 168.813C84.0645 167.576 72.6088 161.797 72.5753 159.663C74.2868 157.347 89.8805 148.925 93.066 147.517Z" fill="white"/>
<path d="M206.743 83.471C207.343 83.4545 207.556 83.5623 208.116 83.7448C209.68 85.559 209.067 103.334 208.963 106.871C201.98 110.327 192.662 115.945 185.839 119.838L155.858 136.648C150.854 139.477 142.918 144.329 137.946 146.65C135.625 145.689 129.423 141.983 126.882 140.563C125.304 139.7 123.659 138.845 122.113 137.936C119.639 136.482 115.482 134.681 119.869 132.16C123.871 129.861 127.922 127.68 131.923 125.402L169.963 104.048C178.024 99.425 186.115 94.8528 194.234 90.3318C197.723 88.3698 203.264 84.9998 206.743 83.471Z" fill="white"/>
<path d="M207 132.979C207.239 132.995 207.525 133.004 207.75 133.088C208.227 133.267 208.483 133.627 208.691 134.067C208.939 134.592 209.019 135.155 209.048 135.728C209.264 140.013 209.288 182.699 208.733 184.118C208.443 184.86 208.156 185.146 207.465 185.44C204.778 184.66 201.833 182.852 199.404 181.398C192.942 177.53 186.06 174.175 179.625 170.298C174.323 167.225 166.77 163.684 162.235 159.824C160.174 158.07 174.264 151.106 175.993 150.139L193.02 140.534C195.809 138.983 204.51 133.83 207 132.979Z" fill="white"/>
</g>
<defs>
<clipPath id="clip0_3_21">
<rect width="320" height="320" fill="white"/>
</clipPath>
</defs>
</svg>
