<svg width="221" height="111" viewBox="0 0 221 111" fill="none" xmlns="http://www.w3.org/2000/svg">
<g clip-path="url(#clip0_3_184)">
<path d="M220.47 0H0V110.47H220.47V0Z" fill="#C4D3E3"/>
<path d="M220.47 0H90.8C96.87 15.81 100.42 34.8 100.42 55.23C100.42 75.66 96.87 94.65 90.8 110.46H220.47V0Z" fill="#1C3664"/>
<path d="M139.45 52.42L125.91 18.63C125.91 18.63 125.88 18.55 125.86 18.52V18.5C125.61 17.95 124.85 17.55 123.94 17.55H119.27C118.37 17.55 117.62 17.94 117.36 18.47V18.5C117.36 18.5 117.31 18.59 117.29 18.64L104.15 52.39C104.15 52.39 104.11 52.48 104.1 52.52C104.08 52.59 104.07 52.65 104.07 52.72C104.07 53.37 104.86 53.89 105.84 53.89H109.96C110.74 53.89 111.39 53.56 111.63 53.1V53.08C111.67 53.02 111.69 52.96 111.7 52.9L114.34 45.64H128.88L131.66 52.86H131.67C131.8 53.44 132.55 53.89 133.47 53.89H137.69C138.7 53.89 139.51 53.35 139.51 52.69C139.51 52.59 139.49 52.5 139.45 52.41V52.42ZM116.6 39.52L121.51 26.03L126.52 39.52H116.6Z" fill="white"/>
<path d="M170.07 17.54H166.13C165.19 17.54 164.43 18.04 164.43 18.66V31.9H150.05V18.68C150.05 18.68 150.05 18.65 150.05 18.64C150.05 18.63 150.05 18.61 150.05 18.6C150.01 18.01 149.27 17.53 148.36 17.53H144.41C143.5 17.53 142.76 18.01 142.72 18.6V18.64C142.72 18.64 142.72 18.64 142.72 18.65C142.72 18.65 142.72 18.65 142.72 18.66V52.77C142.72 52.77 142.72 52.77 142.72 52.78C142.72 53.4 143.48 53.9 144.42 53.9H148.37C149.31 53.9 150.07 53.4 150.07 52.78C150.07 52.78 150.07 52.77 150.07 52.76V38.06H164.45V52.79C164.45 52.79 164.45 52.79 164.45 52.8C164.45 53.42 165.21 53.92 166.15 53.92H170.09C171.03 53.92 171.79 53.42 171.79 52.8C171.79 52.8 171.79 52.8 171.79 52.79V18.71C171.79 18.71 171.79 18.68 171.79 18.66C171.79 18.04 171.03 17.54 170.09 17.54H170.07Z" fill="white"/>
<path d="M211.02 52.03L197.8 31.71L209.37 19.75C209.37 19.75 209.45 19.67 209.49 19.63L209.55 19.57C209.7 19.38 209.79 19.17 209.79 18.94C209.79 18.17 208.85 17.55 207.69 17.55H202.81C202.03 17.55 201.35 17.84 200.99 18.26L186.81 33.7V18.69C186.81 18.69 186.81 18.69 186.81 18.68C186.81 18.68 186.81 18.67 186.81 18.66V18.65C186.79 18.04 186.04 17.56 185.11 17.56H181.16C180.22 17.56 179.46 18.06 179.46 18.68C179.46 18.69 179.46 18.71 179.46 18.72V52.74C179.46 52.74 179.46 52.76 179.46 52.78C179.46 53.4 180.22 53.9 181.16 53.9H185.11C186.05 53.9 186.81 53.4 186.81 52.78C186.81 52.77 186.81 52.75 186.81 52.74V42.92L192.76 36.84L202.18 52.91H202.19C202.45 53.48 203.24 53.91 204.2 53.91H209.07C210.23 53.91 211.17 53.29 211.17 52.53C211.17 52.35 211.12 52.19 211.03 52.03H211.02Z" fill="white"/>
<mask id="mask0_3_184" style="mask-type:luminance" maskUnits="userSpaceOnUse" x="0" y="0" width="221" height="111">
<path d="M220.47 0H0V110.47H220.47V0Z" fill="white"/>
</mask>
<g mask="url(#mask0_3_184)">
<path d="M82.11 68.86C82.11 97.99 58.49 121.61 29.36 121.61C0.229994 121.61 -23.38 98 -23.38 68.86C-23.38 39.72 0.239996 16.12 29.37 16.12C58.5 16.12 82.12 39.73 82.12 68.87L82.11 68.86Z" fill="white"/>
<path d="M77.9199 89.5H-19.1801C-17.4301 93.62 -15.1601 97.46 -12.4601 100.97H71.1999C73.8899 97.47 76.1599 93.62 77.9199 89.5Z" fill="#D12027"/>
<path d="M29.37 16.12C4.72999 16.12 -15.97 33.02 -21.76 55.87H80.49C74.7 33.02 54.01 16.12 29.36 16.12H29.37Z" fill="#004F8D"/>
<path d="M-0.459961 25.36C-0.199961 25.18 0.0600391 25.01 0.330039 24.83C0.0700391 25 -0.199961 25.18 -0.459961 25.36Z" fill="#D12027"/>
<path d="M13.25 18.64C13.47 18.57 13.7 18.5 13.92 18.43C13.69 18.5 13.47 18.57 13.25 18.64Z" fill="#D12027"/>
<path d="M54.02 22.24C54.24 22.35 54.46 22.47 54.67 22.58C54.45 22.46 54.23 22.35 54.02 22.24Z" fill="#D12027"/>
<path d="M49.8199 20.23C49.9699 20.29 50.1199 20.36 50.2699 20.43C50.1199 20.37 49.9699 20.3 49.8199 20.23Z" fill="#D12027"/>
<path d="M40.99 46.31H-18.32C-18.13 45.91 -17.93 45.52 -17.73 45.13C-21.33 52.27 -23.37 60.32 -23.37 68.86C-23.37 71.99 -23.08 75.05 -22.56 78.03H20.67C27.38 67.54 34.65 56.2 40.99 46.31Z" fill="#D12027"/>
<path d="M44.8101 18.42C45.0301 18.49 45.2601 18.56 45.4801 18.63C45.2601 18.56 45.0401 18.49 44.8101 18.42Z" fill="#D12027"/>
<path d="M40.9901 46.31C47.3701 36.36 52.8101 27.88 55.8201 23.23C55.4501 23.01 55.0701 22.79 54.6801 22.58C54.4601 22.46 54.2401 22.35 54.0301 22.24C53.5701 22 53.1101 21.76 52.6401 21.53C52.3901 21.41 52.1401 21.29 51.8901 21.17C51.3501 20.92 50.8101 20.67 50.2701 20.44C50.1201 20.38 49.9701 20.31 49.8201 20.24C49.1401 19.96 48.4501 19.69 47.7601 19.43C47.5301 19.34 47.3001 19.26 47.0701 19.18C46.5501 18.99 46.0201 18.81 45.4901 18.64C45.2701 18.57 45.0501 18.5 44.8201 18.43C44.1001 18.21 43.3701 18 42.6301 17.81C42.5001 17.78 42.3701 17.75 42.2401 17.72C41.6101 17.56 40.9701 17.41 40.3301 17.28C40.1001 17.23 39.8601 17.18 39.6301 17.14C39.0201 17.02 38.3901 16.91 37.7701 16.81C37.6001 16.78 37.4401 16.75 37.2801 16.73C36.5001 16.61 35.7301 16.52 34.9401 16.43C34.7401 16.41 34.5501 16.39 34.3501 16.37C33.7301 16.31 33.1101 16.27 32.4801 16.23C32.2501 16.22 32.0201 16.2 31.7901 16.19C30.9801 16.15 30.1701 16.13 29.3601 16.13C28.5501 16.13 27.7401 16.15 26.9301 16.19C26.7001 16.19 26.4701 16.22 26.2401 16.23C25.6101 16.27 24.9901 16.31 24.3701 16.37C24.1701 16.39 23.9801 16.4 23.7801 16.43C23.0001 16.51 22.2201 16.61 21.4401 16.73C21.2701 16.76 21.1101 16.79 20.9501 16.81C20.3301 16.91 19.7101 17.02 19.0901 17.14C18.8601 17.19 18.6201 17.24 18.3901 17.28C17.7501 17.41 17.1201 17.56 16.4901 17.72C16.3601 17.75 16.2301 17.78 16.1001 17.81C15.3601 18 14.6401 18.21 13.9201 18.43C13.6901 18.5 13.4701 18.57 13.2501 18.64C12.7201 18.81 12.1901 18.99 11.6701 19.18C11.4401 19.26 11.2101 19.34 10.9801 19.43C10.2901 19.69 9.60005 19.96 8.92005 20.24C8.77005 20.3 8.62005 20.37 8.47005 20.44C7.92005 20.68 7.38005 20.92 6.85005 21.17C6.60005 21.29 6.35005 21.41 6.10005 21.53C5.64005 21.76 5.17005 22 4.72005 22.24C4.50005 22.36 4.28005 22.47 4.06005 22.59C3.44005 22.93 2.84005 23.28 2.24005 23.64C2.00005 23.79 1.76005 23.94 1.52005 24.09C1.12005 24.34 0.730054 24.59 0.340054 24.85C0.0800536 25.02 -0.189947 25.2 -0.449947 25.38C-0.859947 25.67 -1.26995 25.96 -1.67995 26.25C-2.00995 26.49 -2.33995 26.74 -2.66995 26.98C-3.06995 27.29 -3.46995 27.6 -3.84995 27.91C-4.11995 28.13 -4.38995 28.35 -4.65995 28.58C-4.95995 28.83 -5.25995 29.09 -5.54995 29.36C-5.81995 29.59 -6.07995 29.83 -6.33995 30.07C-6.76995 30.47 -7.18995 30.87 -7.60995 31.28C-7.90995 31.58 -8.20995 31.89 -8.50995 32.2C-8.75995 32.46 -9.00995 32.72 -9.25995 32.98C-9.52995 33.27 -9.78995 33.56 -10.0499 33.85C-10.2799 34.1 -10.4999 34.36 -10.7199 34.62C-11.1499 35.12 -11.5699 35.63 -11.9799 36.15C-12.1999 36.43 -12.4199 36.7 -12.6299 36.98C-12.8799 37.31 -13.1299 37.65 -13.3799 37.99C-13.5599 38.24 -13.7399 38.48 -13.9099 38.73C-14.1499 39.08 -14.3999 39.43 -14.6299 39.79C-14.7899 40.03 -14.9399 40.27 -15.0899 40.51C-15.4999 41.16 -15.8999 41.81 -16.2899 42.47C-16.4299 42.72 -16.5799 42.96 -16.7099 43.21C-16.9199 43.59 -17.1299 43.98 -17.3399 44.37C-17.4699 44.62 -17.5999 44.87 -17.7299 45.13C-17.9299 45.52 -18.1299 45.91 -18.3199 46.31H40.9901Z" fill="black"/>
<path d="M57.58 28.62L57.41 30.15L55.91 30.46L57.31 31.09L57.14 32.62L58.17 31.49L59.57 32.12L58.81 30.79L59.85 29.65L58.35 29.96L57.58 28.62Z" fill="white"/>
<path d="M57.06 32.79C56.98 32.76 56.94 32.68 56.95 32.6L57.1 31.21L55.83 30.63C55.75 30.6 55.71 30.52 55.72 30.43C55.72 30.35 55.79 30.28 55.87 30.27L57.24 29.99L57.4 28.6C57.4 28.52 57.47 28.45 57.55 28.44C57.63 28.42 57.71 28.46 57.76 28.53L58.45 29.75L59.82 29.47C59.9 29.45 59.98 29.49 60.02 29.56C60.06 29.63 60.05 29.72 60 29.78L59.06 30.81L59.75 32.03C59.79 32.1 59.78 32.19 59.73 32.25C59.67 32.31 59.59 32.33 59.51 32.3L58.23 31.72L57.29 32.75C57.29 32.75 57.2 32.81 57.15 32.81C57.15 32.81 57.1 32.81 57.07 32.79H57.06ZM57.61 30.17C57.61 30.25 57.54 30.32 57.46 30.33L56.53 30.52L57.4 30.91C57.47 30.95 57.52 31.02 57.51 31.11L57.4 32.06L58.04 31.36C58.1 31.3 58.19 31.28 58.26 31.31L59.13 31.7L58.66 30.87C58.62 30.8 58.63 30.71 58.69 30.64L59.33 29.94L58.4 30.13C58.32 30.14 58.24 30.11 58.2 30.04L57.73 29.21L57.62 30.16L57.61 30.17Z" fill="white"/>
<path d="M53.1699 35.09L52.4499 36.45L50.9399 36.18L52.0099 37.29L51.2799 38.65L52.6599 37.97L53.7299 39.08L53.5199 37.56L54.8999 36.88L53.3899 36.61L53.1699 35.09Z" fill="white"/>
<path d="M53.6 39.21L52.63 38.2L51.37 38.81C51.3 38.85 51.21 38.83 51.15 38.77C51.09 38.71 51.08 38.62 51.12 38.55L51.78 37.32L50.81 36.31C50.75 36.25 50.74 36.16 50.78 36.09C50.82 36.02 50.9 35.98 50.98 35.99L52.36 36.24L53.02 35.01C53.06 34.94 53.14 34.9 53.22 34.91C53.3 34.92 53.36 34.99 53.38 35.07L53.57 36.46L54.95 36.7C55.03 36.72 55.09 36.78 55.1 36.86C55.11 36.94 55.07 37.02 55 37.06L53.74 37.68L53.93 39.06C53.94 39.14 53.9 39.22 53.82 39.26C53.82 39.26 53.77 39.28 53.74 39.28C53.74 39.28 53.64 39.26 53.6 39.22V39.21ZM52.81 37.84L53.47 38.52L53.34 37.58C53.33 37.5 53.37 37.42 53.45 37.38L54.31 36.96L53.37 36.79C53.29 36.78 53.23 36.71 53.22 36.63L53.09 35.69L52.64 36.53C52.6 36.6 52.52 36.64 52.44 36.63L51.5 36.46L52.16 37.15C52.22 37.21 52.23 37.3 52.19 37.37L51.74 38.21L52.59 37.8C52.59 37.8 52.65 37.78 52.67 37.78C52.72 37.78 52.77 37.8 52.81 37.84Z" fill="white"/>
<path d="M63.82 35.09L63.1 36.45L61.58 36.19L62.65 37.29L61.93 38.65L63.31 37.97L64.38 39.08L64.17 37.56L65.55 36.88L64.03 36.62L63.82 35.09Z" fill="white"/>
<path d="M64.25 39.21L63.28 38.2L62.02 38.81C61.95 38.84 61.86 38.83 61.8 38.77C61.74 38.71 61.73 38.62 61.77 38.55L62.42 37.31L61.45 36.3C61.39 36.24 61.38 36.15 61.42 36.07C61.46 36 61.54 35.96 61.62 35.97L63 36.21L63.66 34.97C63.7 34.9 63.78 34.86 63.86 34.87C63.94 34.88 64 34.95 64.02 35.03L64.21 36.42L65.59 36.66C65.67 36.67 65.73 36.74 65.75 36.82C65.76 36.9 65.72 36.98 65.64 37.02L64.38 37.64L64.58 39.02C64.59 39.1 64.55 39.18 64.48 39.22C64.48 39.22 64.42 39.24 64.4 39.24C64.35 39.24 64.3 39.22 64.26 39.18L64.25 39.21ZM63.45 37.84L64.11 38.52L63.98 37.58C63.97 37.5 64.01 37.42 64.09 37.38L64.95 36.96L64.01 36.79C63.93 36.78 63.86 36.71 63.85 36.63L63.72 35.69L63.27 36.53C63.23 36.6 63.15 36.64 63.07 36.63L62.13 36.46L62.79 37.15C62.85 37.21 62.86 37.3 62.82 37.37L62.38 38.2L63.23 37.79C63.23 37.79 63.29 37.77 63.31 37.77C63.31 37.77 63.41 37.79 63.45 37.83V37.84Z" fill="white"/>
<path d="M58.3099 42.08L57.5799 43.44L56.0699 43.16L57.1299 44.28L56.3999 45.63L57.7799 44.97L58.8499 46.07L58.6399 44.56L60.0299 43.89L58.5199 43.61L58.3099 42.08Z" fill="white"/>
<path d="M58.71 46.21L57.74 45.2L56.48 45.8C56.4 45.84 56.32 45.82 56.26 45.76C56.2 45.7 56.19 45.61 56.23 45.54L56.89 44.31L55.93 43.29C55.87 43.23 55.86 43.14 55.9 43.07C55.94 43 56.02 42.96 56.1 42.97L57.48 43.22L58.14 41.98C58.18 41.91 58.26 41.87 58.34 41.89C58.42 41.9 58.48 41.97 58.5 42.05L58.69 43.44L60.07 43.69C60.15 43.7 60.21 43.77 60.23 43.85C60.24 43.93 60.2 44.01 60.12 44.05L58.85 44.66L59.04 46.04C59.05 46.12 59.01 46.2 58.93 46.24C58.93 46.24 58.87 46.26 58.85 46.26C58.85 46.26 58.75 46.24 58.71 46.2V46.21ZM57.92 44.84L58.58 45.53L58.45 44.59C58.44 44.51 58.48 44.43 58.56 44.39L59.42 43.98L58.48 43.81C58.4 43.8 58.34 43.73 58.33 43.65L58.2 42.7L57.75 43.54C57.71 43.61 57.63 43.65 57.55 43.64L56.61 43.47L57.27 44.16C57.32 44.22 57.34 44.31 57.3 44.38L56.85 45.21L57.7 44.81C57.7 44.81 57.76 44.79 57.78 44.79C57.83 44.79 57.88 44.81 57.92 44.85V44.84Z" fill="white"/>
<path d="M47.97 42.09L47.25 43.44L45.73 43.17L46.8 44.28L46.07 45.64L47.45 44.96L48.52 46.07L48.31 44.55L49.7 43.88L48.18 43.61L47.97 42.09Z" fill="white"/>
<path d="M48.39 46.21L47.42 45.2L46.16 45.81C46.09 45.85 46 45.83 45.94 45.77C45.88 45.71 45.87 45.62 45.91 45.55L46.57 44.31L45.6 43.31C45.54 43.25 45.53 43.16 45.57 43.09C45.61 43.02 45.69 42.98 45.77 43L47.15 43.24L47.81 42C47.85 41.93 47.93 41.89 48.01 41.9C48.09 41.91 48.15 41.98 48.16 42.06L48.35 43.45L49.73 43.7C49.81 43.71 49.87 43.78 49.89 43.86C49.9 43.94 49.86 44.02 49.78 44.06L48.52 44.66L48.71 46.05C48.72 46.13 48.68 46.21 48.6 46.25C48.6 46.25 48.55 46.27 48.52 46.27C48.47 46.27 48.42 46.25 48.38 46.21H48.39ZM47.6 44.84L48.26 45.53L48.13 44.58C48.12 44.5 48.16 44.42 48.24 44.38L49.09 43.97L48.15 43.8C48.07 43.79 48.01 43.72 48 43.64L47.87 42.7L47.42 43.54C47.38 43.61 47.3 43.65 47.22 43.64L46.29 43.47L46.95 44.15C47.01 44.21 47.02 44.3 46.98 44.37L46.53 45.21L47.38 44.8C47.38 44.8 47.43 44.78 47.46 44.78C47.51 44.78 47.56 44.8 47.6 44.84Z" fill="white"/>
<path d="M68.2 42.11L68.11 43.65L66.61 44.03L68.05 44.6L67.95 46.13L68.92 44.95L70.36 45.52L69.53 44.22L70.52 43.03L69.03 43.41L68.2 42.11Z" fill="white"/>
<path d="M67.87 46.31C67.79 46.28 67.75 46.2 67.75 46.12L67.84 44.72L66.53 44.2C66.45 44.17 66.4 44.09 66.41 44.01C66.41 43.93 66.47 43.86 66.55 43.84L67.91 43.49L67.99 42.1C67.99 42.02 68.05 41.95 68.13 41.93C68.21 41.91 68.3 41.94 68.34 42.01L69.09 43.19L70.45 42.84C70.53 42.82 70.61 42.86 70.66 42.92C70.71 42.99 70.7 43.08 70.65 43.14L69.76 44.22L70.51 45.4C70.55 45.47 70.55 45.56 70.49 45.62C70.44 45.68 70.35 45.71 70.27 45.68L68.96 45.16L68.07 46.24C68.07 46.24 67.98 46.31 67.92 46.31C67.92 46.31 67.87 46.31 67.85 46.3L67.87 46.31ZM68.29 43.66C68.29 43.74 68.23 43.81 68.15 43.83L67.23 44.07L68.12 44.42C68.2 44.45 68.24 44.53 68.24 44.61L68.18 45.55L68.78 44.82C68.83 44.75 68.92 44.73 69 44.76L69.89 45.11L69.38 44.31C69.33 44.24 69.34 44.15 69.39 44.09L70 43.35L69.08 43.59C69 43.61 68.92 43.58 68.87 43.51L68.36 42.71L68.3 43.65L68.29 43.66Z" fill="white"/>
<path d="M42.29 49.2L42.12 50.73L40.62 51.04L42.03 51.68L41.86 53.21L42.89 52.06L44.3 52.69L43.53 51.36L44.56 50.21L43.05 50.53L42.29 49.2Z" fill="white"/>
<path d="M41.78 53.38C41.7 53.35 41.66 53.27 41.67 53.19L41.82 51.79L40.54 51.22C40.47 51.18 40.42 51.11 40.43 51.02C40.43 50.94 40.5 50.87 40.58 50.86L41.95 50.57L42.1 49.18C42.11 49.1 42.17 49.03 42.25 49.01C42.33 48.99 42.41 49.03 42.46 49.1L43.15 50.31L44.53 50.02C44.61 50 44.69 50.04 44.73 50.11C44.77 50.18 44.76 50.27 44.71 50.33L43.77 51.37L44.47 52.58C44.51 52.65 44.5 52.74 44.44 52.8C44.39 52.86 44.3 52.88 44.22 52.85L42.94 52.27L42 53.31C42 53.31 41.91 53.37 41.86 53.37C41.86 53.37 41.81 53.37 41.78 53.35V53.38ZM42.31 50.74C42.31 50.82 42.24 50.89 42.16 50.9L41.23 51.1L42.1 51.49C42.17 51.52 42.22 51.6 42.21 51.68L42.11 52.63L42.75 51.92C42.8 51.86 42.89 51.84 42.97 51.88L43.84 52.27L43.37 51.44C43.33 51.37 43.34 51.28 43.4 51.22L44.04 50.51L43.1 50.71C43.02 50.73 42.94 50.69 42.9 50.62L42.43 49.8L42.33 50.74H42.31Z" fill="white"/>
<path d="M73.81 49.17L73.16 50.56L71.63 50.37L72.76 51.43L72.1 52.82L73.44 52.08L74.57 53.13L74.28 51.62L75.63 50.88L74.1 50.68L73.81 49.17Z" fill="white"/>
<path d="M74.44 53.27L73.41 52.31L72.19 52.98C72.12 53.02 72.03 53.01 71.97 52.95C71.91 52.89 71.89 52.81 71.93 52.73L72.53 51.46L71.5 50.5C71.44 50.44 71.42 50.35 71.46 50.28C71.49 50.2 71.57 50.16 71.66 50.17L73.05 50.35L73.64 49.09C73.68 49.01 73.75 48.97 73.84 48.98C73.92 48.98 73.99 49.05 74 49.13L74.27 50.51L75.66 50.68C75.74 50.69 75.81 50.75 75.82 50.83C75.83 50.91 75.79 50.99 75.72 51.03L74.49 51.71L74.76 53.08C74.78 53.16 74.74 53.24 74.67 53.28C74.67 53.28 74.61 53.3 74.57 53.3C74.57 53.3 74.48 53.28 74.44 53.25V53.27ZM73.57 51.94L74.27 52.59L74.09 51.66C74.07 51.58 74.11 51.5 74.18 51.46L75.02 51L74.07 50.88C73.99 50.87 73.92 50.81 73.91 50.73L73.73 49.8L73.33 50.66C73.3 50.74 73.22 50.78 73.13 50.77L72.18 50.65L72.88 51.3C72.94 51.36 72.96 51.45 72.92 51.52L72.52 52.38L73.35 51.93C73.35 51.93 73.41 51.9 73.44 51.9C73.44 51.9 73.53 51.92 73.57 51.95V51.94Z" fill="white"/>
<path d="M64.14 49.27L63.2 50.49L61.75 49.96L62.61 51.24L61.67 52.45L63.14 52.03L64.01 53.3L64.06 51.77L65.54 51.33L64.09 50.81L64.14 49.27Z" fill="white"/>
<path d="M63.8501 53.4L63.0601 52.24L61.7201 52.62C61.6401 52.64 61.5501 52.62 61.5101 52.54C61.4701 52.47 61.4701 52.38 61.5201 52.31L62.3801 51.21L61.5901 50.05C61.5501 49.98 61.5501 49.89 61.5901 49.82C61.6401 49.76 61.7301 49.73 61.8101 49.76L63.1301 50.24L63.9801 49.13C64.0301 49.06 64.1201 49.04 64.2001 49.07C64.2801 49.1 64.3301 49.17 64.3301 49.26L64.2901 50.66L65.6101 51.14C65.6901 51.17 65.7401 51.24 65.7401 51.33C65.7401 51.41 65.6801 51.48 65.6001 51.51L64.2501 51.9L64.2101 53.29C64.2101 53.37 64.1501 53.44 64.0701 53.47C64.0701 53.47 64.0301 53.47 64.0201 53.47C63.9601 53.47 63.9001 53.44 63.8601 53.39L63.8501 53.4ZM63.2901 51.91L63.8301 52.7L63.8601 51.75C63.8601 51.67 63.9201 51.59 64.0001 51.57L64.9201 51.3L64.0201 50.98C63.9401 50.95 63.8901 50.87 63.8901 50.79L63.9201 49.84L63.3401 50.59C63.2901 50.65 63.2001 50.68 63.1201 50.65L62.2201 50.32L62.7601 51.11C62.8101 51.18 62.8001 51.27 62.7601 51.33L62.1701 52.07L63.0801 51.81C63.0801 51.81 63.1201 51.81 63.1301 51.81C63.1901 51.81 63.2501 51.84 63.2901 51.89V51.91Z" fill="white"/>
<path d="M53.26 49.2L52.48 50.53L50.98 50.19L51.99 51.35L51.2 52.66L52.61 52.06L53.63 53.22L53.49 51.69L54.91 51.08L53.4 50.74L53.26 49.2Z" fill="white"/>
<path d="M53.49 53.34L52.56 52.29L51.27 52.84C51.19 52.87 51.11 52.85 51.05 52.79C50.99 52.73 50.99 52.64 51.03 52.57L51.75 51.38L50.83 50.32C50.77 50.26 50.77 50.17 50.81 50.1C50.85 50.03 50.93 49.99 51.01 50.01L52.38 50.32L53.09 49.11C53.13 49.04 53.22 49 53.29 49.02C53.37 49.04 53.43 49.11 53.44 49.19L53.57 50.59L54.93 50.9C55.01 50.92 55.07 50.98 55.08 51.07C55.08 51.15 55.04 51.23 54.97 51.26L53.68 51.82L53.81 53.21C53.81 53.29 53.77 53.37 53.7 53.4C53.7 53.4 53.65 53.42 53.62 53.42C53.57 53.42 53.52 53.4 53.48 53.36L53.49 53.34ZM52.76 51.93L53.39 52.64L53.3 51.7C53.3 51.62 53.34 51.54 53.41 51.51L54.29 51.13L53.36 50.92C53.28 50.9 53.22 50.84 53.22 50.75L53.13 49.8L52.65 50.61C52.61 50.68 52.52 50.72 52.44 50.7L51.51 50.49L52.14 51.21C52.19 51.27 52.2 51.36 52.16 51.43L51.67 52.24L52.54 51.87C52.54 51.87 52.59 51.85 52.61 51.85C52.66 51.85 52.72 51.87 52.75 51.91L52.76 51.93Z" fill="white"/>
<path d="M0.439946 109.65C-0.180054 110.62 -0.690054 111.42 -1.04005 111.96C-1.20005 111.85 -1.36005 111.73 -1.52005 111.61C-1.92005 111.32 -2.32005 111.02 -2.72005 110.72C-2.94005 110.55 -3.15005 110.38 -3.36005 110.22C-3.59005 110.03 -3.82005 109.84 -4.05005 109.65H-4.43005C-3.19005 110.68 -1.90005 111.65 -0.560054 112.56H59.0099C60.3399 111.64 61.6399 110.68 62.8799 109.65H0.439946Z" fill="#D12027"/>
<path d="M-2.71995 110.72C-2.32995 111.02 -1.92995 111.32 -1.51995 111.61C-1.35995 111.73 -1.19995 111.85 -1.03995 111.96C-0.689948 111.42 -0.189946 110.62 0.440054 109.65C4.02005 104.06 11.8601 91.8 20.6701 78.04H-22.5699C-21.4899 84.2 -19.3399 89.99 -16.3199 95.22C-16.2999 95.26 -16.2699 95.3 -16.2499 95.35C-15.8999 95.96 -15.5299 96.55 -15.1599 97.14C-15.1199 97.21 -15.0699 97.27 -15.0299 97.34C-14.6599 97.92 -14.2799 98.49 -13.8799 99.05C-13.8399 99.11 -13.7899 99.17 -13.7499 99.24C-13.3499 99.81 -12.9299 100.38 -12.5099 100.93C-12.4999 100.95 -12.4799 100.96 -12.4699 100.98C-10.6699 103.32 -8.66995 105.51 -6.50995 107.52C-6.46995 107.55 -6.43995 107.59 -6.39995 107.62C-5.96995 108.02 -5.51995 108.41 -5.07995 108.8C-4.91995 108.94 -4.75995 109.08 -4.59995 109.21C-4.41995 109.36 -4.23995 109.5 -4.05995 109.65C-3.82995 109.84 -3.59995 110.03 -3.36995 110.22C-3.14995 110.39 -2.93995 110.56 -2.72995 110.72H-2.71995Z" fill="#FEDA04"/>
<path d="M82.11 68.86C82.11 68.67 82.11 68.48 82.11 68.29H-23.36C-23.36 68.48 -23.37 68.67 -23.37 68.86C-23.37 72.16 -23.05 75.38 -22.47 78.51H81.22C81.8 75.38 82.12 72.16 82.12 68.86H82.11Z" fill="#D12027"/>
<path d="M82.0801 66.83H4.46005C4.45005 67.35 4.43005 67.86 4.43005 68.38H82.1101C82.1101 67.86 82.0901 67.34 82.0801 66.83Z" fill="#D12027"/>
</g>
</g>
<defs>
<clipPath id="clip0_3_184">
<rect width="220.47" height="110.47" fill="white"/>
</clipPath>
</defs>
</svg>
