<?xml version="1.0" encoding="UTF-8"?>
<svg id="Layer_2" data-name="Layer 2" xmlns="http://www.w3.org/2000/svg" xmlns:xlink="http://www.w3.org/1999/xlink" viewBox="0 0 467.17 110.47">
    <defs>
        <style>
            .cls-1 {
            fill: #fff;
            }

            .cls-2 {
            fill: #feda04;
            }

            .cls-3 {
            fill: #d12027;
            }

            .cls-4 {
            fill: #1c3664;
            }

            .cls-5 {
            clip-path: url(#clippath);
            }

            .cls-6 {
            fill: none;
            }

            .cls-7 {
            fill: #c4d3e3;
            }

            .cls-8 {
            fill: #231f20;
            }

            .cls-9 {
            fill: #004f8d;
            }
        </style>
        <clipPath id="clippath">
            <rect class="cls-6" width="220.47" height="110.47"/>
        </clipPath>
    </defs>
    <g id="Layer_1-2" data-name="Layer 1">
        <path class="cls-8" d="M253.68,24.13v7.7c-1.27,.98-2.87,1.47-4.79,1.47-4.35,0-6.52-2.82-6.52-8.45,0-2.27,.46-4.06,1.39-5.35,1.04-1.44,2.6-2.15,4.68-2.15,1.49,0,2.7,.36,3.63,1.08,1.01,.79,1.52,1.89,1.52,3.31h-2.48c0-.74-.2-1.33-.61-1.79-.47-.54-1.17-.81-2.08-.81-2.39,0-3.59,1.9-3.59,5.71,0,1.92,.22,3.4,.67,4.43,.63,1.49,1.73,2.23,3.32,2.23,.62,0,1.21-.07,1.76-.22,.48-.13,.77-.26,.86-.39v-4.97h-3.29v-1.79h5.53Z"/>
        <path class="cls-8" d="M264.55,31.34v1.6c-1.04,.24-1.92,.36-2.67,.36-1.66,0-2.95-.49-3.85-1.48-.96-1.04-1.43-2.58-1.43-4.63s.55-3.4,1.66-4.24c.71-.54,1.61-.81,2.68-.81,1.26,0,2.23,.4,2.9,1.19,.63,.75,.95,1.78,.95,3.09v.52h-6.18c0,1.2,.29,2.24,.87,3.13,.71,1.1,1.72,1.65,3.05,1.65,.58,0,1.25-.13,2.01-.38Zm-5.94-5.74h4.17c0-.45-.13-.85-.4-1.19-.36-.46-.89-.69-1.59-.69-.74,0-1.31,.26-1.72,.77-.3,.37-.46,.74-.46,1.12Z"/>
        <path class="cls-8" d="M267.97,33.04v-10.66h2.01v2.15h.04c.55-1.6,1.64-2.39,3.29-2.39v2.19c-2.22,0-3.34,1.4-3.34,4.19v4.53h-2.01Z"/>
        <path class="cls-8" d="M276.13,33.04v-10.66h2.01v2.13h.05c.58-1.58,1.57-2.37,2.97-2.37,1.57,0,2.47,.75,2.71,2.25h.04c.61-1.5,1.62-2.25,3.03-2.25,1.92,0,2.89,1.17,2.89,3.51v7.39h-2.01v-5.82c0-1.18-.06-1.94-.19-2.29-.19-.52-.62-.79-1.3-.79-.61,0-1.15,.41-1.64,1.22-.47,.79-.71,1.64-.71,2.56v5.11h-2.01v-5.82c0-1.17-.06-1.93-.17-2.27-.18-.53-.6-.8-1.24-.8-.68,0-1.26,.46-1.74,1.39-.45,.87-.68,1.87-.68,2.97v4.53h-2.01Z"/>
        <path class="cls-8" d="M298.9,33.04v-1.32h-.05c-.17,.39-.46,.72-.86,1.01-.53,.38-1.16,.57-1.88,.57-.97,0-1.72-.27-2.26-.82-.51-.51-.77-1.2-.77-2.06,0-2.33,1.94-3.49,5.83-3.49v-1.85c-.16-.91-.71-1.36-1.64-1.36-1.14,0-1.71,.54-1.71,1.62h-2.12c0-2.13,1.33-3.19,3.98-3.19,2.33,0,3.5,1.19,3.5,3.58v7.33h-2.01Zm0-4.77h-.4c-.86,0-1.59,.17-2.19,.52-.66,.39-.99,.9-.99,1.55,0,.4,.12,.73,.34,.98,.23,.26,.5,.38,.81,.38,.66,0,1.24-.32,1.74-.95,.46-.59,.69-1.22,.69-1.89v-.6Z"/>
        <path class="cls-8" d="M304.81,33.04v-10.66h2.01v2.29h.04c.68-1.68,1.8-2.53,3.38-2.53,1.09,0,1.88,.42,2.36,1.26,.34,.59,.5,1.34,.5,2.25v7.39h-2.01v-5.82c0-1.17-.06-1.93-.19-2.27-.18-.53-.61-.8-1.27-.8-.79,0-1.47,.46-2.04,1.39-.52,.87-.79,1.86-.79,2.97v4.53h-2.01Z"/>
        <path class="cls-8" d="M322.94,33.04l5.27-15.45h2.76l5.28,15.45h-2.37l-1.52-4.41h-5.53l-1.5,4.41h-2.38Zm6.64-13.4l-2.24,7.2h4.41l-2.12-7.2h-.04Z"/>
        <path class="cls-8" d="M338.78,33.04v-10.66h2.01v2.13h.04c.58-1.58,1.57-2.37,2.97-2.37,1.57,0,2.47,.75,2.71,2.25h.04c.61-1.5,1.62-2.25,3.03-2.25,1.92,0,2.89,1.17,2.89,3.51v7.39h-2.01v-5.82c0-1.18-.06-1.94-.19-2.29-.19-.52-.62-.79-1.3-.79-.61,0-1.15,.41-1.64,1.22-.47,.79-.71,1.64-.71,2.56v5.11h-2.01v-5.82c0-1.17-.06-1.93-.17-2.27-.18-.53-.6-.8-1.24-.8-.68,0-1.26,.46-1.74,1.39-.45,.87-.68,1.87-.68,2.97v4.53h-2.01Z"/>
        <path class="cls-8" d="M363.61,31.34v1.6c-1.04,.24-1.92,.36-2.67,.36-1.66,0-2.95-.49-3.85-1.48-.96-1.04-1.43-2.58-1.43-4.63s.55-3.4,1.66-4.24c.71-.54,1.61-.81,2.68-.81,1.26,0,2.23,.4,2.9,1.19,.63,.75,.95,1.78,.95,3.09v.52h-6.18c0,1.2,.29,2.24,.87,3.13,.71,1.1,1.72,1.65,3.05,1.65,.58,0,1.25-.13,2.01-.38Zm-5.94-5.74h4.17c0-.45-.13-.85-.4-1.19-.36-.46-.89-.69-1.59-.69-.74,0-1.31,.26-1.72,.77-.3,.37-.46,.74-.46,1.12Z"/>
        <path class="cls-8" d="M367.04,33.04v-10.66h2.01v2.15h.04c.55-1.6,1.64-2.39,3.29-2.39v2.19c-2.22,0-3.33,1.4-3.33,4.19v4.53h-2.01Z"/>
        <path class="cls-8" d="M375.19,19.87v-2.29h2.42v2.29h-2.42Zm.2,13.17v-10.66h2.01v10.66h-2.01Z"/>
        <path class="cls-8" d="M389.02,31.5v1.39c-.85,.27-1.84,.4-2.95,.4-1.85,0-3.23-.66-4.13-1.99-.72-1.05-1.08-2.37-1.08-3.97s.36-2.81,1.08-3.72c.79-.98,1.94-1.48,3.47-1.48,1.38,0,2.39,.4,3.03,1.21,.52,.64,.78,1.48,.78,2.52h-2.31c0-1.44-.55-2.15-1.64-2.15-.66,0-1.18,.29-1.57,.88-.39,.59-.59,1.38-.59,2.36,0,1.28,.28,2.34,.85,3.17,.73,1.06,1.86,1.59,3.38,1.59,.65,0,1.21-.07,1.69-.22Z"/>
        <path class="cls-8" d="M396.98,33.04v-1.32h-.05c-.17,.39-.46,.72-.86,1.01-.53,.38-1.16,.57-1.88,.57-.97,0-1.72-.27-2.26-.82-.51-.51-.77-1.2-.77-2.06,0-2.33,1.94-3.49,5.83-3.49v-1.85c-.16-.91-.71-1.36-1.64-1.36-1.14,0-1.71,.54-1.71,1.62h-2.12c0-2.13,1.33-3.19,3.98-3.19,2.33,0,3.5,1.19,3.5,3.58v7.33h-2.01Zm0-4.77h-.4c-.86,0-1.59,.17-2.19,.52-.66,.39-.99,.9-.99,1.55,0,.4,.12,.73,.34,.98,.23,.26,.5,.38,.81,.38,.66,0,1.24-.32,1.74-.95,.46-.59,.69-1.22,.69-1.89v-.6Z"/>
        <path class="cls-8" d="M402.89,33.04v-10.66h2.01v2.29h.04c.68-1.68,1.8-2.53,3.38-2.53,1.09,0,1.88,.42,2.36,1.26,.34,.59,.5,1.34,.5,2.25v7.39h-2.01v-5.82c0-1.17-.06-1.93-.19-2.27-.18-.53-.61-.8-1.27-.8-.79,0-1.47,.46-2.04,1.39-.52,.87-.79,1.86-.79,2.97v4.53h-2.01Z"/>
        <path class="cls-8" d="M252.59,50.89v2.09c-1.36,.61-2.71,.92-4.06,.92-1.85,0-3.3-.6-4.35-1.82-1.2-1.38-1.8-3.5-1.8-6.34,0-2.3,.41-4.12,1.23-5.44,.98-1.57,2.52-2.36,4.62-2.36,1.55,0,2.78,.42,3.66,1.26,.87,.8,1.3,1.88,1.3,3.23h-2.59c0-1.79-.81-2.69-2.44-2.69-2.22,0-3.33,1.88-3.33,5.64,0,4.48,1.38,6.73,4.15,6.73,1.09,0,2.29-.4,3.61-1.21Z"/>
        <path class="cls-8" d="M255.71,53.65v-15.45h2.01v7.08h.04c.68-1.68,1.8-2.53,3.38-2.53,1.09,0,1.88,.42,2.36,1.26,.34,.59,.5,1.34,.5,2.25v7.39h-2.01v-5.82c0-1.17-.06-1.93-.19-2.27-.18-.53-.61-.8-1.27-.8-.79,0-1.47,.46-2.04,1.39-.52,.87-.79,1.86-.79,2.97v4.53h-2.01Z"/>
        <path class="cls-8" d="M273.14,53.65v-1.32h-.05c-.18,.39-.46,.72-.86,1.01-.53,.38-1.16,.57-1.88,.57-.97,0-1.72-.27-2.27-.82-.51-.51-.77-1.2-.77-2.06,0-2.33,1.94-3.49,5.83-3.49v-1.85c-.16-.91-.71-1.36-1.64-1.36-1.14,0-1.71,.54-1.71,1.62h-2.12c0-2.13,1.33-3.19,3.98-3.19,2.33,0,3.5,1.19,3.5,3.58v7.33h-2.01Zm0-4.77h-.4c-.86,0-1.59,.17-2.19,.52-.66,.39-1,.9-1,1.55,0,.4,.12,.73,.35,.98,.23,.26,.5,.38,.81,.38,.66,0,1.24-.32,1.74-.95,.46-.59,.69-1.22,.69-1.89v-.6Z"/>
        <path class="cls-8" d="M279.07,53.65v-10.66h2.01v2.13h.04c.58-1.58,1.58-2.37,2.97-2.37,1.57,0,2.47,.75,2.71,2.25h.04c.61-1.5,1.62-2.25,3.03-2.25,1.93,0,2.89,1.17,2.89,3.51v7.39h-2.01v-5.82c0-1.18-.06-1.94-.19-2.29-.19-.52-.62-.79-1.3-.79-.61,0-1.15,.41-1.64,1.22-.47,.79-.71,1.64-.71,2.56v5.11h-2.01v-5.82c0-1.17-.06-1.93-.18-2.27-.18-.53-.59-.8-1.24-.8-.68,0-1.26,.46-1.74,1.39-.45,.87-.68,1.87-.68,2.97v4.53h-2.01Z"/>
        <path class="cls-8" d="M298.5,38.19v6.24h.04c.18-.41,.46-.77,.85-1.07,.53-.42,1.17-.62,1.92-.62,2.42,0,3.63,1.9,3.63,5.69s-1.44,5.47-4.32,5.47-4.14-1.55-4.14-4.66v-11.05h2.01Zm0,10.11c0,1.19,.09,2.07,.27,2.63,.3,.92,.88,1.39,1.75,1.39,1.46,0,2.19-1.32,2.19-3.95s-.65-4.05-1.95-4.05c-.74,0-1.33,.48-1.75,1.44-.34,.77-.51,1.62-.51,2.54Z"/>
        <path class="cls-8" d="M315.34,51.94v1.6c-1.04,.24-1.93,.36-2.67,.36-1.66,0-2.95-.49-3.85-1.48-.96-1.04-1.43-2.58-1.43-4.63s.55-3.4,1.66-4.24c.71-.54,1.61-.81,2.68-.81,1.26,0,2.23,.4,2.9,1.19,.63,.75,.95,1.78,.95,3.09v.52h-6.18c0,1.2,.29,2.24,.87,3.13,.71,1.1,1.72,1.65,3.05,1.65,.58,0,1.25-.13,2.01-.38Zm-5.94-5.74h4.17c0-.45-.13-.85-.4-1.19-.36-.46-.89-.69-1.59-.69-.74,0-1.31,.26-1.72,.77-.31,.37-.46,.74-.46,1.12Z"/>
        <path class="cls-8" d="M318.77,53.65v-10.66h2.01v2.15h.04c.55-1.6,1.64-2.39,3.29-2.39v2.19c-2.22,0-3.34,1.4-3.34,4.19v4.53h-2.01Z"/>
        <path class="cls-8" d="M329.62,47.02l.85,.49c.81,.47,1.36,.85,1.66,1.16,.54,.55,.81,1.22,.81,2,0,2.15-1.34,3.23-4.01,3.23-.92,0-1.87-.14-2.87-.43v-1.77c.94,.42,1.84,.62,2.7,.62,1.45,0,2.17-.46,2.17-1.37,0-.35-.19-.68-.58-.99-.12-.11-.5-.35-1.12-.72l-1.04-.63c-.66-.41-1.14-.77-1.43-1.07-.47-.52-.7-1.12-.7-1.82,0-.94,.35-1.68,1.06-2.21,.68-.51,1.59-.77,2.72-.77,.44,0,.91,.05,1.42,.15,.33,.07,.66,.15,.99,.22v1.82c-.9-.41-1.72-.61-2.44-.61-.46,0-.86,.1-1.2,.32-.37,.22-.55,.5-.55,.82s.17,.63,.51,.9c.15,.13,.5,.35,1.03,.67Z"/>
        <path class="cls-8" d="M347.12,53.9c-1.57,0-2.76-.51-3.58-1.53-.77-.96-1.15-2.31-1.15-4.05s.38-3.11,1.15-4.07c.81-1.01,2-1.51,3.58-1.51s2.75,.5,3.55,1.51c.77,.96,1.15,2.31,1.15,4.07s-.38,3.08-1.15,4.05c-.81,1.02-1.99,1.53-3.55,1.53Zm-2.48-5.57c0,2.66,.83,4,2.48,4s2.46-1.33,2.46-4-.82-4.01-2.46-4.01-2.48,1.34-2.48,4.01Z"/>
        <path class="cls-8" d="M355.85,53.65v-9.09h-1.92v-1.58h1.92v-1.22c0-2.54,1.36-3.82,4.07-3.82,.86,0,1.58,.07,2.15,.21v1.67c-.74-.2-1.45-.31-2.13-.31-.74,0-1.28,.26-1.64,.78-.29,.42-.44,.96-.44,1.6v1.09h3.17v1.58h-3.17v9.09h-2.01Z"/>
        <path class="cls-8" d="M380.47,50.89v2.09c-1.36,.61-2.72,.92-4.06,.92-1.85,0-3.3-.6-4.35-1.82-1.2-1.38-1.8-3.5-1.8-6.34,0-2.3,.41-4.12,1.24-5.44,.98-1.57,2.52-2.36,4.62-2.36,1.55,0,2.77,.42,3.66,1.26,.87,.8,1.3,1.88,1.3,3.23h-2.59c0-1.79-.81-2.69-2.44-2.69-2.22,0-3.32,1.88-3.32,5.64,0,4.48,1.38,6.73,4.14,6.73,1.09,0,2.29-.4,3.61-1.21Z"/>
        <path class="cls-8" d="M387.55,53.9c-1.57,0-2.76-.51-3.58-1.53-.77-.96-1.15-2.31-1.15-4.05s.38-3.11,1.15-4.07c.81-1.01,2-1.51,3.58-1.51s2.74,.5,3.55,1.51c.77,.96,1.15,2.31,1.15,4.07s-.38,3.08-1.15,4.05c-.81,1.02-1.99,1.53-3.55,1.53Zm-2.48-5.57c0,2.66,.83,4,2.48,4s2.46-1.33,2.46-4-.82-4.01-2.46-4.01-2.48,1.34-2.48,4.01Z"/>
        <path class="cls-8" d="M395.48,53.65v-10.66h2.01v2.13h.04c.58-1.58,1.57-2.37,2.97-2.37,1.57,0,2.47,.75,2.71,2.25h.04c.61-1.5,1.62-2.25,3.03-2.25,1.92,0,2.89,1.17,2.89,3.51v7.39h-2.01v-5.82c0-1.18-.06-1.94-.19-2.29-.19-.52-.62-.79-1.3-.79-.61,0-1.15,.41-1.64,1.22-.47,.79-.71,1.64-.71,2.56v5.11h-2.01v-5.82c0-1.17-.06-1.93-.17-2.27-.18-.53-.6-.8-1.24-.8-.68,0-1.26,.46-1.74,1.39-.45,.87-.68,1.87-.68,2.97v4.53h-2.01Z"/>
        <path class="cls-8" d="M413.15,53.65v-10.66h2.01v2.13h.04c.58-1.58,1.58-2.37,2.97-2.37,1.57,0,2.47,.75,2.71,2.25h.04c.61-1.5,1.62-2.25,3.03-2.25,1.93,0,2.89,1.17,2.89,3.51v7.39h-2.01v-5.82c0-1.18-.06-1.94-.19-2.29-.19-.52-.62-.79-1.3-.79-.61,0-1.15,.41-1.64,1.22-.47,.79-.71,1.64-.71,2.56v5.11h-2.01v-5.82c0-1.17-.06-1.93-.18-2.27-.18-.53-.59-.8-1.24-.8-.68,0-1.26,.46-1.74,1.39-.45,.87-.68,1.87-.68,2.97v4.53h-2.01Z"/>
        <path class="cls-8" d="M437.98,51.94v1.6c-1.04,.24-1.93,.36-2.67,.36-1.66,0-2.95-.49-3.85-1.48-.96-1.04-1.43-2.58-1.43-4.63s.55-3.4,1.66-4.24c.71-.54,1.61-.81,2.68-.81,1.26,0,2.23,.4,2.9,1.19,.63,.75,.95,1.78,.95,3.09v.52h-6.18c0,1.2,.29,2.24,.87,3.13,.71,1.1,1.72,1.65,3.05,1.65,.58,0,1.25-.13,2.01-.38Zm-5.94-5.74h4.17c0-.45-.13-.85-.4-1.19-.36-.46-.89-.69-1.59-.69-.74,0-1.31,.26-1.72,.77-.31,.37-.46,.74-.46,1.12Z"/>
        <path class="cls-8" d="M441.41,53.65v-10.66h2.01v2.15h.04c.55-1.6,1.64-2.39,3.29-2.39v2.19c-2.22,0-3.34,1.4-3.34,4.19v4.53h-2.01Z"/>
        <path class="cls-8" d="M456.92,52.1v1.39c-.85,.27-1.84,.41-2.95,.41-1.85,0-3.23-.66-4.13-1.99-.72-1.05-1.08-2.37-1.08-3.97s.36-2.81,1.08-3.72c.79-.98,1.94-1.48,3.47-1.48,1.38,0,2.39,.4,3.03,1.21,.52,.64,.78,1.48,.78,2.52h-2.31c0-1.44-.55-2.15-1.64-2.15-.66,0-1.18,.29-1.58,.88-.39,.59-.59,1.38-.59,2.36,0,1.28,.29,2.34,.85,3.17,.73,1.06,1.86,1.59,3.38,1.59,.65,0,1.21-.07,1.7-.22Z"/>
        <path class="cls-8" d="M466.93,51.94v1.6c-1.04,.24-1.92,.36-2.67,.36-1.66,0-2.95-.49-3.85-1.48-.96-1.04-1.43-2.58-1.43-4.63s.55-3.4,1.66-4.24c.71-.54,1.61-.81,2.68-.81,1.26,0,2.23,.4,2.9,1.19,.63,.75,.95,1.78,.95,3.09v.52h-6.18c0,1.2,.29,2.24,.87,3.13,.71,1.1,1.72,1.65,3.05,1.65,.58,0,1.25-.13,2.01-.38Zm-5.94-5.74h4.17c0-.45-.13-.85-.4-1.19-.36-.46-.89-.69-1.59-.69-.74,0-1.31,.26-1.72,.77-.3,.37-.46,.74-.46,1.12Z"/>
        <path class="cls-8" d="M243.31,74.25v-15.45h3.38c4.24,0,6.37,2.56,6.37,7.68,0,2.97-.66,5.07-1.99,6.29-1.08,.99-2.74,1.49-5,1.49h-2.76Zm1.35-14.22v12.98h1.32c1.92,0,3.29-.39,4.1-1.16,1-.97,1.5-2.76,1.5-5.36s-.55-4.45-1.65-5.4c-.83-.71-2.25-1.06-4.26-1.06h-1Z"/>
        <path class="cls-8" d="M263.26,73.16v1.09c-.74,.18-1.52,.27-2.33,.27-1.63,0-2.89-.51-3.76-1.53-.87-1.02-1.31-2.47-1.31-4.34,0-3.52,1.35-5.28,4.06-5.28,1.2,0,2.12,.41,2.76,1.24,.53,.69,.8,1.56,.8,2.59v.56h-6.24c-.01,.25-.02,.62-.02,1.1,0,1.03,.18,1.9,.53,2.61,.65,1.33,1.84,1.99,3.58,1.99,.71,0,1.36-.1,1.95-.3Zm-5.89-6.47h4.78c0-.49-.15-.95-.45-1.37-.42-.58-1.01-.87-1.79-.87-1.4,0-2.24,.75-2.54,2.24Z"/>
        <path class="cls-8" d="M273.37,74.25v-2.62h-.04c-.27,.81-.58,1.42-.95,1.83-.63,.7-1.51,1.05-2.64,1.05-.57,0-1.11-.17-1.61-.51-.79-.53-1.19-1.36-1.19-2.52v-7.88h1.12v6.73c0,.88,.08,1.54,.24,1.97,.28,.76,.82,1.14,1.64,1.14,.93,0,1.73-.59,2.41-1.78,.66-1.15,.98-2.48,.98-3.97v-4.08h1.12v10.66h-1.07Z"/>
        <path class="cls-8" d="M283.5,73.24v1.17c-.34,.07-.71,.1-1.14,.1-1.88,0-2.82-.87-2.82-2.62v-7.22h-1.71v-1.07h1.71v-2.46l1.12-.74v3.2h2.84v1.07h-2.84v6.76c0,.58,.07,1,.22,1.28,.26,.49,.77,.73,1.53,.73,.29,0,.66-.07,1.09-.2Z"/>
        <path class="cls-8" d="M288.96,67.84l.92,.45c.86,.42,1.42,.75,1.67,.97,.56,.5,.84,1.17,.84,2.01,0,2.15-1.36,3.23-4.08,3.23-.97,0-1.9-.15-2.8-.44v-1.15c1.03,.34,1.96,.51,2.8,.51,1.82,0,2.73-.67,2.73-2.02,0-.54-.23-1-.7-1.37-.21-.16-.61-.38-1.2-.67l-.9-.43c-.9-.43-1.48-.74-1.74-.94-.62-.49-.93-1.1-.93-1.84,0-1.88,1.17-2.82,3.51-2.82,.73,0,1.6,.12,2.6,.35v1.17c-.9-.3-1.73-.45-2.5-.45-.71,0-1.27,.14-1.67,.44-.4,.29-.6,.65-.6,1.08,0,.47,.23,.87,.68,1.2,.13,.09,.58,.32,1.36,.7Z"/>
        <path class="cls-8" d="M301.73,73.22v1.07c-.53,.14-1.14,.21-1.84,.21-1.75,0-3.07-.54-3.97-1.61-.83-.98-1.25-2.36-1.25-4.13,0-3.61,1.35-5.41,4.04-5.41,1.33,0,2.28,.43,2.86,1.29,.36,.56,.55,1.23,.55,2.02h-1.46c0-.63-.16-1.16-.49-1.56-.36-.45-.85-.68-1.48-.68-.93,0-1.62,.45-2.09,1.35-.39,.74-.58,1.68-.58,2.83,0,3.23,1.35,4.84,4.06,4.84,.5,0,1.05-.07,1.65-.21Z"/>
        <path class="cls-8" d="M305.3,74.25v-15.45h1.12v7.41h.04c.27-.82,.58-1.43,.93-1.83,.62-.69,1.49-1.04,2.61-1.04,.58,0,1.12,.17,1.62,.5,.79,.52,1.18,1.36,1.18,2.51v7.89h-1.12v-6.71c0-.89-.08-1.55-.24-1.97-.29-.77-.84-1.15-1.66-1.15-.93,0-1.73,.59-2.39,1.78-.65,1.15-.97,2.48-.97,3.97v4.08h-1.12Z"/>
        <path class="cls-8" d="M316.59,69.44v-1.26h6.16v1.26h-6.16Z"/>
        <path class="cls-8" d="M324.89,74.25l4.91-15.45h1.73l4.99,15.45h-1.31l-1.64-5h-5.77l-1.57,5h-1.32Zm5.65-14.23l-2.36,7.99h5l-2.59-7.99h-.04Z"/>
        <path class="cls-8" d="M339.26,74.25v-10.66h1.12v2.62h.04c.25-.81,.54-1.42,.89-1.83,.6-.69,1.43-1.04,2.5-1.04,.9,0,1.57,.31,2.01,.94,.33,.47,.49,1.02,.49,1.65h.04c.54-1.73,1.55-2.59,3.03-2.59,1.85,0,2.78,1.01,2.78,3.02v7.89h-1.13v-6.71c0-.89-.07-1.55-.21-1.97-.26-.77-.77-1.15-1.51-1.15-.85,0-1.57,.58-2.18,1.73-.58,1.11-.87,2.38-.87,3.83v4.28h-1.12v-6.71c0-2.08-.46-3.12-1.39-3.12s-1.75,.59-2.42,1.78c-.65,1.15-.97,2.48-.97,3.97v4.08h-1.12Z"/>
        <path class="cls-8" d="M363.05,73.16v1.09c-.74,.18-1.52,.27-2.33,.27-1.63,0-2.89-.51-3.76-1.53-.87-1.02-1.31-2.47-1.31-4.34,0-3.52,1.35-5.28,4.06-5.28,1.2,0,2.12,.41,2.76,1.24,.53,.69,.8,1.56,.8,2.59v.56h-6.24c-.01,.25-.02,.62-.02,1.1,0,1.03,.18,1.9,.53,2.61,.65,1.33,1.84,1.99,3.58,1.99,.71,0,1.36-.1,1.95-.3Zm-5.89-6.47h4.78c0-.49-.15-.95-.45-1.37-.42-.58-1.01-.87-1.79-.87-1.4,0-2.24,.75-2.54,2.24Z"/>
        <path class="cls-8" d="M366.76,74.25v-10.66h1.12v2.18h.05c.57-1.61,1.7-2.42,3.38-2.42v1.2c-1.28,0-2.21,.64-2.79,1.91-.43,.93-.65,2.09-.65,3.49v4.3h-1.12Z"/>
        <path class="cls-8" d="M374.25,60.61v-1.82h1.65v1.82h-1.65Zm.26,13.64v-10.66h1.12v10.66h-1.12Z"/>
        <path class="cls-8" d="M380.11,74.25v-15.45h1.12v9.47l3.99-4.68h1.41l-3.97,4.79,4.48,5.87h-1.45l-4.42-5.82h-.04v5.82h-1.12Z"/>
        <path class="cls-8" d="M395.03,74.5v-1.75h-.04c-.81,1.17-1.91,1.75-3.31,1.75-.96,0-1.67-.33-2.14-.98-.38-.51-.57-1.13-.57-1.87,0-2.22,2.02-3.36,6.07-3.42,0-1.23-.03-1.99-.09-2.26-.24-1.03-1.01-1.54-2.32-1.54s-2.06,.58-2.32,1.73h-1.17c0-.7,.26-1.31,.79-1.83,.66-.65,1.62-.97,2.89-.97,1.44,0,2.41,.43,2.91,1.3,.29,.51,.43,1.32,.43,2.41v7.45h-1.12Zm0-5.21h-1.12c-1.05,0-1.9,.2-2.55,.59-.71,.43-1.06,1.04-1.06,1.82,0,.44,.16,.79,.47,1.05,.31,.27,.69,.4,1.12,.4,.55,0,1.07-.15,1.56-.44,.47-.28,.83-.63,1.08-1.05,.33-.55,.49-1.35,.49-2.37Z"/>
        <path class="cls-8" d="M400.52,74.25v-10.66h1.12v2.62h.04c.27-.82,.58-1.43,.93-1.83,.62-.69,1.49-1.04,2.61-1.04,.58,0,1.11,.17,1.61,.5,.78,.52,1.17,1.36,1.17,2.51v7.89h-1.12v-6.71c0-.89-.08-1.55-.24-1.97-.28-.77-.82-1.15-1.64-1.15-.93,0-1.73,.59-2.39,1.78-.65,1.15-.97,2.48-.97,3.97v4.08h-1.12Z"/>
        <path class="cls-8" d="M412.17,60.61v-1.82h1.65v1.82h-1.65Zm.26,13.64v-10.66h1.12v10.66h-1.12Z"/>
        <path class="cls-8" d="M420.45,67.84l.92,.45c.86,.42,1.42,.75,1.67,.97,.56,.5,.84,1.17,.84,2.01,0,2.15-1.36,3.23-4.08,3.23-.97,0-1.9-.15-2.8-.44v-1.15c1.03,.34,1.96,.51,2.8,.51,1.82,0,2.73-.67,2.73-2.02,0-.54-.23-1-.7-1.37-.2-.16-.61-.38-1.2-.67l-.9-.43c-.9-.43-1.48-.74-1.74-.94-.62-.49-.93-1.1-.93-1.84,0-1.88,1.17-2.82,3.51-2.82,.73,0,1.6,.12,2.6,.35v1.17c-.9-.3-1.73-.45-2.5-.45-.71,0-1.27,.14-1.67,.44-.4,.29-.6,.65-.6,1.08,0,.47,.22,.87,.68,1.2,.13,.09,.58,.32,1.36,.7Z"/>
        <path class="cls-8" d="M433.22,73.22v1.07c-.53,.14-1.14,.21-1.84,.21-1.75,0-3.07-.54-3.97-1.61-.83-.98-1.25-2.36-1.25-4.13,0-3.61,1.34-5.41,4.04-5.41,1.33,0,2.28,.43,2.85,1.29,.37,.56,.55,1.23,.55,2.02h-1.45c0-.63-.16-1.16-.49-1.56-.36-.45-.85-.68-1.47-.68-.93,0-1.62,.45-2.09,1.35-.39,.74-.58,1.68-.58,2.83,0,3.23,1.35,4.84,4.06,4.84,.5,0,1.04-.07,1.65-.21Z"/>
        <path class="cls-8" d="M436.79,74.25v-15.45h1.12v7.41h.04c.27-.82,.58-1.43,.93-1.83,.62-.69,1.49-1.04,2.61-1.04,.58,0,1.12,.17,1.62,.5,.79,.52,1.18,1.36,1.18,2.51v7.89h-1.12v-6.71c0-.89-.08-1.55-.24-1.97-.29-.77-.84-1.15-1.66-1.15-.93,0-1.73,.59-2.39,1.78-.65,1.15-.97,2.48-.97,3.97v4.08h-1.12Z"/>
        <path class="cls-8" d="M455.18,73.16v1.09c-.74,.18-1.52,.27-2.33,.27-1.63,0-2.88-.51-3.76-1.53-.87-1.02-1.31-2.47-1.31-4.34,0-3.52,1.35-5.28,4.06-5.28,1.2,0,2.12,.41,2.76,1.24,.53,.69,.8,1.56,.8,2.59v.56h-6.24c-.02,.25-.02,.62-.02,1.1,0,1.03,.18,1.9,.53,2.61,.65,1.33,1.84,1.99,3.58,1.99,.71,0,1.36-.1,1.95-.3Zm-5.89-6.47h4.78c0-.49-.15-.95-.45-1.37-.42-.58-1.01-.87-1.79-.87-1.4,0-2.25,.75-2.54,2.24Z"/>
        <path class="cls-8" d="M243.31,94.86v-15.45h1.35v6.85h6.65v-6.85h1.35v15.45h-1.35v-7.37h-6.65v7.37h-1.35Z"/>
        <path class="cls-8" d="M262.28,95.11v-1.75h-.04c-.81,1.17-1.91,1.75-3.31,1.75-.95,0-1.67-.33-2.14-.98-.38-.51-.57-1.13-.57-1.87,0-2.22,2.02-3.36,6.07-3.42,0-1.23-.03-1.99-.09-2.26-.24-1.03-1.01-1.54-2.32-1.54s-2.07,.58-2.32,1.73h-1.17c0-.7,.26-1.31,.79-1.83,.66-.65,1.62-.97,2.89-.97,1.44,0,2.41,.43,2.91,1.3,.28,.51,.43,1.32,.43,2.41v7.45h-1.12Zm0-5.2h-1.12c-1.05,0-1.9,.2-2.55,.59-.71,.43-1.06,1.04-1.06,1.82,0,.44,.16,.79,.47,1.05,.31,.27,.68,.4,1.12,.4,.55,0,1.07-.15,1.56-.44,.47-.28,.84-.63,1.08-1.05,.33-.55,.49-1.35,.49-2.37Z"/>
        <path class="cls-8" d="M267.77,94.86v-10.66h1.12v2.62h.04c.27-.82,.58-1.43,.93-1.83,.62-.69,1.49-1.04,2.61-1.04,.58,0,1.11,.17,1.61,.5,.78,.52,1.17,1.36,1.17,2.51v7.89h-1.12v-6.71c0-.89-.08-1.55-.24-1.97-.28-.77-.82-1.15-1.64-1.15-.93,0-1.73,.59-2.39,1.78-.65,1.15-.97,2.48-.97,3.97v4.08h-1.12Z"/>
        <path class="cls-8" d="M285.58,95.11v-2.24h-.04c-.42,1.5-1.44,2.24-3.05,2.24-2.45,0-3.67-1.85-3.67-5.55,0-1.52,.29-2.78,.85-3.78,.67-1.21,1.65-1.82,2.95-1.82,.78,0,1.44,.24,1.99,.71,.47,.41,.78,.91,.93,1.5h.04v-6.76h1.12v15.7h-1.12Zm-5.42-5.51c0,2.96,.83,4.43,2.48,4.43,.93,0,1.67-.51,2.23-1.52,.47-.85,.71-1.82,.71-2.89,0-1.21-.23-2.24-.68-3.09-.53-1.01-1.28-1.51-2.24-1.51-.86,0-1.52,.54-1.97,1.61-.36,.85-.54,1.84-.54,2.97Z"/>
        <path class="cls-8" d="M297.6,93.76v1.09c-.74,.18-1.52,.27-2.33,.27-1.63,0-2.89-.51-3.76-1.53-.87-1.02-1.31-2.47-1.31-4.34,0-3.52,1.35-5.28,4.06-5.28,1.2,0,2.12,.41,2.76,1.24,.53,.69,.8,1.56,.8,2.59v.56h-6.24c-.01,.25-.02,.62-.02,1.1,0,1.03,.18,1.9,.53,2.61,.65,1.33,1.84,1.99,3.58,1.99,.71,0,1.36-.1,1.95-.3Zm-5.89-6.47h4.78c0-.49-.15-.95-.45-1.37-.42-.58-1.01-.87-1.79-.87-1.4,0-2.24,.75-2.54,2.24Z"/>
        <path class="cls-8" d="M301.35,94.86v-15.45h1.13v15.45h-1.13Z"/>
        <path class="cls-8" d="M309.35,88.45l.92,.45c.86,.42,1.42,.75,1.67,.97,.56,.5,.84,1.17,.84,2.01,0,2.15-1.36,3.23-4.08,3.23-.97,0-1.9-.15-2.8-.44v-1.15c1.03,.34,1.96,.51,2.8,.51,1.82,0,2.73-.67,2.73-2.02,0-.54-.23-1-.7-1.37-.2-.16-.61-.38-1.2-.67l-.9-.43c-.9-.43-1.48-.74-1.74-.94-.62-.49-.93-1.1-.93-1.84,0-1.88,1.17-2.82,3.51-2.82,.73,0,1.6,.12,2.6,.35v1.17c-.9-.3-1.73-.45-2.5-.45-.71,0-1.27,.14-1.67,.44-.4,.29-.6,.65-.6,1.08,0,.47,.22,.87,.68,1.2,.13,.09,.58,.32,1.36,.7Z"/>
        <path class="cls-8" d="M315.9,94.86v-15.45h1.12v9.47l3.99-4.68h1.41l-3.97,4.79,4.48,5.87h-1.46l-4.42-5.82h-.04v5.82h-1.12Z"/>
        <path class="cls-8" d="M330.82,95.11v-1.75h-.04c-.81,1.17-1.91,1.75-3.31,1.75-.96,0-1.67-.33-2.14-.98-.38-.51-.57-1.13-.57-1.87,0-2.22,2.02-3.36,6.07-3.42,0-1.23-.03-1.99-.09-2.26-.24-1.03-1.01-1.54-2.32-1.54s-2.07,.58-2.32,1.73h-1.17c0-.7,.26-1.31,.79-1.83,.66-.65,1.62-.97,2.89-.97,1.44,0,2.41,.43,2.91,1.3,.28,.51,.43,1.32,.43,2.41v7.45h-1.12Zm0-5.2h-1.12c-1.05,0-1.9,.2-2.55,.59-.71,.43-1.06,1.04-1.06,1.82,0,.44,.16,.79,.47,1.05,.31,.27,.68,.4,1.12,.4,.55,0,1.07-.15,1.56-.44,.47-.28,.84-.63,1.08-1.05,.33-.55,.49-1.35,.49-2.37Z"/>
        <path class="cls-8" d="M336.31,94.86v-10.66h1.12v2.62h.04c.25-.81,.54-1.42,.89-1.83,.6-.69,1.43-1.04,2.5-1.04,.9,0,1.57,.31,2.01,.94,.33,.47,.49,1.02,.49,1.65h.04c.54-1.73,1.55-2.59,3.03-2.59,1.85,0,2.78,1.01,2.78,3.02v7.89h-1.13v-6.71c0-.89-.07-1.55-.21-1.97-.26-.77-.77-1.15-1.51-1.15-.85,0-1.57,.58-2.18,1.73-.58,1.11-.87,2.38-.87,3.83v4.28h-1.12v-6.71c0-2.08-.46-3.12-1.39-3.12s-1.75,.59-2.42,1.78c-.65,1.15-.97,2.48-.97,3.97v4.08h-1.12Z"/>
        <path class="cls-8" d="M353.58,94.86v-10.66h1.12v2.62h.04c.25-.81,.54-1.42,.89-1.83,.6-.69,1.43-1.04,2.5-1.04,.9,0,1.57,.31,2.01,.94,.33,.47,.49,1.02,.49,1.65h.04c.54-1.73,1.55-2.59,3.03-2.59,1.85,0,2.78,1.01,2.78,3.02v7.89h-1.13v-6.71c0-.89-.07-1.55-.21-1.97-.26-.77-.77-1.15-1.51-1.15-.85,0-1.57,.58-2.18,1.73-.58,1.11-.87,2.38-.87,3.83v4.28h-1.12v-6.71c0-2.08-.46-3.12-1.39-3.12s-1.75,.59-2.42,1.78c-.65,1.15-.97,2.48-.97,3.97v4.08h-1.12Z"/>
        <path class="cls-8" d="M377.37,93.76v1.09c-.74,.18-1.52,.27-2.33,.27-1.63,0-2.88-.51-3.76-1.53s-1.31-2.47-1.31-4.34c0-3.52,1.35-5.28,4.06-5.28,1.2,0,2.12,.41,2.76,1.24,.53,.69,.8,1.56,.8,2.59v.56h-6.24c-.02,.25-.02,.62-.02,1.1,0,1.03,.18,1.9,.53,2.61,.65,1.33,1.84,1.99,3.58,1.99,.71,0,1.36-.1,1.95-.3Zm-5.89-6.47h4.78c0-.49-.15-.95-.45-1.37-.42-.58-1.01-.87-1.79-.87-1.4,0-2.25,.75-2.54,2.24Z"/>
        <path class="cls-8" d="M381.08,94.86v-10.66h1.12v2.18h.05c.57-1.61,1.7-2.42,3.38-2.42v1.2c-1.28,0-2.21,.64-2.79,1.91-.43,.93-.65,2.09-.65,3.49v4.3h-1.12Z"/>
        <path class="cls-8" d="M388.79,94.86v-10.66h1.12v2.62h.04c.27-.82,.58-1.43,.93-1.83,.62-.69,1.49-1.04,2.61-1.04,.58,0,1.11,.17,1.61,.5,.78,.52,1.17,1.36,1.17,2.51v7.89h-1.12v-6.71c0-.89-.08-1.55-.24-1.97-.28-.77-.82-1.15-1.64-1.15-.93,0-1.73,.59-2.39,1.78-.65,1.15-.97,2.48-.97,3.97v4.08h-1.12Z"/>
        <rect class="cls-7" width="220.47" height="110.47"/>
        <path class="cls-4" d="M220.47,0H90.8c6.07,15.81,9.62,34.8,9.62,55.23s-3.55,39.42-9.62,55.23H220.47V0Z"/>
        <polygon class="cls-6" points="116.6 39.53 126.52 39.53 121.51 26.03 116.6 39.53"/>
        <path class="cls-1" d="M139.45,52.42l-13.54-33.79s-.03-.08-.05-.11v-.02h0c-.25-.55-1.01-.95-1.92-.95h-4.67c-.9,0-1.65,.39-1.91,.92h0v.03s-.05,.09-.07,.14l-13.14,33.75s-.04,.09-.05,.13h0c-.02,.07-.03,.13-.03,.2,0,.65,.79,1.17,1.77,1.17h4.12c.78,0,1.43-.33,1.67-.79h0v-.02c.04-.06,.06-.12,.07-.18l2.64-7.26h14.54l2.78,7.22h.01c.13,.58,.88,1.03,1.8,1.03h4.22c1.01,0,1.82-.54,1.82-1.2,0-.1-.02-.19-.06-.28h0Zm-22.85-12.9l4.91-13.49,5.01,13.49h-9.92Z"/>
        <path class="cls-1" d="M170.07,17.54h-3.94c-.94,0-1.7,.5-1.7,1.12h0v13.24h-14.38v-13.22s0-.03,0-.04,0-.03,0-.04h0s0,0,0,0c-.04-.59-.78-1.07-1.69-1.07h-3.95c-.91,0-1.65,.48-1.69,1.07h0v.04s0,0,0,.01c0,0,0,0,0,.01V52.77s0,0,0,.01c0,.62,.76,1.12,1.7,1.12h3.95c.94,0,1.7-.5,1.7-1.12,0,0,0-.01,0-.02v-14.7h14.38v14.73h0s0,0,0,.01c0,.62,.76,1.12,1.7,1.12h3.94c.94,0,1.7-.5,1.7-1.12,0,0,0,0,0-.01h0V18.71h0s0-.03,0-.05c0-.62-.76-1.12-1.7-1.12Z"/>
        <path class="cls-1" d="M211.02,52.03h0l-13.22-20.32,11.57-11.96s.08-.08,.12-.12l.06-.06h0c.15-.19,.24-.4,.24-.63,0-.77-.94-1.39-2.1-1.39h-4.88c-.78,0-1.46,.29-1.82,.71h0s-14.18,15.44-14.18,15.44v-15.01s0,0,0-.01c0,0,0-.01,0-.02h0s0-.01,0-.01c-.02-.61-.77-1.09-1.7-1.09h-3.95c-.94,0-1.7,.5-1.7,1.12,0,.01,0,.03,0,.04V52.74h0s0,.02,0,.04c0,.62,.76,1.12,1.7,1.12h3.95c.94,0,1.7-.5,1.7-1.12,0-.01,0-.03,0-.04h0v-9.82l5.95-6.08,9.42,16.07h.01c.26,.57,1.05,1,2.01,1h4.87c1.16,0,2.1-.62,2.1-1.38,0-.18-.05-.34-.14-.5Z"/>
        <g class="cls-5">
            <path class="cls-1" d="M82.11,68.86c0,29.13-23.62,52.75-52.75,52.75s-52.74-23.61-52.74-52.75S.24,16.12,29.37,16.12s52.75,23.61,52.75,52.75Z"/>
            <path class="cls-3" d="M77.92,89.5H-19.18c1.75,4.12,4.02,7.96,6.72,11.47H71.2c2.69-3.5,4.96-7.35,6.72-11.47Z"/>
            <path class="cls-9" d="M29.37,16.12c-24.64,0-45.34,16.9-51.13,39.75H80.49c-5.79-22.85-26.48-39.75-51.13-39.75Z"/>
            <path class="cls-3" d="M8.47,20.43c.15-.07,.3-.14,.45-.2-.15,.06-.3,.13-.45,.2Z"/>
            <path class="cls-3" d="M6.1,21.52c.25-.12,.5-.24,.75-.36-.25,.12-.5,.24-.75,.36Z"/>
            <path class="cls-3" d="M4.05,22.58c.22-.12,.44-.23,.66-.35-.22,.12-.44,.23-.66,.35Z"/>
            <path class="cls-3" d="M-.46,25.36c.26-.18,.52-.35,.79-.53-.26,.17-.53,.35-.79,.53Z"/>
            <path class="cls-3" d="M1.51,24.08c.24-.15,.48-.3,.72-.45-.24,.15-.48,.3-.72,.45Z"/>
            <path class="cls-3" d="M10.98,19.42c.23-.09,.46-.17,.69-.25-.23,.08-.46,.16-.69,.25Z"/>
            <path class="cls-3" d="M13.25,18.64c.22-.07,.45-.14,.67-.21-.23,.07-.45,.14-.67,.21Z"/>
            <path class="cls-3" d="M51.89,21.16c.25,.12,.5,.24,.75,.36-.25-.12-.5-.24-.75-.36Z"/>
            <path class="cls-3" d="M54.02,22.24c.22,.11,.44,.23,.65,.34-.22-.12-.44-.23-.65-.34Z"/>
            <path class="cls-3" d="M49.82,20.23c.15,.06,.3,.13,.45,.2-.15-.06-.3-.13-.45-.2Z"/>
            <path class="cls-3" d="M47.07,19.17c.23,.08,.46,.16,.69,.25-.23-.09-.46-.17-.69-.25Z"/>
            <path class="cls-3" d="M40.99,46.31H-18.32c.19-.4,.39-.79,.59-1.18-3.6,7.14-5.64,15.19-5.64,23.73,0,3.13,.29,6.19,.81,9.17H20.67c6.71-10.49,13.98-21.83,20.32-31.72Z"/>
            <path class="cls-3" d="M44.81,18.42c.22,.07,.45,.14,.67,.21-.22-.07-.44-.14-.67-.21Z"/>
            <path d="M40.99,46.31c6.38-9.95,11.82-18.43,14.83-23.08-.37-.22-.75-.44-1.14-.65-.22-.12-.44-.23-.65-.34-.46-.24-.92-.48-1.39-.71-.25-.12-.5-.24-.75-.36-.54-.25-1.08-.5-1.62-.73-.15-.06-.3-.13-.45-.2-.68-.28-1.37-.55-2.06-.81-.23-.09-.46-.17-.69-.25-.52-.19-1.05-.37-1.58-.54-.22-.07-.44-.14-.67-.21-.72-.22-1.45-.43-2.19-.62-.13-.03-.26-.06-.39-.09-.63-.16-1.27-.31-1.91-.44-.23-.05-.47-.1-.7-.14-.61-.12-1.24-.23-1.86-.33-.17-.03-.33-.06-.49-.08-.78-.12-1.55-.21-2.34-.3-.2-.02-.39-.04-.59-.06-.62-.06-1.24-.1-1.87-.14-.23-.01-.46-.03-.69-.04-.81-.04-1.62-.06-2.43-.06s-1.62,.02-2.43,.06c-.23,0-.46,.03-.69,.04-.63,.04-1.25,.08-1.87,.14-.2,.02-.39,.03-.59,.06-.78,.08-1.56,.18-2.34,.3-.17,.03-.33,.06-.49,.08-.62,.1-1.24,.21-1.86,.33-.23,.05-.47,.1-.7,.14-.64,.13-1.27,.28-1.9,.44-.13,.03-.26,.06-.39,.09-.74,.19-1.46,.4-2.18,.62-.23,.07-.45,.14-.67,.21-.53,.17-1.06,.35-1.58,.54-.23,.08-.46,.16-.69,.25-.69,.26-1.38,.53-2.06,.81-.15,.06-.3,.13-.45,.2-.55,.24-1.09,.48-1.62,.73-.25,.12-.5,.24-.75,.36-.46,.23-.93,.47-1.38,.71-.22,.12-.44,.23-.66,.35-.62,.34-1.22,.69-1.82,1.05-.24,.15-.48,.3-.72,.45-.4,.25-.79,.5-1.18,.76-.26,.17-.53,.35-.79,.53-.41,.29-.82,.58-1.23,.87-.33,.24-.66,.49-.99,.73-.4,.31-.8,.62-1.18,.93-.27,.22-.54,.44-.81,.67-.3,.25-.6,.51-.89,.78-.27,.23-.53,.47-.79,.71-.43,.4-.85,.8-1.27,1.21-.3,.3-.6,.61-.9,.92-.25,.26-.5,.52-.75,.78-.27,.29-.53,.58-.79,.87-.23,.25-.45,.51-.67,.77-.43,.5-.85,1.01-1.26,1.53-.22,.28-.44,.55-.65,.83-.25,.33-.5,.67-.75,1.01-.18,.25-.36,.49-.53,.74-.24,.35-.49,.7-.72,1.06-.16,.24-.31,.48-.46,.72-.41,.65-.81,1.3-1.2,1.96-.14,.25-.29,.49-.42,.74-.21,.38-.42,.77-.63,1.16-.13,.25-.26,.5-.39,.76-.2,.39-.4,.78-.59,1.18H40.99Z"/>
            <polygon class="cls-1" points="57.58 28.62 57.41 30.15 55.91 30.46 57.31 31.09 57.14 32.62 58.17 31.49 59.57 32.12 58.81 30.79 59.85 29.65 58.35 29.96 57.58 28.62"/>
            <path class="cls-1" d="M57.06,32.79c-.08-.03-.12-.11-.11-.19h0l.15-1.39-1.27-.58c-.08-.03-.12-.11-.11-.2h0c0-.08,.07-.15,.15-.16h0l1.37-.28,.16-1.39c0-.08,.07-.15,.15-.16h0c.08-.02,.16,.02,.21,.09h0l.69,1.22,1.37-.28c.08-.02,.16,.02,.2,.09h0c.04,.07,.03,.16-.02,.22h0l-.94,1.03,.69,1.22c.04,.07,.03,.16-.02,.22h0c-.06,.06-.14,.08-.22,.05h0l-1.28-.58-.94,1.03s-.09,.06-.14,.06h0s-.05,0-.08-.02h0Zm.55-2.62c0,.08-.07,.15-.15,.16h0l-.93,.19,.87,.39c.07,.04,.12,.11,.11,.2h0l-.11,.95,.64-.7c.06-.06,.15-.08,.22-.05h0l.87,.39-.47-.83c-.04-.07-.03-.16,.03-.23h0l.64-.7-.93,.19c-.08,.01-.16-.02-.2-.09h0l-.47-.83-.11,.95h0Zm-.18-1.46l.16-.09-.16,.09h0Z"/>
            <polygon class="cls-1" points="53.17 35.09 52.45 36.45 50.94 36.18 52.01 37.29 51.28 38.65 52.66 37.97 53.73 39.08 53.52 37.56 54.9 36.88 53.39 36.61 53.17 35.09"/>
            <path class="cls-1" d="M53.6,39.21l-.97-1.01-1.26,.61c-.07,.04-.16,.02-.22-.04h0c-.06-.06-.07-.15-.03-.22h0l.66-1.23-.97-1.01c-.06-.06-.07-.15-.03-.22h0c.04-.07,.12-.11,.2-.1h0l1.38,.25,.66-1.23c.04-.07,.12-.11,.2-.1h0c.08,.01,.14,.08,.16,.16h0l.19,1.39,1.38,.24c.08,.02,.14,.08,.15,.16h0c.01,.08-.03,.16-.1,.2h0l-1.26,.62,.19,1.38c.01,.08-.03,.16-.11,.2h0s-.05,.02-.08,.02h0s-.1-.02-.14-.06h0Zm-.79-1.37l.66,.68-.13-.94c-.01-.08,.03-.16,.11-.2h0l.86-.42-.94-.17c-.08-.01-.14-.08-.15-.16h0l-.13-.94-.45,.84c-.04,.07-.12,.11-.2,.1h0l-.94-.17,.66,.69c.06,.06,.07,.15,.03,.22h0l-.45,.84,.85-.41s.06-.02,.08-.02h0c.05,0,.1,.02,.14,.06h0Zm.18-2.72l.19-.02-.19,.02h0Z"/>
            <polygon class="cls-1" points="63.82 35.09 63.1 36.45 61.58 36.19 62.65 37.29 61.93 38.65 63.31 37.97 64.38 39.08 64.17 37.56 65.55 36.88 64.03 36.62 63.82 35.09"/>
            <path class="cls-1" d="M64.25,39.21l-.97-1.01-1.26,.61c-.07,.03-.16,.02-.22-.04h0c-.06-.06-.07-.15-.03-.22h0l.65-1.24-.97-1.01c-.06-.06-.07-.15-.03-.23h0c.04-.07,.12-.11,.2-.1h0l1.38,.24,.66-1.24c.04-.07,.12-.11,.2-.1h0c.08,.01,.14,.08,.16,.16h0l.19,1.39,1.38,.24c.08,.01,.14,.08,.16,.16h0c.01,.08-.03,.16-.11,.2h0l-1.26,.62,.2,1.38c.01,.08-.03,.16-.1,.2h0s-.06,.02-.08,.02h0c-.05,0-.1-.02-.14-.06h0Zm-.8-1.37l.66,.68-.13-.94c-.01-.08,.03-.16,.11-.2h0l.86-.42-.94-.17c-.08-.01-.15-.08-.16-.16h0l-.13-.94-.45,.84c-.04,.07-.12,.11-.2,.1h0l-.94-.17,.66,.69c.06,.06,.07,.15,.03,.22h0l-.44,.83,.85-.41s.06-.02,.08-.02h0s.1,.02,.14,.06h0Zm.18-2.72l.19-.03-.19,.03h0Z"/>
            <polygon class="cls-1" points="58.31 42.08 57.58 43.44 56.07 43.16 57.13 44.28 56.4 45.63 57.78 44.97 58.85 46.07 58.64 44.56 60.03 43.89 58.52 43.61 58.31 42.08"/>
            <path class="cls-1" d="M58.71,46.21l-.97-1.01-1.26,.6c-.08,.04-.16,.02-.22-.04h0c-.06-.06-.07-.15-.03-.22h0l.66-1.23-.96-1.02c-.06-.06-.07-.15-.03-.22h0c.04-.07,.12-.11,.2-.1h0l1.38,.25,.66-1.24c.04-.07,.12-.11,.2-.09h0c.08,.01,.14,.08,.16,.16h0l.19,1.39,1.38,.25c.08,.01,.14,.08,.16,.16h0c.01,.08-.03,.16-.11,.2h0l-1.27,.61,.19,1.38c.01,.08-.03,.16-.11,.2h0s-.06,.02-.08,.02h0s-.1-.02-.14-.06h0Zm-.79-1.37l.66,.69-.13-.94c-.01-.08,.03-.16,.11-.2h0l.86-.41-.94-.17c-.08-.01-.14-.08-.15-.16h0l-.13-.95-.45,.84c-.04,.07-.12,.11-.2,.1h0l-.94-.17,.66,.69c.05,.06,.07,.15,.03,.22h0l-.45,.83,.85-.4s.06-.02,.08-.02h0c.05,0,.1,.02,.14,.06h0Zm.2-2.72l.19-.03-.19,.03h0Z"/>
            <polygon class="cls-1" points="47.97 42.09 47.25 43.44 45.73 43.17 46.8 44.28 46.07 45.64 47.45 44.96 48.52 46.07 48.31 44.55 49.7 43.88 48.18 43.61 47.97 42.09"/>
            <path class="cls-1" d="M48.39,46.21l-.97-1.01-1.26,.61c-.07,.04-.16,.02-.22-.04h0c-.06-.06-.07-.15-.03-.22h0l.66-1.24-.97-1c-.06-.06-.07-.15-.03-.22h0c.04-.07,.12-.11,.2-.09h0l1.38,.24,.66-1.24c.04-.07,.12-.11,.2-.1h0c.08,.01,.14,.08,.15,.16h0l.19,1.39,1.38,.25c.08,.01,.14,.08,.16,.16h0c.01,.08-.03,.16-.11,.2h0l-1.26,.6,.19,1.39c.01,.08-.03,.16-.11,.2h0s-.05,.02-.08,.02h0c-.05,0-.1-.02-.14-.06h0Zm-.79-1.37l.66,.69-.13-.95c-.01-.08,.03-.16,.11-.2h0l.85-.41-.94-.17c-.08-.01-.14-.08-.15-.16h0l-.13-.94-.45,.84c-.04,.07-.12,.11-.2,.1h0l-.93-.17,.66,.68c.06,.06,.07,.15,.03,.22h0l-.45,.84,.85-.41s.05-.02,.08-.02h0c.05,0,.1,.02,.14,.06h0Zm.19-2.72l.19-.02-.19,.02h0Z"/>
            <polygon class="cls-1" points="68.2 42.11 68.11 43.65 66.61 44.03 68.05 44.6 67.95 46.13 68.92 44.95 70.36 45.52 69.53 44.22 70.52 43.03 69.03 43.41 68.2 42.11"/>
            <path class="cls-1" d="M67.87,46.31c-.08-.03-.12-.11-.12-.19h0l.09-1.4-1.31-.52c-.08-.03-.13-.11-.12-.19h0c0-.08,.06-.15,.14-.17h0l1.36-.35,.08-1.39c0-.08,.06-.15,.14-.17h0c.08-.02,.17,.01,.21,.08h0l.75,1.18,1.36-.35c.08-.02,.16,.02,.21,.08h0c.05,.07,.04,.16-.01,.22h0l-.89,1.08,.75,1.18c.04,.07,.04,.16-.02,.22h0c-.05,.06-.14,.09-.22,.06h0l-1.31-.52-.89,1.08s-.09,.07-.15,.07h0s-.05,0-.07-.01h0Zm.42-2.65c0,.08-.06,.15-.14,.17h0l-.92,.24,.89,.35c.08,.03,.12,.11,.12,.19h0l-.06,.94,.6-.73c.05-.07,.14-.09,.22-.06h0l.89,.35-.51-.8c-.05-.07-.04-.16,.01-.22h0l.61-.74-.92,.24c-.08,.02-.16-.01-.21-.08h0l-.51-.8-.06,.94h0Zm-.26-1.44l.16-.1-.16,.1h0Z"/>
            <polygon class="cls-1" points="42.29 49.2 42.12 50.73 40.62 51.04 42.03 51.68 41.86 53.21 42.89 52.06 44.3 52.69 43.53 51.36 44.56 50.21 43.05 50.53 42.29 49.2"/>
            <path class="cls-1" d="M41.78,53.38c-.08-.03-.12-.11-.11-.19h0l.15-1.4-1.28-.57c-.07-.04-.12-.11-.11-.2h0c0-.08,.07-.15,.15-.16h0l1.37-.29,.15-1.39c.01-.08,.07-.15,.15-.17h0c.08-.02,.16,.02,.21,.09h0l.69,1.21,1.38-.29c.08-.02,.16,.02,.2,.09h0c.04,.07,.03,.16-.02,.22h0l-.94,1.04,.7,1.21c.04,.07,.03,.16-.03,.22h0c-.05,.06-.14,.08-.22,.05h0l-1.28-.58-.94,1.04s-.09,.06-.14,.06h0s-.05,0-.08-.02h0Zm.53-2.64c0,.08-.07,.15-.15,.16h0l-.93,.2,.87,.39c.07,.03,.12,.11,.11,.19h0l-.1,.95,.64-.71c.05-.06,.14-.08,.22-.04h0l.87,.39-.47-.83c-.04-.07-.03-.16,.03-.22h0l.64-.71-.94,.2c-.08,.02-.16-.02-.2-.09h0l-.47-.82-.1,.94h0Zm-.19-1.45l.17-.09-.17,.09h0Z"/>
            <polygon class="cls-1" points="73.81 49.17 73.16 50.56 71.63 50.37 72.76 51.43 72.1 52.82 73.44 52.08 74.57 53.13 74.28 51.62 75.63 50.88 74.1 50.68 73.81 49.17"/>
            <path class="cls-1" d="M74.44,53.27l-1.03-.96-1.22,.67c-.07,.04-.16,.03-.22-.03h0c-.06-.06-.08-.14-.04-.22h0l.6-1.27-1.03-.96c-.06-.06-.08-.15-.04-.22h0c.03-.08,.11-.12,.2-.11h0l1.39,.18,.59-1.26c.04-.08,.11-.12,.2-.11h0c.08,0,.15,.07,.16,.15h0l.27,1.38,1.39,.17c.08,.01,.15,.07,.16,.15h0c.01,.08-.03,.16-.1,.2h0l-1.23,.68,.27,1.37c.02,.08-.02,.16-.09,.2h0s-.06,.02-.1,.02h0s-.09-.02-.13-.05h0Zm-.87-1.33l.7,.65-.18-.93c-.02-.08,.02-.16,.09-.2h0l.84-.46-.95-.12c-.08-.01-.15-.07-.16-.15h0l-.18-.93-.4,.86c-.03,.08-.11,.12-.2,.11h0l-.95-.12,.7,.65c.06,.06,.08,.15,.04,.22h0l-.4,.86,.83-.45s.06-.03,.09-.03h0s.09,.02,.13,.05h0Zm.05-2.73l.19-.04-.19,.04h0Z"/>
            <polygon class="cls-1" points="64.14 49.27 63.2 50.49 61.75 49.96 62.61 51.24 61.67 52.45 63.14 52.03 64.01 53.3 64.06 51.77 65.54 51.33 64.09 50.81 64.14 49.27"/>
            <path class="cls-1" d="M63.85,53.4l-.79-1.16-1.34,.38c-.08,.02-.17,0-.21-.08h0c-.04-.07-.04-.16,.01-.23h0l.86-1.1-.79-1.16c-.04-.07-.04-.16,0-.23h0c.05-.06,.14-.09,.22-.06h0l1.32,.48,.85-1.11c.05-.07,.14-.09,.22-.06h0c.08,.03,.13,.1,.13,.19h0l-.04,1.4,1.32,.48c.08,.03,.13,.1,.13,.19h0c0,.08-.06,.15-.14,.18h0l-1.35,.39-.04,1.39c0,.08-.06,.15-.14,.18h0s-.04,0-.05,0h0c-.06,0-.12-.03-.16-.08h0Zm-.56-1.49l.54,.79,.03-.95c0-.08,.06-.16,.14-.18h0l.92-.27-.9-.32c-.08-.03-.13-.11-.13-.19h0l.03-.95-.58,.75c-.05,.06-.14,.09-.22,.06h0l-.9-.33,.54,.79c.05,.07,.04,.16,0,.22h0l-.59,.74,.91-.26s.04,0,.05,0h0c.06,0,.12,.03,.16,.08h0Z"/>
            <polygon class="cls-1" points="53.26 49.2 52.48 50.53 50.98 50.19 51.99 51.35 51.2 52.66 52.61 52.06 53.63 53.22 53.49 51.69 54.91 51.08 53.4 50.74 53.26 49.2"/>
            <path class="cls-1" d="M53.49,53.34l-.93-1.05-1.29,.55c-.08,.03-.16,.01-.22-.05h0c-.06-.06-.06-.15-.02-.22h0l.72-1.19-.92-1.06c-.06-.06-.06-.15-.02-.22h0c.04-.07,.12-.11,.2-.09h0l1.37,.31,.71-1.21c.04-.07,.13-.11,.2-.09h0c.08,.02,.14,.09,.15,.17h0l.13,1.4,1.36,.31c.08,.02,.14,.08,.15,.17h0c0,.08-.04,.16-.11,.19h0l-1.29,.56,.13,1.39c0,.08-.04,.16-.11,.19h0s-.05,.02-.08,.02h0c-.05,0-.1-.02-.14-.06h0Zm-.73-1.41l.63,.71-.09-.94c0-.08,.04-.16,.11-.19h0l.88-.38-.93-.21c-.08-.02-.14-.08-.14-.17h0l-.09-.95-.48,.81c-.04,.07-.13,.11-.21,.09h0l-.93-.21,.63,.72c.05,.06,.06,.15,.02,.22h0l-.49,.81,.87-.37s.05-.02,.07-.02h0c.05,0,.11,.02,.14,.06h0Zm.32-2.71l.19-.02-.19,.02h0Z"/>
            <path class="cls-3" d="M.44,109.65c-.62,.97-1.13,1.77-1.48,2.31-.16-.11-.32-.23-.48-.35-.4-.29-.8-.59-1.2-.89-.22-.17-.43-.34-.64-.5-.23-.19-.46-.38-.69-.57h-.38c1.24,1.03,2.53,2,3.87,2.91H59.01c1.33-.92,2.63-1.88,3.87-2.91H.44Z"/>
            <path class="cls-2" d="M-2.72,110.72c.39,.3,.79,.6,1.2,.89,.16,.12,.32,.24,.48,.35,.35-.54,.85-1.34,1.48-2.31,3.58-5.59,11.42-17.85,20.23-31.61H-22.57c1.08,6.16,3.23,11.95,6.25,17.18,.02,.04,.05,.08,.07,.13,.35,.61,.72,1.2,1.09,1.79,.04,.07,.09,.13,.13,.2,.37,.58,.75,1.15,1.15,1.71,.04,.06,.09,.12,.13,.19,.4,.57,.82,1.14,1.24,1.69,.01,.02,.03,.03,.04,.05,1.8,2.34,3.8,4.53,5.96,6.54,.04,.03,.07,.07,.11,.1,.43,.4,.88,.79,1.32,1.18,.16,.14,.32,.28,.48,.41,.18,.15,.36,.29,.54,.44,.23,.19,.46,.38,.69,.57,.22,.17,.43,.34,.64,.5Z"/>
            <path class="cls-3" d="M82.11,68.86c0-.19,0-.38,0-.57H-23.36c0,.19-.01,.38-.01,.57,0,3.3,.32,6.52,.9,9.65H81.22c.58-3.13,.9-6.35,.9-9.65Z"/>
            <path class="cls-3" d="M82.08,66.83H4.46c-.01,.52-.03,1.03-.03,1.55H82.11c0-.52-.02-1.04-.03-1.55Z"/>
        </g>
    </g>
</svg>