<svg width="233" height="277" viewBox="0 0 233 277" fill="none" xmlns="http://www.w3.org/2000/svg">
<path d="M104.827 0.287872C144.429 -1.28392 195.269 3.46175 232.321 17.4631L232.413 105.956C232.421 119.4 233.105 144.666 231.524 156.82C229.906 168.813 226.543 180.504 221.54 191.522C202.352 234.11 166.774 258.149 124.454 274.179L116.136 276.898C59.4645 259.171 7.82547 217.225 1.01858 154.759C-0.816892 137.915 0.385725 116.396 0.399919 99.1004L0.329363 17.5545C29.087 4.76122 73.6605 1.50972 104.827 0.287872Z" fill="#FFFEFE"/>
<path d="M112.467 5.25588C151.116 5.09647 190.427 8.38185 227.161 20.987L227.235 107.413C227.242 120.66 227.906 144.158 226.306 156.205C224.632 168.512 221.06 180.483 215.718 191.696C196.162 233.092 160.325 255.849 118.627 270.729C115.957 271.696 112.688 270.415 110.099 269.47C85.6643 260.548 61.7389 247.455 43.2639 228.95C26.4224 212.262 14.4508 191.296 8.63844 168.309C4.03698 149.621 5.48896 121.196 5.49734 101.118L5.54383 21.0449C35.3765 8.87783 80.7054 6.09366 112.467 5.25588Z" fill="black"/>
<path d="M137.875 42.4332C140.17 43.4536 141.519 43.9368 143.426 45.6371C144.488 83.0305 143.458 125.692 143.459 163.455L143.48 214.28C143.493 222.079 146.464 243.9 137.08 246.338C128.87 243.23 131.971 210.658 131.99 201.602L131.926 132.633C131.915 118.773 130.198 54.7131 132.658 45.3805L132.434 45.0277L133.972 44.2315L136.575 42.7944L137.875 42.4332Z" fill="#FE3D00"/>
<path d="M133.972 44.2315L136.575 42.7944C136.48 64.2383 137.968 234.721 135.169 238.746C133.034 233.445 133.876 200.653 133.896 193.381L133.95 95.3187C133.952 79.7212 134.019 63.5808 133.864 47.9385C133.849 46.4216 133.61 46.4939 132.658 45.3805L132.434 45.0277L133.972 44.2315Z" fill="#FF754C"/>
<path d="M115.14 59.2918C118.701 59.9726 119.308 60.2657 122.134 62.5413C123.683 97.8177 122.37 142.805 122.36 178.711L122.362 227.337C122.369 234.37 125.4 254.238 115.629 255.303C110.666 253.178 110.098 247.784 110.117 242.844C110.173 228.506 110.584 214.179 110.526 199.838L110.337 102.171C110.334 97.0373 109.947 66.3911 110.991 62.773L110.847 62.3736L111.995 61.56L115.14 59.2918Z" fill="#FE3D00"/>
<path d="M115.14 59.2918C114.349 102.945 115.423 147.202 114.996 190.851C114.877 202.998 116.012 239.375 113.662 248.812L113.332 249.033C107.802 223.695 116.36 70.9366 110.991 62.773L110.847 62.3736L111.995 61.56L115.14 59.2918Z" fill="#FF754C"/>
<path d="M53.3593 41.8305C54.631 42.6009 56.7718 43.8081 57.8749 44.679C58.6328 97.1245 57.1885 150.167 58.0277 202.645C58.104 207.404 56.5941 212.412 51.0525 212.262C46.5444 210.143 46.2555 207.606 46.3294 202.827C46.8731 167.847 45.9343 132.593 46.3651 97.6434C46.5145 85.5378 44.7556 54.4043 46.9802 44.5412L47.7804 43.2933L50.9961 42.0073L53.3593 41.8305Z" fill="#FE3D00"/>
<path d="M47.7804 43.2933L50.9961 42.0073L50.9712 150.457C50.9762 160.867 51.8602 197.919 49.609 205.889L49.326 205.985L49.6646 204.692L48.8055 204.324C46.937 184.478 49.9286 49.4304 46.9802 44.5412L47.7804 43.2933Z" fill="#FF754C"/>
<path d="M153.466 180.038C152.503 147.991 153.282 112.186 153.291 79.889L153.283 43.2585C153.271 37.5382 150.376 22.3434 159.72 21.7215C161.087 21.6302 161.723 22.3309 162.859 23.0698C165.804 27.2143 165.189 40.3585 165.063 45.6977C164.003 90.4187 165.92 135.641 164.88 180.32C162.542 178.034 162.041 177.65 158.868 176.885L157.884 177.479L154.161 178.494L154.114 179.809L153.466 180.038Z" fill="#1CB5FF"/>
<path d="M154.161 178.494C155.92 173.788 154.58 164.816 155.032 160.918C156.609 147.356 152.438 34.1077 156.263 28.2164C160.859 34.9139 154.146 168.915 158.868 176.885L157.884 177.479L154.161 178.494Z" fill="#62C9FE"/>
<path d="M94.2747 97.9655C97.3036 98.8431 98.1312 99.0514 100.705 100.86C100.896 130.907 100.914 160.955 100.758 191.002C100.754 201.482 103.939 241.563 95.5198 246.05C89.9765 245.54 89.1888 240.747 89.2552 236.355C89.9384 191.384 88.4575 146.091 89.4976 101.154L90.1758 100.815L90.3418 99.8817L94.097 98.4188L94.2747 97.9655Z" fill="#FE3D00"/>
<path d="M90.3418 99.8817L94.097 98.4188C91.9646 114.488 95.509 236.589 92.5124 239.351C88.0973 226.281 92.6959 201.75 91.0042 188.753C89.2195 175.043 93.7202 109.09 90.1758 100.815L90.3418 99.8817Z" fill="#FF754C"/>
<path d="M200.735 56.249C204.215 56.9954 204.805 57.3923 207.594 59.6173C207.912 64.2491 207.807 69.531 207.76 74.2384C207.443 106.556 208.615 139.026 207.404 171.299C207.209 176.521 200.347 179.396 197.398 174.59C196.242 172.706 195.827 169.561 195.709 167.369C195.802 157.359 196.246 147.309 196.034 137.281C196.922 123.199 194.178 70.1105 196.721 59.6903L196.429 59.0544L198.81 56.8128L200.546 57.0353L200.735 56.249Z" fill="#FE3D00"/>
<path d="M198.81 56.8128L200.546 57.0353C200.521 69.5867 201.666 168.416 199.718 171.266L198.661 171.026C194.906 159.074 200.951 62.9299 196.721 59.6903L196.429 59.0544L198.81 56.8128Z" fill="#FF754C"/>
<path d="M181.057 98.2312C182.635 99.1054 184.768 100.203 186.224 101.18C187.054 135.718 186.286 170.844 186.181 205.416C186.175 207.357 185.394 209.49 184.157 210.989C180.439 213.124 177.391 212.67 175.224 208.548C174.631 207.437 174.293 206.208 174.233 204.95C173.591 192.635 175.028 169.127 174.417 155.879C174.104 149.089 174.058 106.057 174.921 101.78L174.801 101.268L176.644 99.6841L179.073 98.6172L181.057 98.2312Z" fill="#FE3D00"/>
<path d="M176.644 99.6841L179.073 98.6172L179.126 167.795C179.127 175.241 179.638 199.356 178.094 205.732C172.976 199.585 180.144 109.406 174.921 101.78L174.801 101.268L176.644 99.6841Z" fill="#FF754C"/>
<path d="M72.5665 118.641C76.0262 119.698 76.7949 119.934 79.4445 122.375C79.4769 134.585 80.7627 225.914 77.967 230.812C76.3898 232.073 76.0072 232.743 73.8257 232.731C70.6465 232.714 67.547 229.343 67.5669 226.209C67.6939 206.581 67.7836 186.948 67.6856 167.318C67.7994 158.596 66.9427 129.586 68.06 122.598L68.0243 122.149L69.589 120.711L72.5665 118.641Z" fill="#FE3D00"/>
<path d="M69.589 120.711L72.5665 118.641L72.4735 192.029C72.466 198.37 73.6232 224.1 71.3006 227.453L70.449 227.429C66.1018 218.994 72.4561 128.716 68.06 122.598L68.0243 122.149L69.589 120.711Z" fill="#FF754C"/>
<path d="M68.0243 122.149C66.4803 95.1361 68.5539 66.5779 67.7595 39.4012C67.6109 34.307 66.7402 26.8872 70.0738 22.9104C73.1359 21.5223 78.7398 22.008 78.8792 25.6402C80.1094 57.6903 79.4786 90.2186 79.4445 122.375C76.7949 119.934 76.0262 119.698 72.5665 118.641L69.589 120.711L68.0243 122.149Z" fill="#1CB5FF"/>
<path d="M69.589 120.711C69.1582 91.5927 69.9675 62.4118 69.2287 33.3024C69.1806 31.4028 69.2877 28.1292 70.6905 26.7552L71.5247 27.3422C74.386 31.7374 72.1041 105.428 72.5665 118.641L69.589 120.711Z" fill="#62C9FE"/>
<path d="M30.3703 91.7753C33.4931 92.5557 34.0617 92.8023 36.6399 94.7251C36.7835 104.029 38.2303 171.727 35.1972 174.977C34.1198 176.132 32.1367 176.996 30.5778 176.952C28.9409 176.892 27.4069 176.14 26.3577 174.882C23.3536 171.323 25.6895 111.632 24.9134 103.325C24.7872 101.969 25.1956 96.721 25.5924 95.1842L25.4496 94.7193L27.1264 93.2481L29.8141 92.1514L30.3703 91.7753Z" fill="#FE3D00"/>
<path d="M27.1264 93.2481L29.8141 92.1514C29.6232 103.472 30.8775 164.889 28.2055 170.449C24.2203 163.178 29.8274 98.6081 25.5924 95.1842L25.4496 94.7193L27.1264 93.2481Z" fill="#FF754C"/>
<path d="M89.4976 101.154C88.7489 76.3945 89.3689 50.8476 89.4461 26.0445C89.4528 23.9258 90.2895 23.0416 91.5172 21.4949C93.223 20.6171 94.9097 20.1057 96.8056 20.7806C98.3869 21.3433 99.3249 22.1466 99.984 23.6618C102.188 28.7303 101.129 92.403 100.705 100.86C98.1312 99.0514 97.3036 98.8431 94.2747 97.9655L94.097 98.4188L90.3418 99.8817L90.1758 100.815L89.4976 101.154Z" fill="#1CB5FF"/>
<path d="M90.3418 99.8817C91.5321 95.8949 90.9029 87.928 91.1345 84.0235C91.7147 74.25 89.7176 33.0948 92.0111 25.7174C95.5978 35.7723 92.8619 70.9673 93.4836 83.5063C93.6945 87.7495 93.1026 93.4441 94.2199 97.7613L94.2747 97.9655L94.097 98.4188L90.3418 99.8817Z" fill="#62C9FE"/>
<path d="M174.801 101.268C173.986 92.7384 173.176 30.6249 176.162 26.9777C177.072 25.866 178.541 25.3812 179.867 24.9652C182.099 25.2533 183.475 25.3256 184.909 27.3231C188.101 31.7656 186.387 91.3843 186.224 101.18C184.768 100.203 182.635 99.1054 181.057 98.2312L179.073 98.6172L176.644 99.6841L174.801 101.268Z" fill="#1CB5FF"/>
<path d="M176.644 99.6841C176.19 85.459 176.795 70.0366 176.512 55.6795C176.417 50.86 176.145 34.1036 176.811 30.5336L178.027 29.9782C180.959 32.9678 177.972 87.4299 179.351 97.6293L181.057 98.2312L179.073 98.6172L176.644 99.6841Z" fill="#62C9FE"/>
<path d="M25.4496 94.7193C24.4419 88.6777 24.4593 41.4585 26.102 31.9391C26.2847 30.8823 28.7956 29.2899 30.0499 28.7079C32.0213 28.8125 32.7252 28.8291 34.1073 30.4281C38.5632 35.583 37.1736 85.0596 36.6399 94.7251C34.0617 92.8023 33.4931 92.5557 30.3703 91.7753L29.8141 92.1514L27.1264 93.2481L25.4496 94.7193Z" fill="#1CB5FF"/>
<path d="M27.1264 93.2481C26.9031 86.4843 26.3453 36.7935 28.286 34.3493C32.2031 38.8101 27.2002 82.5316 30.3703 91.7753L29.8141 92.1514L27.1264 93.2481Z" fill="#62C9FE"/>
<path d="M158.868 176.885C162.041 177.65 162.542 178.034 164.88 180.32C164.995 193.482 166.102 216.577 163.906 229.826C163.666 231.276 160.6 232.375 159.12 232.929C149.794 231.323 153.287 189.035 153.466 180.038L154.114 179.809L154.161 178.494L157.884 177.479L158.868 176.885Z" fill="#FE3D00"/>
<path d="M154.161 178.494L157.884 177.479C157.39 184.512 158.617 225.283 156.389 227.88C152.568 222.422 157.034 185.992 154.114 179.809L154.161 178.494Z" fill="#FF754C"/>
<path d="M110.847 62.3736C109.832 54.3229 107.497 23.2898 116.083 19.4925C125.501 22.4538 122.301 53.5915 122.134 62.5413C119.308 60.2657 118.701 59.9726 115.14 59.2918L111.995 61.56L110.847 62.3736Z" fill="#1CB5FF"/>
<path d="M111.995 61.56C112.261 55.4321 110.982 28.6705 113.32 25.5638L114.535 26.3268C115.292 29.2974 114.942 53.5002 115.14 59.2918L111.995 61.56Z" fill="#62C9FE"/>
<path d="M196.429 59.0544C195.318 51.3789 193.171 31.8852 201.751 28.6025C210.249 31.3962 208.195 52.0547 207.594 59.6173C204.805 57.3923 204.215 56.9954 200.735 56.249L200.546 57.0353L198.81 56.8128L196.429 59.0544Z" fill="#1CB5FF"/>
<path d="M198.81 56.8128C196.906 52.6052 198.279 39.2451 198.844 34.3559C200.634 36.4091 200.612 52.699 200.735 56.249L200.546 57.0353L198.81 56.8128Z" fill="#62C9FE"/>
<path d="M132.434 45.0277C131.695 39.5042 128.712 14.721 140.943 21.4229C145.051 23.6742 143.453 41.0094 143.426 45.6371C141.519 43.9368 140.17 43.4536 137.875 42.4332L136.575 42.7944L133.972 44.2315L132.434 45.0277Z" fill="#1CB5FF"/>
<path d="M133.972 44.2315C133.917 41.0725 133.684 28.3119 134.865 26.1823C136.683 32.3426 136.409 35.138 136.565 41.5615L137.875 42.4332L136.575 42.7944L133.972 44.2315Z" fill="#62C9FE"/>
<path d="M46.9802 44.5412C45.5475 38.498 44.8261 28.1458 51.1754 24.6423C57.1353 24.5875 58.0625 31.7499 58.0385 36.4274C58.0161 39.1787 57.9613 41.9293 57.8749 44.679C56.7718 43.8081 54.631 42.6009 53.3593 41.8305L50.9961 42.0073L47.7804 43.2933L46.9802 44.5412Z" fill="#1CB5FF"/>
<path d="M47.7804 43.2933C47.9414 39.0774 48.2012 34.8657 48.559 30.6623L49.2604 30.4638C51.4676 35.0517 50.6616 35.9151 51.5713 40.7919L53.3593 41.8305L50.9961 42.0073L47.7804 43.2933Z" fill="#62C9FE"/>
</svg>
