<svg width="29" height="29" viewBox="0 0 29 29" fill="none" xmlns="http://www.w3.org/2000/svg">
<g clip-path="url(#clip0_4_365)">
<path d="M0 0H29V29H1.01546H0V9.00637V7.98709V4.98086V4.02259V0Z" fill="white"/>
<path d="M0 0H29V29H1.01546H0V9.00637L1.01762 9.00442C1.66155 9.00476 2.34952 8.99269 2.98972 9.00634L3.01141 9.00008C3.34704 9.00716 3.68272 9.00982 4.0184 9.00812L4.02032 21.0535C4.02032 23.0254 3.99526 25.0577 4.02318 27.0226C6.09076 26.9948 8.21603 27.0188 10.2875 27.0192L22.0435 27.0194C23.6894 27.0194 25.3774 27.0389 27.0205 27.0167L27.0191 1.98355C24.5206 1.9483 21.9383 1.98077 19.4342 1.98075L4.98381 1.98227L4.02265 1.98448C4.02313 2.63007 4.04103 3.38484 4.01692 4.0214L0 4.02259V0Z" fill="black"/>
<path d="M27.019 1.98356C27.3345 1.98118 27.65 1.98263 27.9654 1.98795L27.9636 19.6158L27.9632 24.7031L27.9627 26.2143C27.963 26.3856 27.9541 26.7982 27.9748 26.9406L27.9757 27.003C27.8206 27.0326 27.2038 27.0184 27.0204 27.0167L27.019 1.98356Z" fill="#A09F9F"/>
<path d="M4.02309 27.0226C6.09067 26.9948 8.21594 27.0188 10.2874 27.0192L22.0434 27.0194C23.6893 27.0194 25.3773 27.0389 27.0204 27.0167L27.0184 27.9607L11.1035 27.9606L6.51976 27.9606L5.13127 27.9597C4.93475 27.9598 4.53096 27.9523 4.35065 27.9759L4.02173 27.9738L4.01709 27.2799L4.02309 27.0226Z" fill="#A09F9F"/>
<path d="M26.99 1.05176C27.041 1.17614 27.0211 1.79553 27.019 1.98355C24.5205 1.94829 21.9382 1.98077 19.4341 1.98075L4.98372 1.98227L4.98193 1.05446L20.1266 1.0549C22.4007 1.05526 24.7189 1.07852 26.99 1.05176Z" fill="#A09F9F"/>
<path d="M0 9.00638L1.01762 9.00443C0.988339 11.5067 1.01394 14.0522 1.01408 16.5581L1.01546 29H0V9.00638Z" fill="#313131"/>
<path d="M3.01144 9.00009C3.34706 9.00717 3.68274 9.00983 4.01843 9.00813L4.02035 21.0536C4.02035 23.0254 3.99529 25.0577 4.02321 27.0226L4.01721 27.2799C4.00194 27.198 3.98798 27.1158 3.97535 27.0334C3.89189 27.0105 3.13953 27.0136 3.00178 27.0128C3.04576 22.919 3.00207 18.7312 3.00212 14.6307L3.0034 10.7888C3.00359 10.453 3.02642 9.27052 2.98975 9.00635L3.01144 9.00009Z" fill="#313131"/>
<path d="M4.02197 1.02322L26.9781 1.02455L26.99 1.05177C24.7189 1.07853 22.4007 1.05526 20.1266 1.05491L4.98197 1.05447L4.98376 1.98228L4.0226 1.98448L4.02197 1.02322Z" fill="#A3A2A2"/>
<path d="M27.0206 27.0167C27.204 27.0183 27.8207 27.0326 27.9758 27.003L27.9773 27.9776L12.1971 27.9835H7.03463C6.21431 27.9836 5.14683 28.0178 4.35083 27.9759C4.53115 27.9523 4.93494 27.9598 5.13145 27.9597L6.51994 27.9606L11.1036 27.9606L27.0186 27.9607L27.0206 27.0167Z" fill="#616061"/>
<path d="M26.9783 1.02454L27.9786 1.02471L27.9839 18.4992L27.9837 24.1014C27.9837 24.8766 28.0249 26.2002 27.9749 26.9405C27.9542 26.7982 27.9631 26.3856 27.9629 26.2143L27.9633 24.703L27.9637 19.6158L27.9655 1.98793C27.6501 1.98262 27.3346 1.98116 27.0192 1.98354C27.0213 1.79553 27.0412 1.17614 26.9902 1.05175L26.9783 1.02454Z" fill="#616061"/>
<path d="M0 4.02258L4.01692 4.02139L4.02004 4.13748L4.01959 4.97998L0 4.98086V4.02258Z" fill="#616061"/>
<path d="M1.02259 7.98651L1.23762 7.99059C1.59706 8.03171 2.62205 8.01687 2.99506 8.0022C2.99712 8.12398 2.99806 8.93708 3.01137 9.00007L2.98967 9.00633C2.34948 8.99268 1.66151 9.00474 1.01758 9.0044L1.02259 7.98651Z" fill="#A09F9F"/>
<path d="M4.02257 1.98447L4.98373 1.98227C4.98319 2.65924 4.97676 3.3472 4.98458 4.02323C4.7137 4.01859 4.43921 4.01012 4.16842 4.02205C4.07006 4.02638 4.04757 4.04074 4.01996 4.13748L4.01685 4.02139C4.04095 3.38484 4.02305 2.63007 4.02257 1.98447Z" fill="#DFDFDF"/>
<path d="M1.23755 7.99062C2.16532 7.97394 3.09515 7.99671 4.02125 7.9862L4.01828 9.00814C3.6826 9.00984 3.34692 9.00717 3.01129 9.00009C2.99798 8.93711 2.99705 8.12401 2.99498 8.00223C2.62198 8.0169 1.59698 8.03174 1.23755 7.99062Z" fill="#A3A2A2"/>
<path d="M0 7.98708L1.02263 7.98651L1.01762 9.0044L0 9.00635V7.98708Z" fill="#A3A2A2"/>
<path d="M4.01998 4.13748C4.0476 4.04074 4.07008 4.02638 4.16844 4.02205C4.43924 4.01013 4.71372 4.01859 4.9846 4.02324L4.98469 4.98253C4.83218 4.98231 4.11905 4.95628 4.01953 4.97998L4.01998 4.13748Z" fill="#F0F0F0"/>
</g>
<defs>
<clipPath id="clip0_4_365">
<rect width="29" height="29" fill="white"/>
</clipPath>
</defs>
</svg>
