<svg width="252" height="252" viewBox="0 0 252 252" fill="none" xmlns="http://www.w3.org/2000/svg">
<path fill-rule="evenodd" clip-rule="evenodd" d="M18.9759 0C8.70851 0 0 8.12899 0 18.1325V233.754C0 243.77 5.70985 251.887 15.9772 251.887H230.639C240.918 251.887 251.887 243.77 251.887 233.754V18.1325C251.887 8.12899 243.917 0 233.637 0H18.9759ZM53.9758 31.4858C66.4022 31.4858 76.4656 41.5493 76.4656 53.9757C76.4656 66.4022 66.4022 76.4656 53.9758 76.4656C41.5494 76.4656 31.4858 66.4022 31.4858 53.9757C31.4858 41.5493 41.5494 31.4858 53.9758 31.4858ZM169.564 94.4575C205.8 94.4575 215.903 113.688 215.903 149.324V215.903H179.919V155.883C179.919 139.93 173.545 125.943 158.647 125.943C140.56 125.943 131.941 138.193 131.941 158.296V215.903H95.9569V95.9569H129.856V113.246H130.23C135.4 103.926 150.685 94.4575 169.564 94.4575ZM35.9838 95.9569H71.9677V215.903H35.9838V95.9569Z" fill="#0A66C2"/>
</svg>
