<svg width="1446" height="568" viewBox="0 0 1446 568" fill="none" xmlns="http://www.w3.org/2000/svg">
<path d="M1039.32 0C1047.4 2.63565 1088.18 11.4319 1091.58 17.5679C1093.34 20.7577 1093.15 25.2057 1092.52 28.7142C1091.37 35.0726 1088.65 41.3243 1086.37 47.3579C1080.79 62.1523 1073.84 77.1063 1069.65 92.3293C1075.14 94.3003 1081.71 97.1481 1087.21 99.3572C1080.05 103.451 1069.64 108.212 1062 112.236C1058.91 120.176 1055.56 131.674 1052.82 140.044C1047.68 155.41 1042.68 170.822 1037.82 186.277C1057.18 166.566 1067.8 128.975 1101.3 125.655C1119.08 123.895 1131.22 137.867 1129.91 155.112C1128.99 172.602 1124.62 188.398 1121.13 205.574C1114.92 236.193 1104.85 266.581 1099.61 297.296C1099.04 300.674 1099.79 308.681 1100.01 312.337C1102.59 310.679 1107.99 307.291 1110.08 305.322C1120.69 295.329 1132.63 274.506 1135.5 260.313C1138.24 246.808 1139.29 236.206 1143.29 222.664C1149.7 200.372 1161.33 179.923 1177.19 162.997C1190.96 148.407 1215.33 128.696 1235.95 128.197C1249.78 127.898 1263.15 133.135 1273.1 142.744C1289.02 157.9 1287.67 175.517 1273.53 191.407C1252.36 215.18 1230.34 241.127 1204.74 260.134C1185.38 274.51 1180.06 272.149 1187.4 297.879C1198.04 335.245 1244.76 299.524 1259.43 283.151C1259.71 233.53 1269.03 199.904 1302.23 160.867C1314.28 146.691 1334.92 127.677 1354.27 125.939C1372.7 123.046 1379.18 149.268 1390.64 153.304C1431.64 167.75 1430.1 160.201 1414.55 203.558C1408.02 221.653 1401.7 239.829 1395.62 258.081C1387.4 282.763 1385.27 285.649 1386.88 311.941C1416.28 294.042 1424.54 263.155 1445.74 237.212C1442.4 266.471 1403.96 331.986 1368.34 332.273C1346.72 332.446 1350.55 286.228 1350.78 272.096C1342.44 289.155 1330.95 328.039 1311.38 334.114C1283.26 342.843 1269.57 317.482 1261.58 295.164C1240.71 313.501 1198.94 345.395 1169.57 332.996C1150.45 324.927 1142.99 300.829 1135.98 282.944C1117.6 311.889 1072.32 370.614 1057.27 302.484C1046.58 254.05 1080.31 204.605 1088.92 158.02C1089.17 156.7 1087.32 155.434 1086.46 154.64C1058.96 154.24 1033.95 232.85 1026.84 253.476L1009.82 302.802C1006.69 311.944 1001.8 335.853 990.867 337.143C964.138 340.299 961.114 315.293 958.09 295.666C947.866 308.131 930.464 331.368 913.458 333.608C890.248 336.665 887.224 302.21 885.302 286.181C876.696 298.985 868.988 307.567 858.34 318.25C815.665 361.082 811.574 311.303 813.178 277.691C813.404 272.959 816.025 265.298 815.736 260.812C814.704 261.435 811.61 272.885 810.373 275.616C802.488 292.519 793.995 326.215 774.686 333.762C743.534 345.937 730.279 309.603 721.398 289.12C709.528 306.64 692.794 323.081 674.658 334.227C669.806 337.209 663.854 339.706 658.083 338.217C651.364 336.484 646.839 329.818 644.515 323.652C627.561 278.685 674.188 181.125 666.295 167.909C664.036 164.127 659.579 162.884 655.597 161.836C646.679 184.043 639.608 201.392 627.932 222.484C619.73 237.298 609.963 254.057 602.54 268.938C599.686 274.66 593.298 297.043 591.077 304.398C585.355 323.34 578.703 343.609 573.615 362.668C583.532 363.544 602.176 366.757 612.614 368.479C670.729 378.064 706.504 384.79 764.497 371.946C781.313 380.464 785.651 392.752 787.75 409.99C777.561 415.53 765.395 416.505 753.927 417.537C707.529 421.719 662.847 411.314 618.693 398.29C602.757 393.589 582.803 386.904 566.861 383.327C564.182 389.171 562.099 395.143 559.67 401.353C534.118 466.674 492.66 557.769 413.142 566.895C395.047 568.972 376.215 563.765 362.328 551.96C349.146 540.851 340.974 524.919 339.641 507.734C338.295 490.385 344.183 472.239 351.895 456.826C377.158 406.328 433.792 376.169 486.511 362.88C494.274 360.923 528.122 357.528 531.645 353.226C535.535 348.475 558.481 267.159 557.884 260.681L556.977 261.634L557.767 261.954L556.8 261.973C554.679 266.446 553.552 271.805 551.644 276.161C544.795 291.802 532.996 326.973 516.082 333.815C483.555 346.976 471.248 306.489 461.077 284.477C451.515 298.373 417.279 347.249 397.131 330.927C386.126 322.011 387.119 288.082 386.731 274.027C382.045 286.846 379.025 294.136 372.82 306.301C367.85 316.328 361.813 326.961 351.834 332.414C332.527 342.965 315.539 329.457 306.682 312.412C303.97 307.191 300.638 301.581 297.789 296.402C291.608 305.705 275.721 321.438 266.916 329.029C260.939 334.181 252.702 338.836 244.434 337.839C240.694 337.416 237.285 335.495 234.985 332.517C219.343 312.65 237.543 195.688 241.651 165.976C244.513 145.764 247.21 125.53 249.74 105.274L156.559 337.256C141.999 339.259 117.054 338.383 116.913 319.023C116.807 304.468 119.986 285.899 121.891 271.358C127.082 231.91 132.879 192.545 139.282 153.275L145.481 114.459C146.891 105.609 148.954 94.768 149.011 85.9654C144.088 93.0746 131.387 124.073 127.105 133.978L71.2309 263.032C62.2244 283.851 53.4358 304.792 44.2475 325.546C35.5876 345.107 17.4587 343.392 3.35088 331.461C-2.50805 326.506 0.649916 318.996 2.83625 313.137C11.6421 292.197 20.8717 271.073 29.9004 250.237L71.2288 153.773L110.69 62.2932C117.579 46.3495 124.511 30.2286 131.561 14.3393C132.654 11.878 134.325 10.5024 136.02 8.65129C142.607 1.46081 167.767 4.52092 178.282 4.826C187.5 5.09346 214.027 5.79245 219.486 12.5637C221.507 15.072 221.341 21.9497 220.713 25.2718C217.1 44.3746 212.53 63.9918 208.403 82.977L182.237 204.057C181.085 209.549 174.429 232.154 177.727 235.597C182.882 226.554 194.817 193.647 199.035 182.751L242.208 71.0158L256.47 33.7602C259.124 26.8368 266.036 5.95181 271.662 3.3968C279.412 -0.123969 312.572 7.76022 320.352 10.4346C323.281 13.8869 324.332 16.5674 325.768 20.7074C299.766 96.2947 290.657 175.146 278.529 253.771C276.156 269.157 272.926 285.824 273.832 301.304C299.713 293.314 295.986 277.557 297.838 255.619C300.775 220.81 316.042 187.418 339.175 161.326C352.448 146.356 370.856 128.43 391.83 125.998C411.167 124.373 413.523 144.786 426.922 152.566C437.738 158.846 464.882 155.829 460.221 175.555C457.52 186.985 451.807 197.27 447.652 208.114C435.341 240.233 421.087 277.827 423.108 312.792C431.785 310.961 433.731 306.66 439.54 301.167C467.679 274.567 461.192 248.967 473.483 215.104C480.271 196.429 490.253 179.076 502.983 163.82C515.755 148.547 537.23 127.956 557.831 125.882C577.464 124.518 580.474 145.482 596.295 153.365C605.681 158.041 628.05 158.625 627.733 171.497C627.266 190.429 618.12 209.812 614.232 228.385C613.303 232.827 609.774 235.907 613.575 238.878L614.82 238.634C617.567 233.265 618.285 227.732 620.215 222.059C627.53 200.559 634.003 178.798 641.124 157.208C630.524 149.841 594.416 127.781 615.34 113.606C626.422 106.099 655.738 101.795 669.645 98.9856C666.599 113.786 664.269 130.074 661.393 145.203C676.095 150.532 693.725 156.368 707.635 163.141C726.471 172.313 714.361 199.49 710.058 216.364L697.089 268.539C693.055 285 689.606 296.763 687.846 313.596C700.717 306.263 717.83 286.17 720.501 271.885C724.472 250.647 724.698 233.602 733.099 212.487C746.297 179.317 770.983 145.531 803.633 129.714C830.912 117.282 834.325 136.462 850.307 151.663C856.44 157.501 884.08 159.174 887.309 168.847C889.237 174.622 880.413 190.797 877.594 197.264C863.364 229.846 851.013 264.392 848.336 300.11C848.138 302.823 847.693 310.097 848.548 312.309L849.968 312.923C852.102 312.559 853.578 311.48 855.26 310.192C884.143 288.063 891.583 253.056 900.662 219.762C905.601 201.642 910.688 183.565 915.924 165.53L929.878 117.036C932.365 108.387 936.682 94.7666 937.841 86.2664C900.281 82.474 864.961 81.29 827.154 80.8146C808.727 80.5835 783.864 79.461 765.79 81.5712C753.906 82.9594 733.953 90.248 721.2 93.2879C713.188 89.1933 708.03 82.9961 702.521 76.0741C680.869 48.8787 704.966 46.0583 727.524 41.5761C800.736 27.032 872.712 51.1002 944.313 63.7375C947.577 52.4714 950.629 39.704 953.625 28.2595C966.088 27.5309 1001.64 26.5282 1009.7 40.7272C1012.64 45.896 1001.16 69.7951 998.561 76.2253L1016.63 80.7036C1022.87 55.2723 1032.16 25.7534 1039.32 0ZM399.264 542.615C459.991 594.332 512.784 408.804 527.365 371.508C527.342 371.332 527.319 371.158 527.295 370.983L525.851 371.002C512.973 373.017 498.025 375.166 485.559 378.564C455.507 386.753 429.17 404.993 410.938 430.245C392.533 455.517 383.37 486.689 387.8 518.049C389.117 527.367 392.518 535.9 399.264 542.615ZM778.621 309.936C787.29 305.711 791.198 302.751 794.236 293.217C806.727 254.016 818.774 214.658 830.884 175.336C832.636 169.608 837.497 158 834.805 152.617C832.763 148.551 827.726 146.047 823.289 145.494C813.588 148.223 808.451 157.425 803.711 165.832C786.478 196.498 776.367 230.648 770.22 265.14C768.341 275.704 765.423 287.793 768.327 298.354C769.627 303.097 772.955 309.894 778.621 309.936ZM1248.06 146.161C1245.87 146.674 1237.29 148.655 1235.91 149.425C1228.69 153.449 1220.14 166.893 1215.72 173.778C1202.56 194.302 1188.96 232.34 1186.26 256.329L1187 256.97C1187.77 256.594 1188.8 256.14 1189.48 255.67C1212.85 232.289 1232.45 208.206 1245.28 177.334C1250.26 165.343 1253.77 159.615 1250.13 146.53C1249.26 146.16 1248.97 145.92 1248.06 146.161ZM397.197 146.807C389.504 148.787 383.888 156.195 380.113 162.842C362.301 194.299 351.42 229.477 345.057 264.941C343.21 275.229 340.393 287.61 343.151 297.837C344.838 304.092 347.383 310.121 354.79 309.182C359.195 306.607 365.168 302.91 367.135 298.009C372.318 285.101 376.598 269.728 380.719 256.404C390.963 223.489 400.999 190.509 410.828 157.468C407.621 149.336 406.338 147.614 397.197 146.807ZM520.815 309.414C524.174 307.509 531.758 302.571 533.088 298.879C548.818 255.221 561.102 210.004 575.091 165.707C577.802 157.119 577.778 148.468 566.934 145.887C566.187 145.714 565.433 145.575 564.674 145.47C560.508 146.495 556.521 148.512 553.88 152.185C529.778 185.704 518.158 228.401 511.248 268.599C509.571 278.347 507.613 287.925 509.579 297.455C510.904 303.037 514.085 310.012 520.815 309.414ZM992.145 93.6723C987.687 102.85 978.841 130.838 975.231 141.9C961.736 183.281 946.291 225.064 937.692 267.711C935.912 276.541 933.658 285.784 932.485 294.725C932.082 297.764 933.665 303.65 934.435 306.857C937.593 304.354 941.451 301.454 944.369 298.77C961.912 281.297 962.541 270.834 969.176 247.665L983.321 197.96L1001.1 134.708C1004.14 123.87 1008.87 108.576 1010.89 97.6991C1004.8 96.3137 998.052 95.1029 992.145 93.6723ZM1360.01 146.97C1335.6 151.468 1311.1 240.62 1308.05 263.025C1306.64 273.405 1298.18 310.838 1317.25 309.31C1326.58 304.809 1329.58 300.262 1332.75 289.976C1346.15 246.488 1360.93 202.915 1372.48 158.928C1374.57 151.001 1367.11 147.572 1360.01 146.97Z" fill="black"/>
</svg>
