<svg width="2297" height="820" viewBox="0 0 2297 820" fill="none" xmlns="http://www.w3.org/2000/svg">
<path d="M662.392 4.88231C666.626 3.27831 666.681 0.87331 668.905 0.82331C705.059 0.00730956 742.032 0.519308 778.142 0.521308L1095.77 0.449309C1104.04 0.441309 1136.59 -0.0876969 1143.26 1.2933L1143.57 3.03531C1139.1 4.06331 1135.46 4.37231 1130.68 5.56231C1119.23 8.41831 1107.63 13.6963 1096.7 17.1183L1096.15 19.9993C1085.97 21.0483 1060.08 36.7913 1049.4 42.1583C1044.54 44.5983 1036.33 52.1833 1028.36 54.1103C1026.33 54.6013 1012.4 67.6783 1009.4 68.9973C1003.6 73.4043 997.859 77.7273 992.069 82.1233C981.259 91.5973 962.739 114.395 951.579 121.333C946.989 135.356 946.259 132.271 936.209 141.494C935.309 142.323 935.319 148.417 935.109 148.556C933.179 149.799 929.559 152.133 927.699 153.338C927.699 153.338 927.209 160.423 926.709 160.807C926.149 161.237 919.799 165.748 919.779 165.792C918.489 168.438 916.189 178.697 914.159 180.497L911.599 180.59C911.459 181.052 909.829 188.535 910.309 188.112C902.979 194.66 901.669 203.814 895.669 211.295C895.609 214.197 896.039 219.137 894.609 221.081L891.874 221.314C888.984 227.009 888.581 238.55 886.069 240.886L883.476 241.12C882.145 246.582 884.36 249.307 882.333 252.793L879.879 252.882C877.99 257.663 880.172 261.939 878.718 265.157L875.706 265.518C874.519 270.671 876.026 277.914 874.698 280.487L871.875 280.611C869.953 286.639 872.352 292.099 870.859 297.217L868.069 297.618L861.772 343.511C860.741 350.941 859.251 352.187 859.187 360.94C858.822 370.444 856.165 377.387 855.679 385.629C854.592 404.03 854.594 423.655 855.967 442.008C855.774 439.762 859.688 458.445 859.142 456.65C859.162 470.731 860.829 470.006 862.204 482.192C867.231 526.741 881.998 589.525 906.289 627.661L906.779 628.428L907.239 634.761C908.719 635.825 909.009 635.675 910.819 635.809C911.219 636.847 915.829 650.187 915.559 649.92C921.809 656.189 922.519 651.176 923.539 662.513C924.989 662.964 925.609 663.121 927.169 663.406C927.299 664.285 928.179 670.261 928.179 670.261C933.669 676.971 940.659 677.281 940.069 686.308C940.029 686.789 953.339 698.842 955.029 699.868L956.609 706.296C966.449 715.917 979.919 729.064 989.169 738.412C989.639 738.534 994.599 739.827 994.609 739.832C997.579 741.659 1007.94 754.944 1009.87 754.851C1016.87 754.512 1029.72 770.278 1033.76 770.873C1043.66 772.33 1051.83 782.066 1060.92 786.693C1061.99 787.241 1066.46 787.46 1067.23 787.982C1073.09 791.967 1077.47 793.632 1083.63 796.371C1099.73 803.524 1115.56 808.032 1132.13 813.361L1133.13 814.897L1134.88 814.974C1138.31 815.388 1141.4 815.263 1143.77 817.498C1140.45 820.731 1092.31 819.469 1085.13 819.468L983.509 819.457C901.819 819.445 820.068 819.448 738.374 819.527C735.252 819.53 729.301 819.514 726.402 818.908C727.628 781.54 726.628 738.496 726.621 700.788L726.587 396.13C726.619 388.226 727.404 352.061 725.874 346.622L723.243 346.049L722.1 345.819L719.375 346.293C710.809 365.92 703.423 386.435 695.225 406.271C691.626 414.978 687.872 424.594 685.572 433.693L682.902 434.406C682.834 435.109 681.986 444.498 681.751 444.822C675.217 453.828 673.206 466.036 667.652 475.589C665.366 479.522 667.92 482.823 665.4 486.041L662.747 486.37C662.061 489.29 662.324 496.268 661.139 497.226C654.926 502.248 656.585 512.568 653.433 517.46L650.653 517.834C647.869 524.654 648.132 532.672 645.475 537.818L642.575 538.321C641.92 541.717 642.657 545.489 641.342 546.946L638.753 547.232C637.972 551.697 638.977 556.196 637.596 558.603L635.047 558.797C630.71 569.474 630.404 579.292 622.876 588.408L622.383 598.669C620.989 599.559 620.682 599.416 619.037 599.487C616.145 606.064 616.323 614.624 613.891 619.101L610.952 619.47C607.797 627.001 610.008 634.049 602.601 640.38C602.624 640.361 602.25 647.505 602.2 648.146C601.139 652.175 598.741 653.611 596.564 658.662C592.306 668.544 589.642 684.183 582.773 692.039L582.766 692.513C582.599 699.576 580.288 704.113 577.613 710.615L576.628 710.822C575.491 711.07 575.352 711.095 574.361 711.774C574.378 714.615 574.866 720.97 573.45 722.922L570.748 723.285C567.41 729.779 568.204 739.894 564.735 743.08L562.57 743.492C560.048 749.484 559.348 759.584 557.177 763.067L554.55 763.439C553.052 773.301 548.66 786.202 543.97 795.037L542.687 795.829L542.591 797.667C541.458 801.487 541.109 801.856 538.158 804.492C537.626 807.526 537.918 809.128 536.095 811.002C526.13 812.22 410.215 812.427 403.656 810.591C402.505 809.625 402.676 810.145 402.374 809.024C401.693 805.337 393.517 787.539 391.277 782.955C388.814 777.915 390.247 776.202 389.16 771.113L386.118 770.571C383.656 765.814 383.957 757.612 381.083 751.072L378.409 750.679C375.893 747.832 375.857 736.765 372.684 730.833L370.171 730.787C368.144 727.591 370.223 724.584 368.871 719.308L366.2 719.148C364.232 716.305 365.758 709.346 364.795 708.449C357.69 701.829 359.659 695.475 356.527 687.631L353.99 687.428C352.028 684.94 354.159 683.496 352.701 678.809L350.241 678.728C348.815 677.049 349.674 671.371 348.913 667.266L346.31 667.06C344.337 664.667 346.607 663.03 344.981 658.412L342.196 658.211C339.821 647.564 336.197 634.897 330.166 625.861C329.28 624.534 329.797 618.698 329.102 615.22L326.48 614.915C323.636 612.738 322.61 600.302 320.747 594.995L318.33 594.722C316.371 592.99 313.99 578.768 313.299 575.355C312.253 574.206 311.512 574.143 310.053 573.839C309.402 571.468 306.127 559.605 305.458 559.039C300.499 554.846 301.535 546.156 300.488 544.391C292.383 530.726 290.502 514.849 281.919 501.488C280.621 499.468 281.406 493.443 280.517 491.189C278.607 487.356 275.279 483.855 273.389 479.941C271.578 474.773 270.461 467.168 268.597 461.927C267.759 459.572 265.929 457.575 264.653 454.287L242.491 396.983C237.784 384.66 226.412 358.277 223.615 346.73C220.926 344.298 220.614 342.103 217.49 340.78C213.872 341.746 212.805 342.456 212.799 346.506C212.774 363.622 212.775 380.739 212.77 397.855L212.78 818.806L0.0130005 818.807L0 0.990309L182.22 1.02331C209.534 1.02331 249.868 -0.372691 275.666 1.38031L277.501 4.6693L277.81 7.3463C281.867 10.3483 292.41 43.3073 296.628 49.8693C296.726 50.0223 296.898 55.4673 296.921 56.3473C298.387 57.2853 298.651 57.2683 300.283 57.7293C301.953 62.7743 307.07 79.6733 310.324 84.7323C310.611 85.1803 312.26 85.3573 312.922 85.4393C313.413 94.4763 314.955 96.2043 317.943 104.699L321.166 105.464C321.3 107.857 321.316 115.068 322.359 116.561C333.987 133.198 337.075 156.494 348.038 173.648C349.307 175.633 352.505 189.535 353.421 192.975L354.43 193.113C355.599 193.283 355.734 193.294 356.736 193.98C358.857 203.717 362.029 213.764 367.84 222.339C370.151 225.749 371.977 236.995 373.73 241.474C373.768 241.571 376.643 242.223 377.174 242.335C378.649 253.795 376.947 251.76 384.588 262.637C386.063 264.737 387.971 277.397 389.791 280.704C392.07 284.843 394.804 287.753 397.199 291.684C397.515 292.205 397.483 299.472 397.644 300.624C399.552 304.048 402.75 307.808 405.054 310.833C405.208 311.035 405.76 320.494 405.757 320.49C410.73 327.535 414.474 329.898 413.771 339.285C413.536 342.422 420.936 349.008 421.043 350.871C421.663 361.599 427.277 370.819 432.874 379.812C433.137 379.907 436.71 395.35 437.916 397.922L441.009 398.439C441.524 402.08 441.967 405.732 442.338 409.391L445.074 410.133C445.582 412.966 445.559 414.698 445.596 417.519C446.704 417.947 447.743 418.348 448.867 418.736C451.068 427.923 465.526 460.097 465.578 461.686C468.182 462.848 470.264 462.375 473.158 462.142C479.312 458.591 499.114 400.227 504.259 390.334C506.304 386.402 510.768 375.948 513.397 371.455C513.257 362.718 516.374 359.794 521.246 353.058C522.546 351.263 521.859 344.666 522.795 343.053C533.196 325.134 538.588 303.992 548.262 285.553C550.675 280.953 548.881 276.495 551.011 273.8L553.521 273.245C554.801 269.392 561.991 246.48 563.381 245.414L565.437 245.158C568.23 239.8 567.939 228.722 571.402 225.454L573.888 225.198C574.622 221.506 573.779 218.624 575.35 216.878L577.983 216.527C578.044 215.986 578.386 207.108 579.302 205.57C587.659 191.543 593.646 173.076 599.195 157.63C599.199 157.62 601.494 157.24 602.092 157.13C603.927 152.682 599.547 148.706 605.894 148.445C606.341 144.636 605.64 138.752 607.022 136.962L609.466 136.867C612.589 129.17 616.52 117.045 619.011 108.968L621.956 108.664L622.743 97.7703C623.864 97.5973 624.928 97.3383 626.014 97.0123C626.203 94.3913 626.42 91.7713 626.665 89.1543C628.083 89.0043 628.887 88.9483 630.104 88.1313C630.246 85.5903 629.954 81.5743 631.259 80.0143L633.852 79.7633C634.052 77.1763 634.01 70.3053 635.283 69.0183L637.935 68.7713C638.471 65.3273 637.86 62.1033 639.333 60.1463L641.845 60.0963C643.498 55.1743 641.219 48.4763 646.779 44.1303C651.541 40.4083 649.455 32.2073 650.699 30.7613C654.098 26.8093 660.176 9.5253 662.184 7.4433L662.392 4.88231Z" fill="white"/>
<path d="M1385.46 8.02431C1384.57 2.36631 1379.23 5.27831 1373.75 1.94931C1378.08 -0.53969 1589.73 0.535307 1611.1 0.523307L1671.06 0.389305C1676.78 0.375305 1697.19 0.066309 1701.89 1.13131C1703.19 3.88131 1703.87 4.24431 1706.56 5.61531C1706.73 9.39431 1710.57 26.8643 1714.2 28.2653C1714.25 31.0743 1713.89 38.8803 1715.3 40.6873L1717.94 41.1183C1719.32 46.6983 1717.32 52.1883 1719.43 55.6693L1721.95 56.1493C1722.94 61.1273 1721.64 66.0043 1723.31 68.6823L1725.96 69.1213C1727.02 74.3263 1725.47 78.3273 1727.27 81.2283L1729.95 81.7573C1731.6 100.181 1735.67 106.798 1741.23 124.323C1742.44 128.113 1741.42 135.43 1742.89 137.235L1745.55 137.79C1748.42 145.082 1748.53 160.465 1751.4 164.885L1754.07 165.433C1755.77 171.139 1755.09 175.582 1756.44 180.258C1759.21 189.558 1762.55 198.597 1765.95 207.689C1766.86 210.144 1766.22 215.991 1767.36 219.049C1773.3 234.937 1778.23 252.656 1782.64 268.975C1784.22 280.863 1791.23 293.753 1793.94 304.742C1798.49 323.18 1802.69 340.322 1809.19 358.322C1810.9 363.054 1812.35 371.682 1813.95 377.187C1820.1 398.26 1828.49 420.065 1831.88 441.712L1834.2 442.264C1836.87 449.756 1837.23 458.401 1839.21 465.843C1839.92 468.513 1842.44 473.888 1843.56 477.66C1853.56 510.748 1863.06 543.985 1872.05 577.359L1877.73 577.557C1884.57 557.626 1890.26 532.09 1896.35 511.526C1896.97 509.421 1898.53 507.389 1898.99 505.459C1903.62 486.233 1912.98 461.253 1915.6 442.155L1918.54 441.36C1920.02 434.13 1925.5 410.341 1928.38 402.214C1928.57 401.684 1930.35 401.621 1931.16 401.567C1931.13 390.937 1933.49 384.515 1936 374.219C1937.08 373.904 1938.15 373.607 1939.24 373.329C1940.01 367.994 1938.51 361.891 1939.87 358.197L1942.72 358.028C1944.44 353.233 1942.31 348.746 1943.86 345.792L1946.89 345.431C1948.57 339.889 1946.05 334.815 1947.87 330.252L1950.72 330.074C1952.73 324.927 1949.85 320.764 1951.96 317.401L1954.4 317.171C1955.71 311.28 1956.74 305.687 1958.76 300.006C1959.61 297.623 1958.01 292.033 1959.86 289.592L1962.5 289.172C1965.46 283.08 1965.57 272.323 1967.63 265.607C1968.7 262.131 1970.39 259.103 1971.53 255.39C1976.92 237.95 1981.09 219.546 1986.96 202.277C1992.38 186.305 1995.09 167.996 2001.95 153.372C2004.86 147.172 2002.47 141.412 2004.8 137.206L2006.96 136.856C2007.21 133.741 2007.05 126.888 2008.22 124.997L2010.87 124.348C2012.69 112.289 2013.53 108.854 2016.59 97.2873L2018.95 96.2433L2019.32 94.4453C2020.16 88.3663 2023.37 80.8743 2025.25 74.3203L2038.21 29.9673C2040.64 21.6353 2043.8 8.97031 2047.28 1.55931C2050.79 0.38631 2286.49 -0.891695 2295.45 0.861305C2296.96 3.3133 2296.24 7.26231 2296.04 10.3973L2295.5 12.1343L2294.14 12.7603C2291.6 21.5503 2288.66 29.4013 2285.61 38.0053C2284.65 40.6823 2285.08 46.7033 2283.43 48.6063L2281.22 48.7873C2279.24 52.1293 2280.86 57.3393 2279.8 59.5993C2268.63 83.2113 2264.41 110.404 2253.28 134.158C2251.9 137.096 2254.02 142.371 2251.7 145.325L2249.13 145.645C2245.82 152.666 2246.53 163.293 2243.45 168.892L2240.43 169.378C2240.05 171.526 2239.95 179.492 2239.75 179.93C2231.85 196.532 2229.38 215.284 2220.92 231.607C2219.72 233.925 2221.59 238.981 2219.45 242.125L2216.82 242.302C2215.83 246.973 2216.97 251.261 2215.73 253.945L2212.78 254.278C2211.86 258.972 2213.02 263.284 2211.74 266.057L2208.79 266.35C2207.52 271.876 2209.43 274.967 2207.63 278.347L2205.16 278.561C2202.34 293.526 2199.13 302.311 2195.36 316.676L2192.47 317.083C2191.55 321.872 2192.92 326.939 2191.34 329.176L2188.8 329.348C2187.41 334.329 2188.9 338.823 2187.35 341.198L2184.81 341.355C2183.41 346.32 2184.9 350.851 2183.36 353.179L2180.81 353.351C2179.14 359.086 2181.23 362.427 2179.01 365.714L2177.3 365.92C2174.84 374.814 2172.59 383.277 2168.8 391.711C2167.7 394.153 2169.63 398.41 2167.42 401.842L2164.64 402.167C2163.2 407.537 2165.27 410.299 2163.28 413.82L2160.59 414.171C2160.45 417.839 2160.23 421.503 2159.94 425.163C2158.64 426.089 2158.2 425.976 2156.61 426.157C2155.24 431.532 2157.28 434.265 2155.33 437.862L2152.66 438.207C2151.22 443.62 2153.34 446.258 2151.3 449.866L2148.54 450.182C2147.5 453.291 2148.19 459.726 2147.53 460.786C2137.96 476.141 2138.44 495.153 2129.18 510.3C2126.95 513.954 2129.87 519.665 2127.01 522.639L2124.95 522.939C2123.95 527.06 2120.83 542.304 2118.96 546.043C2118.76 546.437 2117.06 546.821 2116.45 546.959C2116.05 548.569 2115.58 550.271 2115.68 551.945C2116.05 557.723 2112.69 562.755 2110.97 568.103C2104.3 588.8 2096.62 609.326 2091.05 630.334C2089.57 634.63 2086.46 639.224 2085.13 643.473C2083.85 647.57 2083.4 651.49 2081.98 655.721C2076.22 672.907 2069.85 688.579 2066.66 706.512L2064.38 707.051C2063.22 710.393 2063.23 714.799 2063.05 718.411L2060.5 719.072C2058.59 723.443 2059.87 726.963 2058.29 731.283C2055.03 740.098 2050.81 748.877 2047.92 757.825C2044.95 767.596 2044.26 776.981 2038.7 785.866C2036.34 789.623 2035.18 794.038 2035.52 798.381C2035.75 801.242 2029.2 816.254 2028.02 817.355L2027.83 819.485L1442.6 819.506C1434.66 819.512 1376.3 820.778 1373.62 817.426C1375.93 815.386 1379.43 815.288 1382.57 814.848L1384.44 814.684L1385.29 813.378C1402.52 807.474 1419.88 802.694 1436.47 794.841C1440.55 792.906 1443.68 789.447 1447.87 787.766C1463.83 781.376 1477.51 772.873 1491.4 762.813C1496.69 758.97 1496.6 755.593 1504.4 754.712C1526.62 730.048 1554.78 710.448 1570.68 680.324C1576.22 669.822 1580.42 672.256 1582.14 659.383C1587.74 658.307 1588.5 649.513 1590.64 643.785C1592.37 643.457 1592.53 643.427 1594.25 642.72C1594.79 631.821 1596.25 636.356 1599.42 628.257C1613.68 591.763 1626.33 543.946 1626.37 504.809L1629.6 502.92C1630.95 498.352 1630.35 364.025 1629.61 362.192L1627.14 361.325C1621.45 362.37 1600.22 361.971 1593.28 361.963L1525.4 361.886L1264.55 361.91C1263.4 370.338 1263.73 415.258 1264.02 425.572C1264.88 455.679 1262.69 492.965 1264.26 522.292C1310.91 522.306 1367.25 523.821 1413.11 522.093C1414.51 551.211 1401.02 578.946 1382.13 600.766C1378.44 605.028 1374.52 605 1369.87 607.629C1369.85 607.639 1364.94 614.609 1364.94 614.611C1362.93 615.039 1359.05 614.404 1356.69 616.741C1353.01 620.378 1346.41 621.397 1341.76 623.728C1341.51 624.743 1341.27 625.758 1341.02 626.773C1337.68 627.658 1333.62 626.929 1330.36 626.849C1328.35 626.8 1328.42 630.086 1328.31 630.108C1318.48 632.077 1306.5 635.122 1297.38 635.038C1291.86 634.528 1280.59 634.934 1274.65 634.979C1266.87 634.871 1258.83 634.986 1251.02 634.995C1243.31 634.85 1235.94 634.637 1228.23 635.065C1221.01 635.11 1210.77 631.969 1203.67 629.845C1147.08 612.916 1111.45 561.993 1097.39 506.766C1096.61 503.731 1096.24 495.507 1094.64 493.626L1095.1 493.704L1092.85 492.668C1091.27 479.58 1088.18 467.936 1088.24 455.352C1088.47 451.478 1088.39 446.681 1088.27 442.783C1087.53 419.147 1089.21 394.779 1088.11 371.233C1088.09 367.656 1088.03 359.359 1088.78 356.19C1091.12 346.384 1092.27 347.062 1092.09 337.007C1092.07 332.908 1095.23 316.584 1097.16 312.958C1102.22 303.443 1101.93 296.62 1104.65 286.135L1107.68 285.381C1109.36 280.85 1114.63 265.88 1116.6 262.609C1119.23 258.239 1127.71 247.407 1131.49 243.295C1131.92 241.126 1132.28 239.314 1132.57 237.859C1139.61 232.794 1153.74 217.652 1160.75 210.535C1176.04 207 1181.76 194.374 1200.37 192.982L1201.01 190.15C1212.08 187.748 1219.64 184.452 1230.6 184.975C1234.93 185.202 1239.48 185.473 1243.83 185.232C1250.51 184.862 1263.07 179.439 1268.88 182.367L1269.57 184.412C1274.9 185.451 1288.47 185.529 1294.21 185.077C1303.17 183.963 1308.97 186.607 1317.39 188.937C1343.51 196.164 1362.77 213.579 1379.48 234.194C1380.79 235.814 1380.45 238.921 1381.6 241.552L1384.54 242.02C1387.58 251.065 1390.3 259.491 1394.15 268.257C1397.87 270.264 1454.81 269.535 1464.81 269.531L1575.9 269.37C1582.1 269.347 1614.03 270.722 1617.69 268.123C1618.3 256.309 1610.16 230.992 1607.28 218.927C1606.1 213.978 1607.24 207.052 1602.46 204.945C1602.07 196.279 1587.26 166.184 1582.29 157.719C1553.92 109.39 1514.24 70.2153 1465.91 41.9973C1450.47 32.9843 1435.35 24.1803 1417.85 19.7403C1417.44 18.4883 1417.22 18.1093 1416.6 16.9383C1406.63 13.5763 1395.59 8.62231 1385.46 8.02431Z" fill="white"/>
</svg>
