<svg width="182" height="120" viewBox="0 0 182 120" fill="none" xmlns="http://www.w3.org/2000/svg">
<g clip-path="url(#clip0_1_7)">
<path fill-rule="evenodd" clip-rule="evenodd" d="M67.556 35.752V24.932C68.604 24.852 69.668 24.8 70.748 24.764C100.348 23.836 119.768 50.2 119.768 50.2C119.768 50.2 98.792 79.328 76.304 79.328C73.332 79.34 70.376 78.868 67.556 77.928V45.112C79.076 46.504 81.396 51.592 88.324 63.144L103.732 50.152C103.732 50.152 92.484 35.4 73.524 35.4C71.464 35.4 69.492 35.544 67.556 35.752ZM67.556 0V16.172C68.616 16.088 69.68 16.02 70.748 15.98C111.908 14.596 138.728 49.74 138.728 49.74C138.728 49.74 107.928 87.196 75.836 87.196C72.896 87.196 70.14 86.924 67.556 86.464V96.456C69.768 96.736 72.06 96.904 74.452 96.904C104.312 96.904 125.908 81.656 146.82 63.604C150.288 66.38 164.484 73.136 167.4 76.096C147.516 92.736 101.18 106.156 74.908 106.156C72.452 106.148 70 106.02 67.556 105.772V119.812H181.056V0H67.556ZM67.556 77.928V86.464C39.936 81.544 32.268 52.828 32.268 52.828C32.268 52.828 45.532 38.132 67.556 35.752V45.112L67.512 45.108C55.952 43.72 46.924 54.52 46.924 54.52C46.924 54.52 51.984 72.696 67.556 77.928ZM18.5 51.584C18.5 51.584 34.868 27.424 67.556 24.932V16.164C31.352 19.072 0 49.732 0 49.732C0 49.732 17.756 101.064 67.556 105.764V96.456C31.012 91.86 18.5 51.584 18.5 51.584Z" fill="#76B900"/>
</g>
<defs>
<clipPath id="clip0_1_7">
<rect width="181.056" height="119.812" fill="white"/>
</clipPath>
</defs>
</svg>
