<svg width="125" height="125" viewBox="0 0 125 125" fill="none" xmlns="http://www.w3.org/2000/svg">
<path d="M74.52 111.971C67.7238 111.946 61.0033 110.544 54.7643 107.849C48.5252 105.154 42.8972 101.222 38.22 96.2915C44.497 100.728 51.8711 103.356 59.5389 103.891C67.2067 104.426 74.8742 102.846 81.7062 99.3235C88.5381 95.8013 94.2725 90.4718 98.2846 83.9156C102.297 77.3594 104.433 69.8278 104.46 62.1414C104.475 50.0757 100.443 38.3535 93.0107 28.8488C85.5781 19.3442 75.1734 12.606 63.46 9.71145C59.1857 8.63682 54.7972 8.0828 50.39 8.06144C37.9787 8.05036 25.9441 12.3245 16.32 20.1615C24.7836 10.9279 35.839 4.4662 48.0376 1.62293C60.2363 -1.22035 73.0093 -0.312581 84.6833 4.22729C96.3572 8.76716 106.388 16.7274 113.46 27.0651C120.533 37.4028 124.318 49.6358 124.32 62.1614C124.304 75.3697 119.05 88.0323 109.711 97.372C100.371 106.712 87.7082 111.966 74.5 111.981" fill="url(#paint0_linear_10_832)"/>
<path d="M62.17 124.291C45.7636 124.26 30.0319 117.758 18.3915 106.196C6.75115 94.6345 0.1422 78.9473 0 62.5414C0.0102854 62.3983 0.0102854 62.2546 0 62.1114C0.0103298 61.9716 0.0103298 61.8313 0 61.6914C0.181463 48.4508 5.57165 35.8146 15.0031 26.5198C24.4346 17.2249 37.1481 12.0197 50.39 12.0314C54.4713 12.0453 58.5353 12.5625 62.49 13.5714C72.1122 15.9538 80.8121 21.1355 87.49 28.4614C81.5546 24.0543 74.557 21.2992 67.2102 20.477C59.8634 19.6548 52.4299 20.7948 45.6671 23.7808C38.9043 26.7669 33.0539 31.4922 28.712 37.4755C24.37 43.4588 21.6917 50.4861 20.95 57.8414C20.85 59.1014 20.74 60.5614 20.73 62.1714C20.72 63.7814 20.85 65.1714 20.95 66.3614C21.8052 77.7927 26.3108 88.6467 33.8025 97.3231C41.2942 105.999 51.3755 112.039 62.56 114.551C66.5444 115.476 70.6197 115.952 74.71 115.971C86.6109 115.943 98.1629 111.95 107.54 104.621C101.723 110.827 94.6961 115.773 86.8927 119.156C79.0893 122.54 70.6752 124.287 62.17 124.291Z" fill="url(#paint1_linear_10_832)"/>
<defs>
<linearGradient id="paint0_linear_10_832" x1="70.3201" y1="-0.0285522" x2="70.3201" y2="111.971" gradientUnits="userSpaceOnUse">
<stop stop-color="#B9CE94"/>
<stop offset="0.3" stop-color="#ACC37E"/>
<stop offset="0.7" stop-color="#7A9C48"/>
<stop offset="1" stop-color="#6B813A"/>
</linearGradient>
<linearGradient id="paint1_linear_10_832" x1="0" y1="68.2013" x2="107.54" y2="68.2013" gradientUnits="userSpaceOnUse">
<stop stop-color="#7A9C48"/>
<stop offset="0.7" stop-color="#4E5B30"/>
</linearGradient>
</defs>
</svg>
