<svg xmlns="http://www.w3.org/2000/svg" fill="none" viewBox="0 0 160 29" height="29" width="160">
<path fill="#581660" d="M159.893 26.0734V28.77H144.099V26.0734H159.893Z"></path>
<path fill="#581660" d="M116.312 26.0735V7.24651H119.125V10.1882H119.372C119.767 9.18314 120.404 8.40277 121.284 7.84711C122.164 7.28329 123.222 7.00137 124.455 7.00137C125.706 7.00137 126.746 7.28329 127.577 7.84711C128.416 8.40277 129.07 9.18314 129.539 10.1882H129.737C130.222 9.21583 130.95 8.44363 131.921 7.87163C132.891 7.29146 134.055 7.00137 135.412 7.00137C137.107 7.00137 138.493 7.52843 139.571 8.58254C140.648 9.62848 141.187 11.2587 141.187 13.4731V26.0735H138.275V13.4731C138.275 12.084 137.893 11.0912 137.128 10.4947C136.363 9.89814 135.462 9.59988 134.425 9.59988C133.093 9.59988 132.06 10.0003 131.328 10.8011C130.596 11.5937 130.23 12.5988 130.23 13.8163V26.0735H127.269V13.179C127.269 12.1085 126.919 11.2464 126.22 10.5927C125.521 9.93082 124.62 9.59988 123.518 9.59988C122.761 9.59988 122.053 9.80008 121.395 10.2005C120.745 10.6009 120.219 11.1565 119.816 11.8674C119.421 12.5702 119.224 13.3832 119.224 14.3066V26.0735H116.312Z"></path>
<path fill="#581660" d="M110.487 18.376V7.24657H113.399V26.0735H110.487V22.8867H110.29C109.846 23.8427 109.155 24.6558 108.217 25.3258C107.279 25.9877 106.095 26.3186 104.663 26.3186C103.479 26.3186 102.426 26.0612 101.505 25.5464C100.583 25.0235 99.8595 24.239 99.333 23.1931C98.8066 22.139 98.5433 20.8111 98.5433 19.2095V7.24657H101.455V19.0134C101.455 20.3862 101.842 21.4812 102.615 22.2983C103.397 23.1155 104.392 23.524 105.601 23.524C106.325 23.524 107.061 23.3402 107.81 22.9725C108.567 22.6047 109.2 22.0409 109.71 21.281C110.228 20.521 110.487 19.5527 110.487 18.376Z"></path>
<path fill="#581660" d="M95.6314 0.97094V26.0735H92.7194V0.97094H95.6314Z"></path>
<path fill="#581660" d="M86.8952 18.376V7.24657H89.8072V26.0735H86.8952V22.8867H86.6978C86.2536 23.8427 85.5626 24.6558 84.6249 25.3258C83.6871 25.9877 82.5026 26.3186 81.0712 26.3186C79.8867 26.3186 78.8338 26.0612 77.9124 25.5464C76.9911 25.0235 76.2672 24.239 75.7408 23.1931C75.2143 22.139 74.9511 20.8111 74.9511 19.2095V7.24657H77.8631V19.0134C77.8631 20.3862 78.2497 21.4812 79.0229 22.2983C79.8044 23.1155 80.7998 23.524 82.009 23.524C82.7329 23.524 83.4691 23.3402 84.2177 22.9725C84.9745 22.6047 85.6079 22.0409 86.1179 21.281C86.6361 20.521 86.8952 19.5527 86.8952 18.376Z"></path>
<path fill="#581660" d="M63.3525 26.4658C61.7731 26.4658 60.3788 26.0694 59.1696 25.2768C57.9603 24.476 57.0143 23.3484 56.3316 21.8938C55.6488 20.4312 55.3074 18.7029 55.3074 16.7091C55.3074 14.7316 55.6488 13.0156 56.3316 11.5611C57.0143 10.1066 57.9644 8.98301 59.1819 8.19038C60.3993 7.39776 61.806 7.00144 63.4018 7.00144C64.6357 7.00144 65.6105 7.20573 66.3262 7.6143C67.0501 8.0147 67.6012 8.4723 67.9796 8.9871C68.3662 9.49372 68.6665 9.91047 68.8804 10.2373H69.1271V0.97094H72.0391V26.0735H69.2258V23.1808H68.8804C68.6665 23.524 68.3621 23.9571 67.9673 24.4801C67.5724 24.9949 67.0089 25.4566 66.2768 25.8652C65.5447 26.2656 64.5699 26.4658 63.3525 26.4658ZM63.7473 23.8672C64.9154 23.8672 65.9025 23.5649 66.7087 22.9602C67.5148 22.3474 68.1277 21.5016 68.5472 20.423C68.9667 19.3362 69.1765 18.0819 69.1765 16.6601C69.1765 15.2546 68.9708 14.0248 68.5595 12.9707C68.1482 11.9084 67.5395 11.0831 66.7334 10.4947C65.9272 9.89821 64.9319 9.59995 63.7473 9.59995C62.5134 9.59995 61.4852 9.91455 60.6626 10.5438C59.8482 11.1648 59.2354 12.0105 58.8241 13.081C58.421 14.1433 58.2195 15.3363 58.2195 16.6601C58.2195 18.0002 58.4251 19.2177 58.8364 20.3127C59.2559 21.3995 59.8729 22.2656 60.6873 22.9112C61.5099 23.5486 62.5299 23.8672 63.7473 23.8672Z"></path>
<path fill="#581660" d="M40.6243 14.7479V26.0735H37.7123V7.24651H40.5256V10.1882H40.7724C41.2166 9.23217 41.8911 8.46406 42.796 7.88389C43.7008 7.29554 44.8689 7.00137 46.3003 7.00137C47.5835 7.00137 48.7064 7.26286 49.6688 7.78583C50.6312 8.30063 51.3798 9.08508 51.9145 10.1392C52.4492 11.1851 52.7165 12.5089 52.7165 14.1105V26.0735H49.8045V14.3066C49.8045 12.8276 49.4179 11.6754 48.6447 10.8501C47.8714 10.0166 46.8103 9.59988 45.4612 9.59988C44.5317 9.59988 43.7008 9.80008 42.9687 10.2005C42.2448 10.6009 41.6731 11.1851 41.2536 11.9532C40.8341 12.7214 40.6243 13.6529 40.6243 14.7479Z"></path>
<path fill="#581660" d="M27.1667 26.4657C25.3405 26.4657 23.7652 26.0653 22.4408 25.2645C21.1247 24.4555 20.1088 23.3279 19.3931 21.8815C18.6857 20.427 18.3319 18.7355 18.3319 16.8071C18.3319 14.8786 18.6857 13.179 19.3931 11.7081C20.1088 10.2291 21.1041 9.07691 22.3791 8.2516C23.6624 7.41811 25.1595 7.00137 26.8705 7.00137C27.8577 7.00137 28.8324 7.1648 29.7949 7.49166C30.7573 7.81851 31.6334 8.34966 32.4231 9.08508C33.2128 9.81234 33.8421 10.7766 34.311 11.9778C34.7798 13.179 35.0143 14.658 35.0143 16.4148V17.6406H20.4049V15.1401H32.0529C32.0529 14.0778 31.8391 13.1299 31.4113 12.2964C30.9918 11.463 30.3913 10.8052 29.6098 10.3231C28.8366 9.84094 27.9235 9.59988 26.8705 9.59988C25.7107 9.59988 24.7071 9.88588 23.8598 10.4579C23.0208 11.0217 22.375 11.7571 21.9226 12.6642C21.4702 13.5712 21.244 14.5436 21.244 15.5814V17.2483C21.244 18.6701 21.4907 19.8754 21.9843 20.8642C22.4861 21.8447 23.1812 22.5924 24.0696 23.1072C24.958 23.6139 25.9904 23.8672 27.1667 23.8672C27.9317 23.8672 28.6227 23.7609 29.2396 23.5485C29.8648 23.3279 30.4036 23.001 30.856 22.5679C31.3085 22.1267 31.6581 21.5792 31.9049 20.9255L34.7182 21.7099C34.422 22.6578 33.9243 23.4913 33.2251 24.2104C32.5259 24.9213 31.6622 25.4769 30.6339 25.8773C29.6057 26.2696 28.4499 26.4657 27.1667 26.4657Z"></path>
<path fill="#581660" d="M0.10733 26.0735V0.97094H8.64592C10.6284 0.97094 12.2489 1.3264 13.5075 2.03731C14.7743 2.74005 15.7121 3.69202 16.3208 4.89322C16.9295 6.09442 17.2339 7.43453 17.2339 8.91355C17.2339 10.3926 16.9295 11.7368 16.3208 12.9461C15.7203 14.1555 14.7907 15.1197 13.5322 15.8388C12.2736 16.5497 10.6613 16.9052 8.69528 16.9052H2.57513V14.2086H8.59657C9.95386 14.2086 11.0438 13.9757 11.8664 13.51C12.689 13.0442 13.2854 12.415 13.6556 11.6224C14.034 10.8216 14.2232 9.91864 14.2232 8.91355C14.2232 7.90847 14.034 7.00961 13.6556 6.21699C13.2854 5.42436 12.6849 4.80333 11.8541 4.35391C11.0232 3.89631 9.92095 3.66751 8.54721 3.66751H3.1674V26.0735H0.10733Z"></path>
<path fill="#581660" d="M144.931 11.5488V8.89892H146.274C146.382 8.89892 146.499 8.93003 146.626 8.99227C146.753 9.05211 146.86 9.14547 146.949 9.27234C147.04 9.39681 147.085 9.5548 147.085 9.7463C147.085 9.94019 147.039 10.1054 146.945 10.2418C146.852 10.3758 146.738 10.4776 146.604 10.547C146.473 10.6164 146.348 10.6511 146.231 10.6511H145.261V10.2203H146.051C146.13 10.2203 146.215 10.1808 146.306 10.1018C146.4 10.0228 146.446 9.90428 146.446 9.7463C146.446 9.58352 146.4 9.47341 146.306 9.41596C146.215 9.35851 146.135 9.32979 146.066 9.32979H145.513V11.5488H144.931ZM146.532 10.2992L147.193 11.5488H146.554L145.908 10.2992H146.532ZM145.936 13.1286C145.539 13.1286 145.167 13.0544 144.82 12.906C144.473 12.7576 144.167 12.5517 143.904 12.2884C143.641 12.0251 143.435 11.7199 143.287 11.3728C143.138 11.0257 143.064 10.6535 143.064 10.2562C143.064 9.8588 143.138 9.48658 143.287 9.13949C143.435 8.7924 143.641 8.48719 143.904 8.22388C144.167 7.96057 144.473 7.75471 144.82 7.6063C145.167 7.45789 145.539 7.38368 145.936 7.38368C146.334 7.38368 146.706 7.45789 147.053 7.6063C147.4 7.75471 147.705 7.96057 147.969 8.22388C148.232 8.48719 148.438 8.7924 148.586 9.13949C148.735 9.48658 148.809 9.8588 148.809 10.2562C148.809 10.6535 148.735 11.0257 148.586 11.3728C148.438 11.7199 148.232 12.0251 147.969 12.2884C147.705 12.5517 147.4 12.7576 147.053 12.906C146.706 13.0544 146.334 13.1286 145.936 13.1286ZM145.936 12.4392C146.339 12.4392 146.705 12.3411 147.035 12.1448C147.366 11.9485 147.629 11.6852 147.825 11.3549C148.021 11.0245 148.12 10.6583 148.12 10.2562C148.12 9.85401 148.021 9.48777 147.825 9.15744C147.629 8.8271 147.366 8.56379 147.035 8.36751C146.705 8.17122 146.339 8.07308 145.936 8.07308C145.534 8.07308 145.168 8.17122 144.838 8.36751C144.507 8.56379 144.244 8.8271 144.048 9.15744C143.852 9.48777 143.753 9.85401 143.753 10.2562C143.753 10.6583 143.852 11.0245 144.048 11.3549C144.244 11.6852 144.507 11.9485 144.838 12.1448C145.168 12.3411 145.534 12.4392 145.936 12.4392Z"></path>
</svg>
