<svg width="47" height="46" viewBox="0 0 47 46" fill="none" xmlns="http://www.w3.org/2000/svg">
<path d="M40.9166 8.53817C38.5962 5.58549 35.572 3.26218 32.121 1.78134C28.6699 0.300496 24.9024 -0.2906 21.1637 0.0621001C17.2304 0.30811 13.442 1.63861 10.2186 3.90609C7.08401 5.98179 4.51419 8.80362 2.73962 12.118C0.965042 15.4324 0.0412916 19.1356 0.0516268 22.8951C-0.0483732 26.9131 0.0257343 35.724 0.0367343 36.106C0.0493032 36.3464 0.113003 36.5812 0.223502 36.795C0.334001 37.0088 0.488818 37.1966 0.677603 37.3458C0.866389 37.495 1.08472 37.6023 1.31823 37.6605C1.55174 37.7186 1.79488 37.7264 2.03161 37.6832C2.41849 37.6105 2.76631 37.401 3.01159 37.0931C3.25687 36.7852 3.38343 36.3995 3.36779 36.0062C3.36477 36.0395 3.36477 36.0728 3.36779 36.106C3.36779 36.106 3.36765 36.091 3.37365 36.054C3.37924 35.8344 3.42872 35.6184 3.51891 35.4181C3.6091 35.2178 3.73832 35.0373 3.89904 34.8875C4.05976 34.7378 4.24878 34.6216 4.45495 34.5457C4.66112 34.4699 4.88027 34.436 5.09972 34.4459C5.31917 34.4558 5.53428 34.5095 5.73278 34.6036C5.93127 34.6977 6.10916 34.8304 6.25573 34.994C6.4023 35.1576 6.51476 35.3489 6.58654 35.5565C6.65831 35.7641 6.68792 35.984 6.6737 36.2032C6.6737 39.9242 6.6738 41.7422 6.6798 44.1092C6.67341 44.3851 6.71257 44.6601 6.79577 44.9232C6.92837 45.2818 7.18144 45.5833 7.51183 45.7757C7.84223 45.9682 8.22942 46.0397 8.6068 45.9781C9.0048 45.906 9.36351 45.693 9.6173 45.378C9.87109 45.0631 10.0028 44.6675 9.98864 44.2633C9.99364 40.7903 9.9646 30.0461 10.0006 24.3941C10.0006 23.9121 10.0166 23.4943 10.0226 22.9513C10.0404 21.2182 10.4003 19.5057 11.0814 17.912C11.7625 16.3182 12.7514 14.8746 13.9916 13.6639C15.2317 12.4532 16.6988 11.4991 18.3085 10.8565C19.9181 10.2139 21.6387 9.8955 23.3717 9.91928C25.668 9.97796 27.9075 10.6449 29.8617 11.8521C29.9537 11.9071 30.0437 11.9641 30.1317 12.0211C30.2197 12.0781 30.2898 12.1211 30.3688 12.1771C30.5238 12.2831 30.6777 12.3922 30.8277 12.5042C30.9027 12.5612 30.9786 12.6161 31.0516 12.6751C31.2776 12.8491 31.4978 13.0328 31.7118 13.2262C31.7648 13.2722 31.8177 13.3203 31.8697 13.3683C31.9217 13.4163 31.9868 13.4761 32.0448 13.5321C32.1028 13.5881 32.1746 13.6573 32.2396 13.7213C32.3546 13.8353 32.4678 13.9511 32.5778 14.0711C32.6878 14.1911 32.7778 14.2931 32.8778 14.4071C32.9308 14.4661 32.9778 14.5282 33.0358 14.5882C33.1038 14.6692 33.1717 14.752 33.2357 14.835C34.6594 16.6175 35.5922 18.7414 35.9418 20.9957C36.2913 23.25 36.0452 25.5563 35.2281 27.6861C34.411 29.816 33.0514 31.6952 31.2838 33.1373C29.5162 34.5794 27.4023 35.5342 25.1517 35.9071C24.4985 36.0094 23.8378 36.0579 23.1766 36.0521H19.2438C18.9569 36.0465 18.6716 36.0982 18.4049 36.2042C18.1382 36.3101 17.8954 36.4683 17.6905 36.6693C17.4857 36.8702 17.3228 37.11 17.2118 37.3746C17.1007 37.6392 17.0438 37.9231 17.0438 38.21V43.8302C17.0438 44.4025 17.2709 44.9513 17.6756 45.356C18.0804 45.7607 18.6294 45.9881 19.2018 45.9881H23.0148C24.4974 45.9922 25.9769 45.8557 27.4337 45.5802C32.5091 44.5963 37.1041 41.9284 40.4747 38.0084C43.8454 34.0884 45.7945 29.1456 46.0067 23.9801C46.329 18.3736 44.5095 12.8541 40.9166 8.53817Z" fill="#0B1636"/>
<path d="M23.0176 17.032C21.435 17.032 19.9174 17.6608 18.7983 18.7798C17.6793 19.8988 17.0505 21.4165 17.0505 22.999V26.7742C17.0505 27.0622 17.1073 27.3474 17.2175 27.6135C17.3278 27.8797 17.4896 28.1215 17.6934 28.3252C17.8971 28.5288 18.1388 28.6904 18.405 28.8005C18.6712 28.9107 18.9566 28.9672 19.2446 28.967H23.0176C24.5869 28.9467 26.085 28.3091 27.1875 27.1921C28.29 26.0752 28.9082 24.5689 28.9082 22.9995C28.9082 21.4301 28.29 19.9238 27.1875 18.8069C26.085 17.69 24.5869 17.0523 23.0176 17.032Z" fill="#0B1636"/>
</svg>
