<svg width="135" height="76" viewBox="0 0 135 76" fill="none" xmlns="http://www.w3.org/2000/svg">
<g clip-path="url(#clip0_4_418)">
<path d="M10.4 52.5C10.4 54.1 9 55.4001 7.3 55.4001C5.6 55.4001 4.2 54.1 4.2 52.5V23.6C4.2 22 5.6 20.7001 7.3 20.7001C9 20.7001 10.4 22 10.4 23.6V52.5ZM8.7 17.3C6.9 17.3 5.3 18.0001 4.2 19.2001V17.6H0V76H4.1V57C5.2 58.2 6.8 58.9001 8.6 58.9001C12.2 58.9001 14.5 56.8001 14.5 53.4001V22.8C14.5 19.4 12.3 17.3 8.7 17.3Z" fill="black"/>
<path d="M130.9 17.6001V52.5001C130.9 54.1001 129.5 55.4001 127.8 55.4001C126.1 55.4001 124.7 54.1001 124.7 52.5001V17.6001H120.6V53.3001C120.6 56.7001 122.8 58.8001 126.5 58.8001C128.3 58.8001 129.9 58.1001 131 56.9001V76.0001H135.1V17.6001H130.9Z" fill="black"/>
<path d="M78.3 52.5001C78.3 54.1001 76.9 55.4001 75.2 55.4001C73.5 55.4001 72.1 54.1001 72.1 52.5001V23.6001C72.1 22.0001 73.5 20.7001 75.2 20.7001C76.9 20.7001 78.3 22.0001 78.3 23.6001V52.5001ZM76.6 17.3001C74.8 17.3001 73.2 18.0001 72.1 19.2001V0.100098H68V58.5001H72.1V57.0001C73.2 58.2001 74.8 58.9001 76.6 58.9001C80.2 58.9001 82.5 56.8001 82.5 53.4001V22.8001C82.5 19.4001 80.2 17.3001 76.6 17.3001Z" fill="black"/>
<path d="M116.7 17.3C114.9 17.3 113.3 18.0001 112.2 19.2001V17.6H108.1V58.5H112.2V23.6C112.2 22 113.6 20.7001 115.3 20.7001C116.1 20.7001 116.7 20.8 117.4 21V17.3C117.2 17.3 116.9 17.3 116.7 17.3Z" fill="black"/>
<path d="M57.6001 40.7001C58.4001 41.2001 58.9001 42.1 58.9001 43V52.8C58.9001 54.3 57.6001 55.5 56.1001 55.5C54.6001 55.5 53.3001 54.3 53.3001 52.8V43.5H49.2001V52.3C49.2001 55.9 52.3001 58.9001 56.1001 58.9001C59.9001 58.9001 63.0001 56 63.0001 52.3V43C63.0001 40.8 61.9001 38.7001 59.8001 37.4001L54.0001 33.9001C53.2001 33.4001 52.7001 32.5 52.7001 31.6V23.4C52.7001 21.9 54.0001 20.7001 55.5001 20.7001C57.0001 20.7001 58.3001 21.9 58.3001 23.4V31.9H62.4001V23.9C62.4001 20.3 59.3001 17.3 55.5001 17.3C51.7001 17.3 48.6001 20.2 48.6001 23.9V31.6C48.6001 33.8001 49.7001 35.9001 51.8001 37.2001L57.6001 40.7001Z" fill="black"/>
<path d="M98.4 17.6001V52.5001C98.4 54.1001 97 55.4001 95.3 55.4001C93.6 55.4001 92.2 54.1001 92.2 52.5001V17.6001H88V53.3001C88 56.7001 90.2 58.8001 93.9 58.8001C95.7 58.8001 97.3 58.1001 98.4 56.9001V58.5001H102.5V17.6001H98.4Z" fill="black"/>
<path d="M33.7999 0.100098H29.7V58.5001H33.7999V0.100098Z" fill="black"/>
<path d="M43.6 0.100098H39.5V58.6001H43.6V0.100098Z" fill="black"/>
<path d="M24.2 17.8H20V58.4001H24.2V17.8Z" fill="black"/>
</g>
<defs>
<clipPath id="clip0_4_418">
<rect width="135" height="76" fill="white"/>
</clipPath>
</defs>
</svg>
