<svg width="462" height="142" viewBox="0 0 462 142" fill="none" xmlns="http://www.w3.org/2000/svg">
<g clip-path="url(#clip0_10_765)">
<path d="M381.355 33.0295C385.875 32.7033 401.081 33.141 405.372 34.1285C408.445 34.8597 411.391 36.0554 414.101 37.6742C419.237 40.745 423.16 45.8189 424.242 51.7974C426.743 65.6297 426.112 80.3946 425.808 94.3992C425.625 96.565 425.822 98.9637 425.598 101.111C425.292 104.077 426.006 109.331 422.335 110.194C419.598 110.813 416.727 110.352 414.322 108.905C413.376 106.273 413.047 104.209 412.52 101.466C406.886 105.799 401.074 109.255 393.724 109.873C383.73 110.713 372.693 110.875 362.784 108.891C360.567 108.447 356.982 106.273 355.186 104.813C350.413 100.936 349.167 95.3253 348.624 89.5159C348.574 88.5641 348.532 87.6118 348.498 86.6595C348.27 80.4273 348.842 72.6416 353.417 67.8997C358.904 62.2114 364.346 61.422 371.791 60.7646C385.555 59.5488 399.36 60.5247 413.121 60.0564C412.792 56.553 411.988 50.7962 408.946 48.5559C401.735 43.2454 387.223 44.4323 378.497 44.7361C375.122 44.8536 366.973 45.6898 365.04 48.3094C364.215 49.4293 362.825 51.5882 361.851 52.7632C360.357 54.4568 358.447 55.5358 356.198 55.7008C354.057 55.9237 349.8 54.7392 349.958 51.968C350.88 35.732 369.042 33.4359 381.355 33.0295ZM395.472 98.1908C400.374 97.6309 406.719 94.9027 409.928 91.0619C413.829 86.3922 412.93 77.7498 412.849 71.6483C401.6 71.5951 388.685 71.3046 377.553 71.7747C373.089 72.027 366.264 72.0784 363.149 75.574C359.247 79.9575 359.763 96.9761 366.773 98.0069C374.784 99.185 385.555 98.9736 393.764 98.3603C394.334 98.3204 394.905 98.2638 395.472 98.1908Z" fill="#2B2B2B"/>
<path d="M265.178 32.7627C266.138 32.8042 267.199 32.9018 268.091 33.2541C272.497 34.9914 271.555 39.2334 272.61 41.6384C272.722 41.7276 272.853 41.8302 272.999 41.946C274.173 41.4137 277.725 37.785 278.732 37.3218C282.73 35.4828 289.143 33.7463 293.397 33.4398C303.664 32.7007 319.557 31.9542 327.859 38.9052C333.598 43.7109 336.129 47.5176 336.683 54.9695C337.375 64.2511 337.37 73.4601 337.47 82.7467C337.472 90.0227 337.792 97.358 337.382 104.62C337.19 108.028 336.156 110.042 332.535 110.302C330.815 110.425 328.406 110.208 326.955 109.174C326.336 108.734 325.934 107.31 325.849 106.566C325.315 100.341 325.407 93.9697 325.403 87.7449C325.391 78.8027 325.227 69.8614 324.907 60.9249C324.654 58.0732 324.134 54.6992 323.009 52.0661C321.804 49.2347 319.812 47.4464 316.966 46.3208C309.511 43.3717 287.949 44.2699 280.643 47.4437C277.797 48.6798 274.065 51.1314 272.824 54.1199C271.828 56.5164 272.256 61.682 272.233 64.4291L272.001 88.8748C271.965 93.8006 272.136 105.543 270.514 109.687C270.365 109.728 270.216 109.765 270.065 109.799C268.062 110.243 263.195 110.994 261.951 109.724C259.177 106.893 259.619 95.8001 259.567 92.3747L259.377 73.1905L259.533 52.1489C259.578 47.5589 259.519 42.9935 259.927 38.4154C260.25 34.8179 261.712 33.4224 265.178 32.7627Z" fill="#2B2B2B"/>
<path d="M107.183 45.8769C109.029 44.5128 110.865 42.8113 112.587 41.2676C118.99 35.5285 136.22 30.1433 143.926 34.2823C145.719 37.5361 145.275 39.8446 144.012 43.0969C139.611 44.2796 137.518 43.9818 133.326 44.4477C126.356 45.2222 117.52 48.0606 112.539 53.2499C108.745 57.2018 107.739 59.8657 107.733 65.0269C107.653 73.0176 107.318 81.3501 107.112 89.36C106.96 95.2855 106.949 104.155 105.763 109.631C101.821 110.624 100.357 110.688 96.4575 109.121C95.2238 106.351 95.1129 102.236 95.0617 99.22C94.7992 83.7389 94.918 68.2381 94.8301 52.754C94.7967 46.8741 94.7505 40.8916 94.9322 35.0268C96.5238 34.1818 98.2672 33.5671 99.9539 32.9259C100.42 32.8842 100.888 32.8693 101.356 32.881C108.254 33.0825 107.378 40.9432 107.183 45.8769Z" fill="#2B2B2B"/>
<path d="M233.042 32.9592C235.309 32.7239 240.327 33.534 240.561 36.4333C241.15 43.7253 240.895 51.3834 240.893 58.7406L240.839 89.1527C240.794 94.548 240.816 100.091 240.438 105.479C240.327 107.042 239.768 107.972 238.977 109.303C237.963 109.731 236.997 109.923 235.928 110.169C233.166 110.642 231.859 110.054 229.378 108.923C228.918 105.957 228.792 102.513 228.758 99.486C228.535 78.9528 228.74 58.4104 228.643 37.8763C228.63 34.7137 230.486 33.9733 233.042 32.9592Z" fill="#2B2B2B"/>
<path d="M154.496 32.9421C156.176 32.8312 158.132 32.8001 159.578 33.8123C160.556 34.4973 160.833 35.316 161.017 36.4315C162.029 42.5848 162.269 107.199 160.744 109.232C160.014 110.205 157.731 110.23 156.586 110.365C155.197 110.475 153.458 110.479 152.176 109.879C151.49 109.557 151.087 109.144 150.835 108.432C150.024 106.141 149.914 103.345 149.772 100.938C149.307 93.0146 148.651 39.3096 150.613 35.4645C151.402 33.9185 152.95 33.4202 154.496 32.9421Z" fill="#2B2B2B"/>
<path d="M1.63382 34.4918C4.9022 32.3037 8.59954 31.6112 11.1112 35.3125C12.4382 37.268 12.3798 39.4692 13.1579 41.5778C17.7951 36.2871 28.7151 33.3073 35.7753 33.171C47.1178 32.9519 61.5005 31.7388 70.7476 39.5475C80.4569 47.4679 79.682 59.3977 79.618 70.7207C79.5842 76.7143 80.118 85.7899 78.7164 91.5754C76.3812 101.213 66.7672 109.301 56.8413 109.647C50.2954 109.875 44.0836 110.022 37.635 110.13L12.2243 110.613C12.3184 114.964 12.8951 138.402 11.0382 140.454C10.1148 141.474 7.75714 141.762 6.44879 142H0V38.6398L1.63382 34.4918ZM12.2042 98.9298C17.9124 99.1131 23.7323 99.0107 29.4515 98.9386C32.7061 98.8974 36.9705 99.0195 40.0824 98.8162C45.9569 98.6125 58.8962 99.1473 62.7119 94.8195C63.9531 93.4119 65.8442 90.2802 66.1752 88.374C67.5881 80.2359 66.9592 70.4138 66.8738 62.1631C66.8319 58.1339 66.1096 51.6006 63.1498 48.9517C58.0257 44.366 46.3262 43.8728 39.8873 44.2064C39.6191 44.2215 39.3517 44.2436 39.0846 44.2727C32.4136 44.7075 19.9608 46.1365 15.0222 51.0866C11.943 54.173 12.3738 67.6179 12.2926 72.2088C12.1356 81.0759 12.5302 90.0697 12.2042 98.9298Z" fill="#2B2B2B"/>
<path d="M232.165 0H237.296C239.768 1.72196 243.216 3.00409 244.124 6.05055C246.211 13.0482 236.05 18.8539 230.225 14.9959C227.117 12.9383 226.459 13.1243 225.213 9.62052C224.883 10.801 224.412 11.857 223.937 12.9815C216.928 14.8786 204.956 13.0685 199.471 18.1453C196.278 21.0996 196.726 28.4888 196.794 32.7763C201.023 32.9891 217.193 31.9849 219.696 34.2055C220.712 35.1065 220.998 36.3763 221.051 37.6737C221.116 39.2718 221.168 41.4158 219.981 42.6509C217.852 44.8661 200.318 44.1906 196.799 44.2084C196.639 56.4207 196.851 68.712 196.765 80.9492C196.71 88.9044 196.902 97.3507 195.904 105.264C195.671 107.11 195.39 107.991 194.364 109.521C192.652 109.905 190.794 110.27 189.04 110.3C187.731 110.322 186.154 110.133 185.188 109.144C182.287 106.176 183.229 51.8643 183.225 44.4171C179.883 43.9116 175.179 44.8127 172.397 42.6343C170.424 41.0736 170.609 36.2864 172.224 34.5957C174.462 32.2516 179.822 32.8924 182.936 32.7296C184.098 26.1203 183.747 20.0696 187.272 14.0567C192.111 5.45591 202.348 3.40189 211.399 2.90295C215.9 2.65486 220.034 1.69983 224.228 4.11881L225.22 7.21716C226.516 2.26826 228.708 2.40627 232.165 0Z" fill="#2B2B2B"/>
<path d="M153.219 0H158.618C160.691 1.74758 162.868 1.93746 164.578 4.56167C168.548 10.6569 160.11 17.8443 154.232 16.0958C151.71 15.3456 148.208 13.4453 146.832 11.0361C146.081 9.69287 145.895 8.10586 146.315 6.62527C147.21 3.35949 150.485 1.58215 153.219 0Z" fill="#2B2B2B"/>
</g>
<defs>
<clipPath id="clip0_10_765">
<rect width="461.5" height="142" fill="white"/>
</clipPath>
</defs>
</svg>
