<svg width="277" height="277" viewBox="0 0 277 277" fill="none" xmlns="http://www.w3.org/2000/svg">
<path d="M0 0H276.498L276.559 177.703C276.557 209.713 277.355 245.248 276.54 277H0V0ZM125.416 164.948C125.475 171.044 125.509 177.1 125.547 183.239C125.581 188.618 125.111 195.065 121.009 199.086C116.491 203.514 109.876 203.594 103.972 203.985C103.466 204.699 103.028 205.32 102.657 205.845C103.031 208.645 105.858 209.307 108.392 209.186C129.075 208.187 151.72 210.2 172.197 208.903L173.079 208.009C171.086 197.924 154.486 208.102 151.744 192.761C150.043 183.249 150.802 174.821 150.877 165.349C214.348 161.155 209.519 132.806 210.688 83.4129C210.935 72.9473 226.493 76.8015 226.48 69.9931C222.46 64.8398 201.168 69.1187 195.407 72.4228C166.802 94.7611 209.974 154.773 150.849 159.203C150.818 147.546 148.243 88.5733 154.485 82.107C159.256 77.1636 169.83 78.476 172.29 76.6828C172.501 76.5289 172.648 75.4612 172.637 75.204C172.596 74.1994 172.312 73.1246 172.103 72.1397C167.929 70.6653 111.981 71.6587 103.491 71.6394C103.483 72.7246 103.394 75.8064 103.51 76.7261C109.299 77.4266 117.792 77.5556 121.731 82.4617C128.346 90.7036 125.092 145.541 125.503 159.26C116.514 158.161 103.689 156.557 98.6931 148.454C78.0849 115.026 115.407 63.0639 50.8174 68.4885L49.89 69.2946C49.8472 70.6652 49.5894 72.787 50.2381 73.8872C54.5986 74.4815 59.7644 73.8337 62.7001 77.6582C77.2602 96.6246 44.09 154.645 110.894 164.051C115.727 164.731 120.531 165.106 125.416 164.948Z" fill="white"/>
</svg>
