<svg width="24" height="18" viewBox="0 0 24 18" fill="none" xmlns="http://www.w3.org/2000/svg">
<path d="M2.878 4.99C2.878 3.01 1.875 1.374 0 0H4.358C5.12623 0.585117 5.74868 1.34003 6.17666 2.2057C6.60464 3.07137 6.82654 4.02432 6.825 4.99C6.82654 5.95568 6.60464 6.90863 6.17666 7.7743C5.74868 8.63997 5.12623 9.39488 4.358 9.98C5.773 10.57 6.578 12.01 6.578 14.071V17.998H2.632V14.071C2.632 12.108 1.695 10.734 0.001 9.981C1.876 8.606 2.879 6.971 2.879 4.991L2.878 4.99ZM11.43 4.99C11.43 3.01 10.427 1.374 8.552 0H12.911C13.6791 0.58522 14.3013 1.34018 14.7291 2.20585C15.1569 3.07151 15.3787 4.0244 15.377 4.99C15.3787 5.9556 15.1569 6.90849 14.7291 7.77415C14.3013 8.63982 13.6791 9.39478 12.911 9.98C14.325 10.57 15.131 12.01 15.131 14.071V17.998H11.184V14.071C11.184 12.108 10.246 10.734 8.552 9.981C10.427 8.606 11.43 6.971 11.43 4.991V4.99ZM19.984 4.99C19.984 3.01 18.981 1.374 17.106 0H21.464C22.2322 0.585117 22.8547 1.34003 23.2827 2.2057C23.7106 3.07137 23.9325 4.02432 23.931 4.99C23.9325 5.95568 23.7106 6.90863 23.2827 7.7743C22.8547 8.63997 22.2322 9.39488 21.464 9.98C22.879 10.57 23.684 12.01 23.684 14.071V17.998H19.737V14.071C19.737 12.108 18.8 10.734 17.106 9.981C18.981 8.606 19.984 6.971 19.984 4.991V4.99Z" fill="black"/>
</svg>
