<svg width="122" height="125" viewBox="0 0 122 125" fill="none" xmlns="http://www.w3.org/2000/svg">
<path opacity="0.93" d="M26.6257 112.006L23.1818 109.348L19.7857 106.395L16.5372 103.146L15.0607 101.522L13.627 99.8069L10.3356 95.6159L7.1276 90.1146L4.79449 84.7671L2.96133 79.4196L0.294922 67.3877V59.8678L1.29483 50.1755L4.79449 38.6103L10.294 28.1171L16.7933 19.7616L26.1258 11.5733L33.4584 7.06132L41.9576 3.88625L51.0432 1.04539L58.9559 0.376953H68.955L80.6205 2.88359L71.9547 11.5733L66.2886 17.4221C66.2886 17.4221 56.0172 16.6422 49.7902 18.4247C37.466 21.9526 29.5065 28.3629 23.3659 38.6103C17.3506 48.6103 16.4529 62.9171 19.2931 74.2392C22.1916 85.9999 39.1245 99.8069 39.1245 99.8069L32.7795 105.952L26.6257 112.006Z" fill="#2F3047"/>
<path d="M78.241 5.69336C82.3207 7.04693 84.6572 7.83122 88.5939 9.61393L77.9082 20.1638C73.7277 18.6399 70.8974 17.9227 66.4453 17.3175C70.4445 13.7694 74.3235 9.40585 78.241 5.69336Z" fill="#342755"/>
<path opacity="0.45" d="M14.2612 100.494C11.5842 97.9419 8.94557 93.5536 5.91664 88.2986C0.886196 76.7818 -2.27644 55.3104 2.88979 43.2022C7.90908 27.7202 18.8721 14.3446 33.3599 6.87442C47.8476 -0.595556 66.3387 -2.13734 81.2008 3.03479C80.2854 3.90507 78.543 5.54479 77.657 6.43071L72.489 11.5987L66.446 17.3574H66.2874C60.6343 16.8971 55.9101 17.186 50.2851 18.5434C38.6818 21.431 28.929 29.046 22.7759 39.2776C16.7484 49.2623 13.0443 61.4453 13.0446 75.7123C13.0447 84.3887 14.2612 100.494 14.2612 100.494Z" fill="#523384"/>
<path opacity="0.95" d="M33.4116 6.96271C18.914 14.4221 7.96201 27.281 2.93932 42.7406C1.08127 48.4972 0.10681 54.4394 0 60.3763C0.00059577 70.373 1.47116 72.2715 3.24846 80.7687L7.33812 67.374C8.84204 61.8758 15.0248 46.5475 15.0248 46.5475L20.3766 36.051C26.5338 25.8341 39.6794 17.6082 51.2904 14.7247C56.9192 13.3692 63.5232 14.4316 69.1802 14.8913L74.3604 9.72632L78.0992 6.00319C78.9952 5.10645 80.2955 3.93056 81.2115 3.06154C65.543 -2.04115 48.0985 -0.492837 33.4116 6.96271Z" fill="#8D3AEB"/>
<path opacity="0.93" d="M95.0432 12.9941L98.4871 15.6519L101.883 18.6051L105.132 21.8535L106.608 23.4778L108.042 25.1931L111.333 29.3841L114.541 34.8854L116.874 40.2329L118.708 45.5804L121.374 57.6123V65.1322L120.374 74.8245L116.874 86.3897L111.375 96.8829L104.876 105.238L95.5432 113.427L88.2106 117.939L79.7114 121.114L70.6258 123.955L62.713 124.623H52.714L41.0484 122.116L49.7143 113.427L55.3804 107.578C55.3804 107.578 65.6517 108.358 71.8788 106.575C84.203 103.047 92.1624 96.6371 98.303 86.3897C104.318 76.3897 105.216 62.0829 102.376 50.7608C99.4774 39.0001 82.5444 25.1931 82.5444 25.1931L88.8894 19.0481L95.0432 12.9941Z" fill="#32314E"/>
<path opacity="0.95" d="M88.2283 118.172C102.739 110.699 113.701 97.8169 118.728 82.3289C120.588 76.5618 121.563 70.6088 121.67 64.6609C121.669 54.6459 120.285 52.8098 118.507 44.2971L114.325 57.6504C112.82 63.1587 106.632 78.515 106.632 78.515L101.275 89.0308C95.1123 99.2664 81.955 107.507 70.3335 110.396C64.6996 111.754 58.7686 110.857 53.1066 110.396C48.7504 109.8 45.6567 108.558 41.5662 107.058L33.3708 115.273C37.2227 117.029 39.5089 117.801 43.5007 119.134C42.6039 120.032 41.6823 120.984 40.7655 121.855C56.4481 126.967 73.5283 125.642 88.2283 118.172Z" fill="#8D3AEB"/>
<path opacity="0.45" d="M107.409 24.5065C110.086 27.0581 112.809 31.451 115.616 36.9143C121.973 49.2877 123.947 69.6896 118.78 81.7978C113.761 97.2798 102.798 110.655 88.3103 118.126C73.8225 125.596 55.3314 127.137 40.4693 121.965C41.3847 121.095 43.1158 119.75 44.0017 118.864L49.1697 113.548L55.076 107.938L55.3827 107.643C61.0359 108.103 65.7601 107.814 71.3851 106.457C82.9883 103.569 92.7412 95.954 98.8943 85.7224C104.922 75.7377 108.626 63.5547 108.626 49.2877C108.625 40.6113 107.409 24.5065 107.409 24.5065Z" fill="#716A99"/>
<path opacity="0.95" d="M88.2583 118.037C102.756 110.578 113.708 97.719 118.731 82.2594C120.589 76.5028 121.563 70.5606 121.67 64.6237C121.669 57.3493 121.129 53.9549 120.046 49.6127C119.64 47.9878 119.307 46.5119 118.509 44.2971L114.332 57.626C112.828 63.1242 106.645 78.4525 106.645 78.4525L101.293 88.949C95.1361 99.1659 81.9906 107.392 70.3795 110.275C64.7507 111.631 58.1467 110.568 52.4897 110.109L47.3096 115.274L43.5708 118.997C42.6747 119.894 41.3744 121.069 40.4584 121.938C56.1269 127.041 73.5714 125.493 88.2583 118.037Z" fill="#8D3AEB"/>
<path d="M43.428 119.307C39.3483 117.953 37.0117 117.169 33.075 115.386L43.7607 104.836C47.9413 106.36 50.7716 107.077 55.2236 107.682C51.2245 111.231 47.3454 115.594 43.428 119.307Z" fill="#342755"/>
</svg>
