<svg width="108" height="32" viewBox="0 0 108 32" fill="none" xmlns="http://www.w3.org/2000/svg">
<path d="M64.772 13.7449C66.325 5.77489 72.81 -0.080107 79.337 1.18789C85.925 2.46789 89.701 10.2149 88.127 18.2939C86.553 26.3729 80.002 32.2779 73.529 31.0139C67.109 29.7669 63.197 21.8239 64.772 13.7449ZM71.965 15.1509C70.412 23.1209 70.865 29.0639 73.795 29.6359C76.727 30.2079 79.435 24.8749 80.983 16.9049C82.53 8.93489 82.16 3.17689 79.065 2.57689C75.97 1.97689 73.491 7.29489 71.965 15.1509Z" fill="black"/>
<path d="M97.132 4.25197C97.132 5.48397 97.084 6.87697 97.024 7.56397C97.024 7.57397 97.0273 7.58331 97.034 7.59197C97.054 7.61197 97.086 7.60297 97.094 7.57697C98.071 4.26797 101.037 0.982973 103.562 0.982973C105.42 0.982973 107 2.78697 107 5.15597C107 7.52597 105.534 8.87697 104.014 8.87697C101.981 8.87697 101.028 6.45297 99.557 6.45297C98.597 6.45297 97.867 7.35697 97.132 8.59297V25.45C97.132 27.523 98.025 29.203 99.362 30.33C99.3705 30.3368 99.3772 30.3455 99.3817 30.3554C99.3862 30.3653 99.3884 30.3761 99.388 30.387V31.107C99.388 31.148 99.355 31.181 99.315 31.181H88.127C88.1076 31.181 88.0891 31.1733 88.0754 31.1596C88.0617 31.1459 88.054 31.1273 88.054 31.108V30.388C88.054 30.3653 88.0633 30.3463 88.082 30.331C89.532 29.203 90.424 27.523 90.424 25.45V9.49797C90.424 6.87097 89.759 5.57397 88.093 4.67097C88.0808 4.66517 88.0705 4.65594 88.0634 4.6444C88.0563 4.63287 88.0527 4.61952 88.053 4.60597V4.55297C88.053 4.51297 88.085 4.47997 88.125 4.47897C91.26 4.40197 95.031 2.78897 96.942 0.835973C96.9487 0.828896 96.9567 0.823285 96.9657 0.819497C96.9746 0.815709 96.9843 0.813828 96.994 0.813973H97.059C97.099 0.813973 97.132 0.846973 97.132 0.887973V4.25197Z" fill="black"/>
<path fill-rule="evenodd" clip-rule="evenodd" d="M42.3359 1.91089C42.328 1.91089 42.3203 1.91405 42.3147 1.91968C42.3091 1.9253 42.3059 1.93293 42.3059 1.94089L42.3229 2.19389C42.3229 2.22089 42.3369 2.24589 42.3609 2.25889C43.7029 2.99989 44.6109 4.62689 45.9599 8.12289L54.7559 31.1039C54.7669 31.1319 54.7949 31.1509 54.8259 31.1509H55.5199C55.5499 31.1509 55.5779 31.1319 55.5889 31.1029L63.9289 8.51289H63.9339L63.9399 8.49989L63.9519 8.46989C65.0179 5.49089 66.4159 3.01189 67.7089 2.25889C67.7202 2.2526 67.7296 2.24329 67.736 2.23199C67.7423 2.22069 67.7454 2.20784 67.7449 2.19489L67.7289 1.93989C67.7286 1.93211 67.7254 1.92473 67.7198 1.91932C67.7142 1.91391 67.7067 1.91088 67.6989 1.91089H42.3359ZM60.7619 10.4879L56.8179 21.2579C56.7639 21.4039 56.5509 21.3939 56.5119 21.2439L56.5029 21.2039C56.0719 19.4689 55.5749 17.7509 55.0779 16.0319C54.8249 15.1569 54.5719 14.2819 54.3269 13.4029C53.9573 12.0927 53.6212 10.7733 53.3189 9.44589L53.2649 9.20189C52.7459 6.89789 52.1579 4.28489 55.2039 3.18689C55.9473 2.92506 56.7349 2.81224 57.5219 2.85489L57.6819 2.86189C58.6879 2.90389 59.7849 2.94989 60.5399 3.68889C60.9169 4.05889 61.1869 4.52189 61.3569 5.02089C61.4619 5.32489 61.5299 5.64189 61.5639 5.95689C61.7189 7.46189 61.2769 9.08389 60.7619 10.4879Z" fill="black"/>
<path d="M21.0101 21.478C21.0101 27.426 16.4071 31.074 10.1811 31.074C7.56411 31.074 4.49711 30.689 1.05111 29.584C1.04186 29.581 1.0333 29.5763 1.02591 29.57C1.01853 29.5637 1.01247 29.556 1.00809 29.5473C1.00372 29.5387 1.00111 29.5292 1.00043 29.5195C0.999742 29.5099 1.00099 29.5002 1.00411 29.491L4.04711 21.136C4.05181 21.1217 4.06096 21.1094 4.0732 21.1008C4.08544 21.0921 4.10013 21.0876 4.11511 21.088H4.17811C4.21011 21.088 4.23811 21.11 4.24811 21.141C5.87611 26.717 8.61911 29.448 12.0301 29.448C14.8341 29.448 16.5201 27.708 16.5201 25.127C16.5201 21.982 13.2071 20.692 9.84511 19.125C6.36311 17.445 2.77411 15.309 2.77411 10.147C2.77411 4.98696 7.09611 0.886963 13.2121 0.886963C15.2121 0.886963 17.3691 1.16296 19.4241 1.65596C19.4641 1.66596 19.4881 1.70596 19.4771 1.74596L17.3801 9.08096C17.3762 9.09646 17.3672 9.11016 17.3545 9.1198C17.3417 9.12944 17.3261 9.13444 17.3101 9.13396H17.2551C17.2384 9.13449 17.2221 9.12904 17.2091 9.11858C17.1961 9.10813 17.1872 9.09337 17.1841 9.07696C16.2201 5.07096 13.8171 2.51396 11.1341 2.51396C8.72111 2.51396 7.14911 4.47696 7.14911 6.72096C7.14911 9.91996 10.7991 11.096 14.3341 12.836C17.6471 14.463 21.0101 16.539 21.0101 21.478ZM45.8161 28.23C45.8209 28.241 45.8227 28.253 45.8215 28.2649C45.8202 28.2768 45.816 28.2882 45.8091 28.298C44.6231 30.02 42.1141 31.128 39.9961 31.128C37.5281 31.128 35.3381 29.784 35.3921 26.471H35.3381C32.7021 29.502 30.0071 31.074 27.4261 31.074C24.5081 31.074 21.9261 28.662 21.9261 24.677C21.9261 19.906 26.3631 15.591 35.5661 14.018C35.6201 10.483 35.6791 7.23096 35.6791 5.26796C35.6791 3.47396 34.9471 2.40596 33.7701 2.40596C30.1801 2.40596 30.0671 11.324 25.7451 11.324C24.1721 11.324 22.9951 10.088 22.9951 8.29396C22.9901 4.03096 28.8251 0.940963 34.0471 0.940963C39.2691 0.940963 42.2951 3.18496 42.2951 7.44696C42.2951 12.272 42.0131 20.632 42.0131 25.739C42.0131 27.647 42.7991 28.601 43.9761 28.601C44.5101 28.601 45.0981 28.398 45.6411 28.035C45.6502 28.0288 45.6606 28.0247 45.6714 28.023C45.6823 28.0214 45.6934 28.0221 45.704 28.0253C45.7145 28.0285 45.7242 28.0339 45.7323 28.0413C45.7405 28.0487 45.7469 28.0578 45.7511 28.068L45.8161 28.23ZM28.8251 23.05C28.8251 25.853 29.8331 27.371 31.5751 27.371C32.6971 27.371 33.9871 26.921 35.3921 25.691C35.3921 22.661 35.4461 18.675 35.5601 14.973C30.0611 16.095 28.8251 19.683 28.8251 23.05Z" fill="black"/>
</svg>
