<svg width="336" height="338" viewBox="0 0 336 338" fill="none" xmlns="http://www.w3.org/2000/svg">
<path d="M250.36 205.55L125.75 253.39C97.2299 264.34 67.5799 271.67 37.3799 275.26C47.5799 287.71 59.5299 298.66 72.8599 307.76C86.3699 304.44 99.6899 300.28 112.74 295.27L237.35 247.43C265.6 236.59 295.1 230.28 325.23 228.61C330.02 216.06 333.36 202.8 335.03 189.02H328.69C301.83 190.35 275.52 195.89 250.36 205.55Z" fill="#096ED3"/>
<path d="M192.16 189.02H0.5C2.73 207.35 7.89 224.78 15.52 240.81H16.02C49.13 238.61 81.67 231.44 112.74 219.51L192.16 189.02Z" fill="#096ED3"/>
<path d="M250.36 281.31L125.75 329.15C124.42 329.66 123.07 330.15 121.73 330.65C136.36 334.8 151.8 337.02 167.76 337.02C223.99 337.02 273.78 309.47 304.39 267.15C285.96 269.86 267.88 274.59 250.36 281.32V281.31Z" fill="#096ED3"/>
<path d="M327.9 152.73C330.43 152.61 332.97 152.53 335.51 152.47C327.43 66.93 255.42 0 167.77 0C80.12 0 7.96 67.06 0 152.73H327.9Z" fill="#096ED3"/>
</svg>
