<svg width="89" height="24" viewBox="0 0 89 24" fill="none" xmlns="http://www.w3.org/2000/svg">
<path d="M81.1197 22.7684V9.66136H78.4121V6.92303H81.1812V0.000282288H87.4578V2.76938H84.2272V6.92303H88.227V9.66136H84.2272V22.7684H81.1197Z" fill="#030712"/>
<path d="M71.1568 22.7684V9.66136H68.4492V6.92303H71.2183V0.000282288H77.4949V2.76938H74.2643V6.92303H78.2641V9.66136H74.2643V22.7684H71.1568Z" fill="#030712"/>
<path d="M59.8937 23.0448C55.0324 23.0448 51.5557 19.5988 51.5557 14.8606C51.5557 10.1223 55.0632 6.64556 59.8937 6.64556C64.7243 6.64556 68.2318 10.1223 68.2318 14.8606C68.2318 19.568 64.755 23.0448 59.8937 23.0448ZM54.6632 14.8606C54.6632 17.9989 56.9708 20.2141 59.8937 20.2141C62.8474 20.2141 65.1243 17.9989 65.1243 14.8606C65.1243 11.7222 62.8474 9.50696 59.8937 9.50696C56.94 9.50696 54.6632 11.7222 54.6632 14.8606Z" fill="#030712"/>
<path d="M44.3666 23.0448C40.3052 23.0448 38.213 20.6757 37.5977 18.7681L40.1821 17.4758C40.5514 18.7373 41.9974 20.3065 44.4281 20.3065C46.5203 20.3065 47.7203 19.4757 47.7203 18.3065C47.7203 17.3835 47.0741 16.7066 45.7204 16.4297L42.6436 15.8451C40.1821 15.3528 38.4592 13.9375 38.4592 11.353C38.4592 8.6147 40.9513 6.64556 44.4896 6.64556C48.4279 6.64556 50.1509 8.86084 50.7047 10.5531L48.151 11.7838C47.9049 10.6146 46.6434 9.32236 44.4589 9.32236C42.582 9.32236 41.4436 10.1839 41.4436 11.2915C41.4436 12.3068 42.1821 12.8606 43.3205 13.076L46.5511 13.7221C49.3817 14.276 50.8586 16.0297 50.8586 18.2142C50.8586 21.0756 48.3048 23.0448 44.3666 23.0448Z" fill="#030712"/>
<path d="M2.19087 18.5962C3.54839 15.2476 6.80079 13.0567 10.414 13.0567H19.7715L15.3349 24.0003H0L2.19087 18.5962Z" fill="#030712"/>
<path d="M13.085 13.0563H16.5188L19.0609 6.78583C17.5242 10.5762 17.175 13.0563 13.085 13.0563Z" fill="#030712"/>
<path d="M23.2031 13.0567H19.7693L17.2272 19.3272C18.7639 15.5368 19.1131 13.0567 23.2031 13.0567Z" fill="#030712"/>
<path d="M20.9581 2.1131H36.293L34.1021 7.51725C32.7446 10.8658 29.4922 13.0568 25.879 13.0568H16.5215L20.9581 2.1131Z" fill="#030712"/>
</svg>
