<svg width="400" height="400" viewBox="0 0 400 400" fill="none" xmlns="http://www.w3.org/2000/svg">
<path d="M146.479 63.757C148.06 61.1338 156.813 61.9123 159.836 61.906L183.072 61.8935L230.187 61.8933C238.54 61.8923 248.228 61.6275 256.467 62.0088C258.337 63.3983 260.242 65.4488 261.967 67.089C265.572 70.4875 269.142 73.924 272.675 77.3975L288.807 92.9163C291.372 95.378 293.97 97.8075 296.507 100.297C297.325 101.1 297.577 101.434 297.687 102.571C297.945 105.216 297.787 107.943 297.777 110.602L297.75 126.726V149.418C297.75 152.972 297.917 159.131 297.487 162.549L261.467 162.567C256.455 162.577 246.942 162.958 242.424 162.446C240.384 168.167 237.6 166.142 233.514 165.674C231.233 165.412 223.935 164.084 222.007 164.303L221.874 164.641C222.874 165.832 226.564 168.822 228.056 169.331C230.704 169.039 234.408 169.308 237.217 169.255C245.175 169.103 253.325 169.428 261.262 169.225C265.67 172.783 274.67 182.39 279.09 186.801L291.407 199.052C293.35 200.974 296.035 203.408 297.777 205.379C298.075 211.144 297.787 219.067 297.785 225.035L297.755 263.705L297.76 292.53C297.762 296.838 297.775 301.233 297.8 305.545C297.805 306.46 297.595 306.673 296.867 307.393C294.467 309.775 291.96 312.143 289.507 314.473C285.177 318.568 280.87 322.69 276.587 326.838C272.077 331.28 267.527 335.685 262.94 340.048C260.752 342.11 259.152 343.858 256.755 345.7C253.982 346.085 250.04 345.938 247.139 345.93L231.681 345.903H177.956C169.897 345.9 156.053 345.493 148.372 346.198C138.522 336.378 128.126 326.988 118.312 317.153C115.448 314.283 109.436 309.073 107.134 306.258C106.934 303.24 107.112 300.148 107.147 297.113L107.175 284.548C107.176 279.735 106.722 252.658 107.609 250.5C112.735 249.905 119.483 250.125 124.79 250.148L149.563 250.095C153.382 250.1 159.04 250.348 162.683 250.178C163.553 248.999 166.961 247.376 168.422 246.54C164.855 246.884 159.188 248.833 159.426 242.949C156.187 243.188 146.127 243.684 143.222 243.051C137.295 237.447 131.251 231.103 125.425 225.286L115.313 215.139C112.701 212.515 108.684 208.958 106.992 205.913C107.414 203.619 107.086 199.691 107.037 197.173C106.997 193.509 106.98 189.846 106.987 186.182L106.992 127.298L106.973 111.415C106.969 108.383 106.792 103.96 107.307 101.122C110.107 98.2335 115.034 93.7608 118.066 91.0065L136.467 73.3445C139.695 70.2373 143.073 66.6485 146.479 63.757Z" fill="#8E1515"/>
<path d="M228.056 169.331C230.704 169.038 234.408 169.308 237.217 169.255C245.175 169.103 253.325 169.428 261.263 169.225C265.67 172.783 274.67 182.39 279.09 186.8L291.408 199.052C293.35 200.974 296.035 203.408 297.777 205.379C298.075 211.144 297.788 219.067 297.785 225.035L297.755 263.705L297.76 292.53C297.763 296.837 297.775 301.232 297.8 305.545C297.805 306.46 297.595 306.672 296.867 307.392C294.467 309.775 291.96 312.142 289.508 314.472C285.178 318.567 280.87 322.69 276.587 326.837C272.077 331.28 267.528 335.685 262.94 340.047C260.753 342.11 259.153 343.857 256.755 345.7C253.983 346.085 250.04 345.937 247.139 345.93L231.681 345.902H177.956C169.897 345.9 156.053 345.492 148.373 346.197C138.522 336.377 128.127 326.987 118.312 317.152C115.448 314.282 109.437 309.072 107.134 306.257C106.934 303.24 107.112 300.147 107.148 297.112L107.175 284.547C107.177 279.735 106.722 252.657 107.61 250.5C112.735 249.904 119.483 250.125 124.79 250.147L149.564 250.095C153.383 250.1 159.04 250.347 162.683 250.177C162.542 250.745 162.432 251.51 162.021 251.937C161.452 252.527 113.801 252.245 109.002 252.245C108.718 255.51 108.842 259.745 108.848 263.072L108.879 280.99L108.838 295.785C108.828 298.76 108.689 302.52 109.06 305.392C110.371 307.125 113.345 309.787 115.055 311.407C117.968 314.172 120.865 316.952 123.745 319.75L140.348 335.752C142.48 337.8 146.957 342.327 149.152 343.97C152.614 344.3 159.682 344.082 163.406 344.077L190.723 344.055L231.666 344.062C239.094 344.07 247.616 344.302 254.95 343.98L294.938 305.52C295.15 301.26 295.015 296.1 295.013 291.74L295.008 267.24C295.01 247.042 295.285 226.197 294.967 206.05C291.015 201.853 286.465 197.491 282.358 193.382L260.307 171.378C253.612 170.801 246.101 171.576 239.343 171.299C236.842 171.196 229.084 171.976 228.056 169.331Z" fill="#FEFDFE"/>
<path d="M146.479 63.757C148.06 61.1338 156.813 61.9123 159.836 61.906L183.072 61.8935L230.187 61.8933C238.54 61.8923 248.228 61.6275 256.467 62.0088C258.337 63.3983 260.242 65.4488 261.967 67.089C265.572 70.4875 269.142 73.924 272.675 77.3975L288.807 92.9163C291.372 95.378 293.97 97.8075 296.507 100.297C297.325 101.1 297.577 101.434 297.687 102.571C297.945 105.216 297.787 107.943 297.777 110.602L297.75 126.726V149.418C297.75 152.972 297.917 159.131 297.487 162.549L261.467 162.567C256.455 162.577 246.942 162.958 242.424 162.446C242.282 161.303 242.103 161.379 242.524 160.526C243.888 159.942 289.882 160.304 295.15 160.131C294.76 154.437 295.005 145.829 295.002 139.956L294.99 102.301C282.192 89.4305 267.952 76.2458 254.817 63.6038C247.251 63.3805 238.501 63.5815 230.848 63.582L184.316 63.5838L162.894 63.5655C159.165 63.5578 152.015 63.3108 148.621 64.0155L146.552 65.7483C146.282 65.5675 146.205 65.463 145.973 65.2345C146.289 64.6355 146.358 64.424 146.479 63.757Z" fill="#FEFDFE"/>
<path d="M118.066 91.0063L136.467 73.3443C139.695 70.2371 143.073 66.6483 146.479 63.7568C146.358 64.4238 146.289 64.6353 145.973 65.2343C146.205 65.4628 146.282 65.5673 146.552 65.7481C143.608 69.1546 138.621 73.6541 135.22 76.8868L118.982 92.4136C116.289 95.0298 111.164 99.6448 109.046 102.246C108.634 108.628 108.89 116.919 108.9 123.478L108.913 159.523L108.897 189.06C108.888 194.24 108.606 200.893 109.06 205.861C110.154 207.489 113.51 210.636 115.02 212.137L125.169 222.278L136.56 233.687C138.504 235.639 141.862 239.256 143.988 240.721C146.122 240.771 158.332 240.638 159.409 241.152C159.597 241.96 159.536 242.104 159.426 242.949C156.187 243.188 146.127 243.684 143.222 243.051C137.295 237.447 131.251 231.103 125.425 225.286L115.313 215.139C112.701 212.515 108.684 208.958 106.992 205.912C107.414 203.619 107.086 199.691 107.037 197.173C106.997 193.509 106.98 189.845 106.987 186.182L106.992 127.298L106.973 111.415C106.969 108.382 106.792 103.96 107.307 101.121C110.107 98.2333 115.034 93.7606 118.066 91.0063Z" fill="#FEFDFE"/>
<path d="M151.282 68.5778C184.846 68.6283 218.982 68.2481 252.495 68.6271C255.87 71.5556 259.438 75.2758 262.75 78.3853C271.863 86.9371 280.685 95.9023 289.888 104.348L289.89 155.251C272.328 155.273 254.533 155.402 236.986 155.201C237.502 156.066 238.136 156.847 238.725 157.662C239.628 158.911 240.592 160.443 240.221 162.061C240.064 162.748 239.863 163.294 239.195 163.609C237.513 164.405 224.951 162.435 222.665 161.92C220.318 161.39 218.035 160.607 215.754 159.849C217.023 162.456 218.72 164.831 220.775 166.877C222.782 168.867 225.131 170.413 227.498 171.934C229.648 173.317 231.946 174.951 234.401 175.722C238.219 176.92 252.785 176.26 257.735 176.262C261.593 179.642 266.308 184.633 270.028 188.35L289.918 208.288L289.885 271.137C289.875 281.817 290.063 292.84 289.908 303.475C286.93 305.77 280.98 311.842 278.048 314.655C270.403 321.915 262.808 329.23 255.27 336.602L252.645 338.99C248.632 339.147 243.797 339.005 239.706 339.002L214.64 338.992L151.229 338.977C138.706 327.362 126.418 314.965 113.993 303.187L113.928 257.37C120.176 257.117 127.246 257.26 133.553 257.26L166.623 257.267C158.715 250.215 169.755 249.584 174.15 248.177C175.877 247.622 177.487 246.755 178.9 245.619C180.039 244.693 181.131 243.603 181.296 242.107C180.957 241.234 181.235 241.559 180.453 241.082C177.987 240.803 175.454 242.677 173.138 243.299C163.136 245.984 158.174 247.115 164.516 235.721C159.228 236.013 151.407 235.745 145.928 235.73C135.181 225.293 124.758 214.27 114.007 203.826C113.699 194.441 114.027 184.022 113.954 174.548C113.773 151.234 114.179 127.77 113.919 104.461C126.243 92.4376 139.02 80.6723 151.282 68.5778Z" fill="#FEFDFE"/>
<path d="M152.854 73.3973C156.114 73.1333 161.433 73.2821 164.838 73.2813L186.948 73.2846L251.135 73.3163C262.045 84.4738 274.515 95.2781 285.477 106.447C285.792 120.7 285.462 136.378 285.455 150.777C270.39 150.608 255.3 150.829 240.232 150.756C237.482 150.742 234.78 150.776 232.029 150.657C228.822 148.474 225.359 145.981 221.81 144.353C220.269 143.646 216.051 142.475 215.185 141.282C216.508 138.562 227.725 143.563 227.979 138.007C228.244 132.208 212.976 130.822 213.672 125.984C214.163 125.621 214.041 125.574 214.699 125.675C220.026 126.489 222.709 124.367 218.16 119.907C216.515 118.296 214.307 116.777 212.326 115.312C220.871 111.832 210.89 107.453 207.793 103.576C217.249 96.9068 208.762 97.9601 206.698 95.7928C207.174 94.5581 209.072 93.6948 209.46 92.3733C210.099 89.6646 207.124 90.1008 206.188 89.3466C204.116 87.6753 203.552 82.1231 203.074 79.5453L200.278 79.8143C198.765 85.0438 199.119 90.5086 193.346 92.3828C191.008 93.1421 196.438 97.1988 197.079 97.7001C195.189 99.6443 188.358 103.638 188.113 106.34C187.9 108.686 192.687 108.596 194.565 108.579C191.825 109.838 183.072 114.053 183.232 118.488C183.325 121.089 188.685 119.669 189.961 120.645C190.358 125.12 176.192 126.234 177.258 132.36C179.279 135.769 188.934 132.145 191.748 133.249L191.949 133.713C191.539 134.79 190.109 135.728 189.154 136.374C183.637 139.418 162.609 149.418 163.194 156.792C164.483 159.597 168.56 157.59 170.69 157.546C174.507 157.469 177.513 157.591 181.282 156.641C183.055 156.195 185.964 153.816 186.824 154.162C186.844 154.248 186.863 154.335 186.882 154.421C185.005 163.248 174.865 166.018 168.683 171.077C164.622 174.399 162.967 179.919 162.389 184.923C162.128 187.182 161.165 190.83 163.198 192.334C165.586 193.016 166.827 190.45 168.701 188.883C172.725 185.519 176.609 187.101 181.236 185.858C182.725 185.459 185.503 183.847 186.999 183.076C186.485 184.128 184.525 187.913 183.054 188.548C179.571 190.051 161.269 199.236 175.498 200.552C177.914 200.775 180.648 200.301 183.004 199.541C183.961 199.232 187.632 197.228 188.233 197.23C188.576 197.781 188.562 197.743 188.413 198.514C188.335 198.917 187.643 200.784 187.435 201.009C183.256 205.518 177.611 208.22 172.446 211.382C169.59 213.131 165.493 217.15 164.574 220.493C164.471 221.086 164.657 221.596 165.044 222.012C166.754 223.85 169.578 221.515 171.594 221.599C175.066 221.744 178.188 222.597 181.774 222.69C181.619 224.172 181.46 225.177 181.17 226.639C179.279 228.703 173.827 230.752 171.051 231.178C168.373 231.588 164.764 231.446 161.97 231.436L147.899 231.356C140.875 224.929 134.26 217.526 127.348 210.943C124.423 208.157 121.081 204.844 118.417 201.827L118.432 141.023C118.36 129.411 118.389 117.798 118.519 106.187C122.449 102.441 151.63 73.8996 152.854 73.3973Z" fill="#8E1515"/>
<path d="M200.869 85.2766C201.052 84.4554 201.237 83.5174 201.447 82.7144C201.681 83.6066 202.191 85.3274 202.345 86.1669C203.347 90.0786 203.584 90.9019 207.629 91.9631C206.55 92.8654 204.945 93.9036 204.743 95.3584C204.329 98.3429 208.328 98.7466 210.288 99.0134C209.1 100.247 207.07 101.898 205.719 103.182C208.219 108.445 210.192 107.953 213.985 111.839L214.263 112.127C212.624 113.155 210.729 113.955 210.142 115.734C210.66 117.745 213.764 118.433 215.535 120.139C217.224 121.766 217.478 121.922 218.826 123.952C216.583 123.788 211.195 122.982 211.35 126.546C211.603 132.342 225.151 133.58 225.624 137.845C223.398 140.502 213.163 136.366 212.172 140.77C212.628 143.703 219.262 145.257 221.68 146.497C226.608 149.025 231.254 152.342 235.031 156.412C236.1 157.564 238.259 159.976 238.347 161.572L238.014 161.895C236.565 162.02 234.685 161.518 233.231 161.345C228.396 160.77 223.643 160.439 219.044 158.701C217.894 158.266 216.405 157.897 215.2 157.56L214.811 157.871C212.533 162.986 219.952 169.182 223.56 171.726C227.551 174.538 231.815 176.112 235.18 179.921C238.104 183.229 238.954 187.815 239.395 192.084C239.436 192.521 239.296 192.506 238.942 192.807C236.172 193.214 223.705 187.234 220.064 186.396C218.567 185.408 214.326 186.496 214.923 188.804C217.45 198.587 227.713 197.513 234.129 205.714C232.702 205.553 231.411 205.159 229.91 205.176C227.125 205.182 224.091 205.896 221.342 205.355C219.308 204.956 215.935 202.46 213.899 203.505C210.552 208.503 226.87 216.682 230.036 218.577C235.682 221.958 237.851 226.66 239.363 232.882C237.925 232.311 235.941 230.864 234.591 230.573C232.285 230.075 229.481 230.585 227.186 229.672C225.667 229.067 223.104 226.33 221.645 226.278C219.123 227.228 219.969 233.261 222.309 234.753C228.444 238.666 237.322 239.377 239.96 247.346C240.119 247.825 239.827 248.033 239.568 248.355C235.649 249.559 228.019 245.159 223.957 244.646C222.034 244.404 219.598 246.443 220.138 248.011C222.965 256.21 230.938 255.105 237.057 258.228C239.495 260.753 234.178 263.703 234.719 265.98C235.658 269.933 240.085 270.813 242.793 273.438C246.513 277.045 247.962 283.613 248.797 288.603C248.918 289.33 248.868 289.995 248.391 290.543C247.038 290.753 245.011 289.465 243.902 288.763C238.463 285.32 233.084 280.868 226.355 280.583C223.402 280.458 220.979 281.133 218.022 280.593C215.58 280.145 211.907 277.4 209.78 277.608C209.6 277.793 209.449 277.95 209.331 278.185C208.18 280.47 208.5 303.975 208.853 308.093C209.075 310.603 209.586 313.08 210.374 315.475C212.292 321.275 218.297 323.9 222.25 327.095C226.611 330.62 226.447 331.765 232.021 334.585C212.047 334.738 191.758 334.33 171.816 334.67C178.58 330.03 179.333 326.205 184.2 320.183C188.034 315.44 192.877 314.37 194.031 307.223C195.518 298.008 194.749 289.113 194.964 279.828C195.006 277.963 195.323 268.028 194.167 267C191.38 266.45 188.342 270.795 185.767 272.2C182.477 274.118 178.611 273.52 175.02 274.195C169.84 275.233 165.065 277.95 160.764 280.92C159.364 281.888 156.969 285 155.551 284.273C154.374 281.813 155.98 277.675 156.653 275.288C158.034 269.698 161.654 266.338 166.793 264.028C178.948 258.56 157.359 252.798 171.037 251.015C172.221 250.863 174.685 250.198 175.773 249.79C177.698 249.074 179.447 247.953 180.9 246.503C182.391 245.029 184.572 241.443 182.286 239.794C178.958 237.395 173.892 241.375 170.293 242.107C167.684 242.637 165.956 242.852 163.262 243.063C165.75 235.688 170.497 234.018 177.267 231.284C183.52 228.759 183.745 226.579 183.528 220.386C176.727 220.775 172.319 218.709 166.557 220.851C169.905 213.907 174.932 212.354 181.125 208.585C184.601 206.47 193.131 200.607 189.679 195.582C187.027 193.952 183.338 198.138 179.9 198.512C176.945 198.834 175.028 198.413 172.12 198.085C177.06 191.774 183.032 193.005 187.34 186.812C188.45 185.217 188.733 183.5 188.312 181.597C186.114 179.617 182.557 183.783 180.775 183.977C171.698 184.968 170.269 184.105 163.88 190.981C163.891 187.766 164.282 184.564 165.043 181.44C168.006 169.432 176.974 170.141 184.76 162.217C187.099 159.837 190.764 154.347 187.589 151.326C185.778 150.903 183.58 153.579 182.037 154.249C178.191 155.921 173.901 155.32 169.861 155.499C168.21 155.572 167.199 156.839 165.501 156.314L165.308 155.746C166.18 151.315 178.193 144.666 182.157 142.35C185.152 140.6 193.49 137.425 193.857 133.542C193.92 132.869 193.694 132.201 193.237 131.704C192.869 131.297 191.976 130.729 191.453 130.794C186.926 131.351 183.394 131.942 178.772 131.853C182.15 127.838 184.946 127.532 189.337 125.119C191.344 124.093 193.016 120.569 191.241 118.748C190.311 117.793 186.114 118.241 184.799 118.264L184.895 118.127L185.058 117.9C187.31 114.719 189.839 112.917 193.392 111.5C194.918 110.892 197.732 109.967 197.016 107.929C195.082 106.309 190.783 106.804 190.095 105.835C191.071 104.393 196.368 102.384 199.371 97.6056C197.81 95.5114 196.862 95.0224 194.75 93.5836C199.832 92.0284 199.751 89.9321 200.869 85.2766Z" fill="#007561"/>
<path d="M200.869 85.2766C201.052 84.4554 201.237 83.5174 201.446 82.7144C201.68 83.6066 202.191 85.3274 202.344 86.1669C201.194 85.9899 201.592 86.2244 200.869 85.2766Z" fill="#25685C"/>
<path d="M238.637 180.692C243.718 180.969 250.695 180.723 256.035 180.774C265.57 189.625 276.173 200.799 285.465 210.094C285.663 220.335 285.485 231.179 285.485 241.46L285.465 301.16C283.77 303.2 280.813 305.86 278.848 307.745L267.618 318.518L257.44 328.33C255.55 330.163 252.875 332.913 250.865 334.46L247.525 334.505C240.591 334.583 234.296 334.57 228.376 329.99C226.824 328.858 224.83 326.223 223.316 325.255C217.334 321.433 212.833 319.108 211.336 311.493C210.399 306.725 210.671 301.918 210.681 296.94L210.69 279.29C211.908 280.1 214.259 281.658 215.567 282.013C223.283 284.105 225.205 280.54 233.351 284.558C237.328 286.533 243.336 291.44 247.171 292.418C254.825 294.005 248.304 278.7 247.19 275.908C245.522 271.728 239.163 269.355 236.741 266.163C236.467 264.585 239.28 262.48 239.679 260.765C240.981 255.155 233.957 254.96 230.337 254.04C227.286 253.263 224.361 251.755 222.752 248.953C222.298 248.162 222.241 247.929 222.458 247.079C224.425 245.642 227.962 247.943 230.118 248.772C232.224 249.561 234.423 250.078 236.661 250.308C238.363 250.5 240.561 250.84 241.924 249.744C242.825 248.113 241.696 246.212 240.965 244.667C238.06 238.518 230.586 236.893 225.068 234.028C223.56 233.246 221.199 231.218 222.272 229.358C223.136 229.428 224.909 230.995 226.563 231.488C229.042 232.318 231.798 232.054 234.335 232.624C236.539 233.119 238.234 235.622 240.622 234.341C241.918 232.223 240.22 228.752 239.488 226.665C235.917 216.485 224.333 214.752 217.275 207.855C216.683 207.277 216.096 206.735 216.079 205.863C217.643 205.898 221.073 207.472 222.797 207.678C224.449 207.746 226.214 207.451 227.873 207.285C230.322 207.04 234.317 208.511 235.599 205.726C235.579 198.503 214.898 194.813 217.067 188.309C218.619 187.503 221.77 189.148 223.363 189.714C236.721 194.459 246.258 201.454 238.637 180.692Z" fill="#8E1515"/>
<path d="M118.494 261.73C134.457 261.895 150.516 261.612 166.496 261.797C161.156 264.492 157.314 267.152 155.373 273.062C154.299 276.335 150.378 285.49 156.004 286.5C157.93 286.847 161.546 282.482 163.193 281.552C167.487 279.025 172.286 276.167 177.405 275.965C185.131 275.657 187.332 273.917 192.86 268.957C192.724 276.897 192.996 284.975 192.855 292.927C192.786 296.805 192.866 300.917 192.434 304.755C191.339 313.377 187.957 312.875 182.717 318.815C178.519 323.575 175.49 331.952 168.433 333.745C164.484 334.747 156.538 334.717 152.498 334.225C149.724 331.162 145.923 327.86 142.952 324.877C135.062 316.952 126.378 309.292 118.523 301.387C118.255 297.182 118.428 291.462 118.435 287.117L118.494 261.73Z" fill="#8E1515"/>
<path d="M281.913 186.131C284.208 186.331 282.368 186.376 284.308 187.783L284.238 188.026L283.978 188.058C282.988 187.597 282.615 186.981 281.913 186.131Z" fill="#0C090D" fill-opacity="0.0117647"/>
</svg>
