<svg width="88" height="20" viewBox="0 0 88 20" fill="none" xmlns="http://www.w3.org/2000/svg">
<path d="M0.243768 15.9998H11.4571C12.8222 15.9998 12.9197 15.1218 12.9197 14.634C12.9197 13.9511 12.5784 13.3657 11.3596 13.0242L3.41276 10.634C0.780059 9.85354 0 7.85356 0 5.02433C0 2.04876 1.31635 0 4.68035 0H17.1613V3.99995H6.67925C5.94795 3.99995 5.2654 4.29263 5.2654 5.31701C5.2654 6.09749 5.65543 6.63407 6.87427 7.02431L13.9923 9.07306C17.015 9.9511 18.1851 11.4145 18.1851 14.6828C18.1851 17.951 16.9663 19.9998 13.5535 19.9998H0.243768V15.9998Z" fill="black"/>
<path d="M26.279 19.9998C22.9638 19.9998 20.5748 18.6827 20.5748 14.9754V8.14624H18.4297V4.87799H20.5748V0H25.0602V4.87799H29.3993V8.14624H25.0602V13.3657C25.0602 15.6583 26.084 16.7315 28.5705 16.7315H29.3993V19.9998H26.279Z" fill="black"/>
<path d="M40.5602 4.87891C43.5829 4.87891 45.2893 6.8301 45.2893 9.65934V17.1227C45.2893 18.9763 44.2654 20.0007 42.4128 20.0007H33.8322C31.102 20.0007 30.0781 18.3909 30.0781 15.269C30.0781 12.391 31.102 10.5374 33.8322 10.5374H40.8039V9.90324C40.8039 8.68374 40.1214 8.09838 38.8538 8.09838H31.102V4.87891H40.5602ZM35.9773 13.6105C35.0998 13.6105 34.6122 14.1959 34.6122 15.269C34.6122 16.2446 35.0022 16.8788 35.9286 16.8788H39.7801C40.5114 16.8788 40.8039 16.5861 40.8039 15.8544V13.5617H35.9773V13.6105Z" fill="black"/>
<path d="M47.4375 10.8779C47.4375 6.43889 49.7777 4.87793 54.263 4.87793H57.2857V8.14618H55.4819C52.8492 8.14618 51.9228 9.5608 51.9228 12.1949V19.9997H47.4375V10.8779Z" fill="black"/>
<path d="M66.2087 19.9998C62.8935 19.9998 60.5045 18.6827 60.5045 14.9754V8.14624H58.3594V4.87799H60.5045V0H64.9899V4.87799H69.329V8.14624H64.9899V13.3657C64.9899 15.6583 66.0137 16.7315 68.5001 16.7315H69.329V19.9998H66.2087Z" fill="black"/>
<path d="M73.4708 19.9998C72.2032 19.9998 70.9844 19.0729 70.9844 16.9754C70.9844 15.7559 71.3256 14.4389 72.4957 13.7072L81.4177 8.29258C82.4902 7.65844 82.5877 6.82919 82.5877 5.99993C82.5877 4.43897 82.0515 3.99995 80.4426 3.99995H72.3007V0H83.0753C86.6343 0 87.8044 1.85364 87.8044 5.36579C87.8044 8.87794 87.0243 9.99988 84.9279 11.2194L77.8099 15.512C77.7124 15.5608 77.5174 15.7071 77.5174 15.8047C77.5174 15.9022 77.5661 15.9998 77.7124 15.9998H87.1706V19.9998H73.4708Z" fill="black"/>
</svg>
