<svg width="1536" height="984" viewBox="0 0 1536 984" fill="none" xmlns="http://www.w3.org/2000/svg">
<g clip-path="url(#clip0_6_733)">
<path d="M0 0H1536V984H0V0Z" fill="#002777"/>
<path d="M570.913 397.52C579.43 397.699 590.209 399.206 598.885 398.663C628.03 396.839 679.681 392.012 677.312 435.739C676.692 447.187 668.186 455.484 659.499 462.39C690.367 474.567 697.914 504.226 673.478 527.403C652.74 544.452 626.677 539.195 602.021 538.464C595.889 538.282 574.332 539.443 570.351 537.466C568.454 535.205 568.966 536.305 568.607 533.145C571.054 528.706 577.157 529.416 581.564 527.995C583.677 527.313 585.82 526.074 586.713 523.928C587.921 521.023 587.866 428.688 587.643 418.12C587.621 416.701 587.29 415.304 586.672 414.027C582.73 405.908 571.303 408.889 568.126 402.367C568.387 399.817 569.028 399.513 570.913 397.52Z" fill="#FEB516"/>
<path d="M610.958 467.97C631.634 467.943 660.942 468.577 662.51 496.114C663.089 506.301 660.939 512.524 654.224 520.231C647.822 526.048 640.301 528.558 631.707 528.731C626.467 528.838 617.48 528.637 613.628 524.358C609.416 519.679 610.99 476.762 610.958 467.97Z" fill="#002777"/>
<path d="M621.575 408.233C654.572 406.637 662.503 435.095 645.482 458.68C632.259 457.226 624.237 456.46 611.06 457.038C611.045 443.615 610.127 425.186 612.399 411.949C612.839 409.386 619.243 408.584 621.575 408.233Z" fill="#002777"/>
<path d="M246.377 398.291C260.311 397.603 275.049 399.245 289.148 398.258C293.411 397.959 302.657 397.513 305.282 400.976C305.421 401.94 305.534 402.686 305.193 403.625C303.188 409.133 295.404 406.983 290.921 409.276C288.914 410.303 288.235 411.362 287.638 413.499C286.154 418.807 286.595 483.81 287.741 491.848C288.651 498.232 290.546 504.519 294.036 509.987C298.728 517.338 305.834 521.885 314.307 523.702C324.997 525.995 338.277 524.839 347.556 518.67C355.969 513.077 360.527 503.873 362.468 494.185C363.784 487.613 365.06 415.633 362.988 412.047C359.331 405.719 348.836 409.722 344.774 403.628C344.717 401.429 344.646 401.294 345.747 399.481C350.49 397.048 367.124 398.762 374.135 398.527C380.782 398.231 391.494 396.161 395.903 401.332C396.732 407.547 385.137 408.401 380.166 409.54C375.933 413.507 377.468 428.384 377.331 434.321C376.83 453.096 378.467 472.842 376.745 491.463C373.345 528.218 343.001 545.229 308.497 540.351C284.87 537.011 268.398 522.052 264.518 498.173C262.958 488.575 263.432 478.188 263.402 468.561L263.318 429.923C263.321 426.746 263.7 414.451 262.766 412.566C259.305 405.59 249.647 410.087 245.081 404.026C244.601 401.417 245.229 400.702 246.377 398.291Z" fill="#FEB516"/>
<path d="M893.407 390.206L894.45 390.959C896.077 393.608 894.75 483.101 894.735 493.135C898.987 490.357 903.172 487.46 907.267 484.447C913.807 479.642 932.265 465.329 933.51 456.629C934.23 451.594 924.945 451.64 920.842 447.454C920.272 445.147 920.197 446.123 921.24 443.885C925.327 441.656 953.422 441.824 958.185 442.913C964.515 449.612 929.865 478.688 924.487 483.56C932.64 496.53 944.692 514.828 954.96 526.48C956.497 528.226 964.8 529.751 967.875 532.739C968.385 535.672 968.595 534.584 967.335 536.95C964.972 538.531 964.56 538.498 961.687 538.448C953.617 538.48 945.547 538.449 937.485 538.355C931.98 533.576 913.102 504.089 907.875 496.231C903.915 499.196 899.002 502.319 894.84 505.115C894.84 508.07 894.435 524.603 895.882 526.955C897.802 530.073 910.972 528.872 910.14 535.567C905.512 541.193 893.52 537.833 886.342 538.008C877.905 538.214 867.975 539.628 859.965 537.473C858.937 537.197 858.742 535.7 858.412 534.728C859.882 528.542 867.502 531.547 872.355 526.64C876.57 517.935 871.875 433.055 873.472 418.09C875.19 402.038 867.367 406.941 859.05 401.709C857.775 399.539 858.03 400.533 858.45 397.765C860.865 395.617 888.06 391.313 893.407 390.206Z" fill="#FEB516"/>
<path d="M466.89 396.255C481.726 393.786 511.809 398.037 522.679 409.123C525.205 411.7 525.431 431.982 520.96 435.159C511.902 434.724 511.615 414.564 494.57 410.019C481.234 405.78 465.649 406.019 452.978 412.492C411.706 433.578 415.05 514.498 461.932 527.21C475.715 530.947 488.29 529.302 500.403 522.809C511.177 515.488 511.991 509.727 518.518 499.039C520.842 497.747 519.818 497.98 522.393 498.061C527.209 501.247 526.044 520.031 522.716 523.545C513.037 532.939 497.17 538.194 483.925 540.172C414.851 550.486 374.717 480.365 413.696 424.705C425.559 407.764 446.36 398.838 466.89 396.255Z" fill="#FEB516"/>
<path d="M735.127 440.35C745.004 439.472 753.84 440.418 762.525 445.589C769.822 449.94 778.687 459.076 780.465 467.657C780.907 469.798 780.72 471.813 779.392 473.605C775.305 479.107 726.966 485.672 718.054 487.092C719.479 519.457 743.476 534.211 772.072 517.463C774.607 516.028 776.85 514.705 779.115 517.075C779.497 519.214 779.377 520.288 778.177 522.145C766.252 540.586 737.569 545.32 719.481 534.514C694.715 519.721 691.774 484.059 705.748 461.111C712.771 449.578 722.281 443.455 735.127 440.35Z" fill="#FEB516"/>
<path d="M738.464 450.123C740.771 450.013 745.375 450.539 747.264 451.785C774.195 469.552 749.369 471.36 735.916 474.022C730.546 475.265 724.123 476.365 718.639 477.451C721.07 464.313 724.546 453.787 738.464 450.123Z" fill="#002777"/>
<path d="M1137.84 440.373C1149.02 439.339 1155.65 440.439 1165.85 445.579C1173.04 449.204 1187.2 466.248 1182.57 474.022C1177.25 478.276 1130.72 485.607 1121.01 487.006C1122.94 519.575 1146.35 534.348 1175.24 517.422C1177.73 515.927 1179.62 514.833 1181.93 516.922C1182.29 518.992 1182.47 520.036 1181.24 521.989C1169.63 540.437 1140.86 545.238 1122.9 534.766C1098.14 520.622 1094.73 484.735 1108.4 461.75C1115.46 449.887 1124.65 443.737 1137.84 440.373Z" fill="#FEB516"/>
<path d="M1141.12 450.142C1143.04 450.062 1147.69 450.35 1149.28 451.341C1177.57 469.118 1153.35 471.16 1139.53 473.877C1134.33 475.179 1126.87 476.396 1121.46 477.448C1124.52 464.48 1127.03 454.168 1141.12 450.142Z" fill="#002777"/>
<path d="M1000.33 440.423C1008.36 439.621 1019.87 440.206 1026.97 444.394C1032.4 445.682 1052.12 468.382 1045.4 473.53C1038.12 479.095 991.703 485.855 983.918 487.14C985.53 519.094 1008.53 534.043 1037.16 517.861C1040.16 516.222 1041.96 514.839 1044.86 517.066C1045.17 519.064 1045.25 520.12 1044.07 521.986C1032.36 540.389 1003.71 545.275 985.673 534.766C961.043 520.417 957.72 485.509 970.778 462.479C977.648 450.352 987.143 443.927 1000.33 440.423Z" fill="#FEB516"/>
<path d="M1004.87 450.127C1013.03 450.251 1026.92 458.255 1024.32 467.123C1021.05 471.074 1009.04 472.598 1003.35 473.765L984.24 477.494C987.165 464.378 990.322 453.11 1004.87 450.127Z" fill="#002777"/>
<path d="M1228.09 442.106C1230.1 441.977 1232.77 442.814 1234 444.413L1233.55 446.231C1231.46 448.979 1223.82 453.028 1220.49 455.005C1217.83 462.206 1237.41 509.078 1241.62 519.968C1249.34 503.669 1260.21 476.557 1264.11 458.743C1265.57 452.078 1255.13 451.372 1251.88 447.304C1251.45 444.938 1251.38 445.907 1252.32 443.661C1256.14 441.317 1286.18 441.796 1290.1 444.502C1292.02 449.438 1284.54 451.304 1280.97 452.685C1277.18 457.858 1270.2 476.952 1267.45 483.864C1262.22 497.336 1256.71 510.704 1250.95 523.959C1244.08 539.709 1227.62 578.84 1211.94 585.587C1208.1 587.232 1203.76 587.223 1199.92 585.563C1197.6 584.531 1195.29 581.712 1194.84 579.363C1192.36 566.225 1209.04 567.663 1217.2 561.026C1224.46 555.124 1225.6 552.341 1229.96 544.961L1204.87 482.041C1202.97 477.257 1197.35 461.426 1195.36 458.411L1195.06 457.969C1191.85 453.116 1182.75 448.23 1183.52 443.738C1187.37 441.725 1220.53 442.439 1228.09 442.106Z" fill="#FEB516"/>
<path d="M1081.73 390.162C1083.79 391.02 1083.94 392.127 1083.93 394.265C1083.89 408.492 1082.14 523.901 1084.53 526.848C1087.5 530.498 1095.36 529.093 1099.06 533.202C1099.46 535.546 1099.49 534.632 1098.3 537.059C1094.67 539.013 1057.51 538.441 1050.56 538.631C1047.25 537.867 1047.2 536.944 1046.75 533.995C1049.44 527.468 1056.79 531.723 1061.17 526.85C1065.66 515.612 1059.98 438.452 1062.18 422.131C1064.38 405.812 1059.3 407.212 1047.85 401.473C1046.5 399.539 1046.76 400.487 1047.16 397.786C1049.83 395.576 1076.2 391.353 1081.73 390.162Z" fill="#FEB516"/>
<path d="M817.485 438.151C819.375 438.18 818.49 437.909 820.11 439.27C821.19 443.665 820.575 457.206 820.47 462.295C832.56 443.251 843.653 429.832 865.058 446.729C862.965 451.717 859.657 462.412 854.04 463.707C848.805 463.024 845.258 455.455 838.793 456.952C830.76 458.809 824.955 467.237 820.26 473.377C820.23 482.69 819.488 521.476 821.55 527.901C826.043 529.57 830.093 529.334 835.223 531.28C837.015 533.392 836.595 532.389 836.902 535.045C835.5 538.085 833.49 539.125 830.19 538.638C822.293 537.471 790.215 539.721 785.887 537.606C784.05 535.418 784.297 536.321 783.99 533.797C786.967 528.85 793.433 530.793 797.175 527.602C800.925 521.6 798.42 468.907 798.66 458.735C798.818 452.061 783.945 453.046 783.345 446.378C784.102 445.404 785.64 443.835 786.878 443.71C797.445 442.653 807.12 440.598 817.485 438.151Z" fill="#FEB516"/>
</g>
<defs>
<clipPath id="clip0_6_733">
<rect width="1536" height="984" fill="white"/>
</clipPath>
</defs>
</svg>
