<svg width="55" height="61" viewBox="0 0 55 61" fill="none" xmlns="http://www.w3.org/2000/svg">
<path d="M33.5836 36.3566C34.176 36.7107 35.3682 39.728 35.8636 40.6708C38.0594 44.8489 40.3507 48.4968 42.9723 52.4201C41.612 53.0654 40.2508 54.1118 38.6814 54.8625C37.8739 53.5362 34.2855 45.6575 33.2172 45.8419C32.3057 46.8525 30.9138 49.489 30.2759 50.7377C30.1805 50.9469 29.9626 51.3006 29.8375 51.4987C28.0985 54.2521 26.843 57.2344 25.3446 60.1138C23.9216 59.1929 22.6904 58.9474 21.2537 57.6591C21.7154 56.3325 25.6207 49.9522 26.6941 48.1989C28.7977 44.7626 30.7275 40.8162 32.7459 37.4776C32.9848 37.0753 33.2655 36.6994 33.5836 36.3566Z" fill="#F0E7DD"/>
<path d="M29.7637 0C30.5939 0.348548 33.3174 1.74197 33.6891 2.49201C33.1292 3.58648 32.5475 4.4968 31.9248 5.54205C28.5522 11.203 25.2232 16.8821 22.1091 22.6914C21.9465 22.9951 21.6754 23.3441 21.3408 23.4615C20.9013 23.2623 16.8605 15.3435 16.3083 14.3032C15.6052 13.3028 12.4863 8.57422 12.2994 7.68272C12.6742 6.88224 15.4626 5.55114 16.3447 5.14648C17.4074 7.53107 19.9149 12.3293 21.3982 14.532C23.2299 12.3702 26.0236 6.86642 27.3904 4.21815C28.0007 3.03556 28.9564 0.9546 29.7637 0Z" fill="#F0E7DD"/>
<path d="M39.1435 5.62006C40.3162 5.70946 42.7356 7.18431 43.6191 7.95626C42.7649 9.46043 41.5615 11.1108 40.6266 12.6151C39.659 14.1722 38.8844 15.579 38.0127 17.2012C41.0585 17.4655 52.3099 17.3927 54.9248 16.7931L54.9493 21.6934L51.4159 21.6168C44.5613 21.3689 36.7355 21.4645 29.8952 21.682C31.7438 18.2339 34.2022 15.1741 35.9994 11.6593C37.0416 9.62072 38.2848 7.78888 39.1435 5.62006Z" fill="#F0E7DD"/>
<path d="M35.8608 27.8121C39.0216 28.3503 51.4882 28.5285 54.5278 27.7968C54.6232 29.5242 54.601 31.1403 54.5839 32.8708C51.681 32.6175 46.5651 32.4381 43.753 32.6017C44.3874 34.4227 47.3831 39.1911 48.517 41.2593C49.7397 43.2139 51.1069 45.2039 52.3619 47.1619L48.2021 49.4172C45.1422 44.0559 42.2397 38.625 39.0443 33.3393C38.0483 31.6916 36.5913 29.5732 35.8608 27.8121Z" fill="#F0E7DD"/>
<path d="M0 38.6468C2.69637 38.5069 6.30337 38.6591 9.06061 38.7076C12.4731 38.761 15.8862 38.7536 19.2985 38.685C20.7172 38.6639 23.8719 38.7128 25.1298 38.3542C23.1285 41.7042 20.946 44.9529 18.9579 48.3175C17.7065 50.4353 16.7379 52.5789 15.7378 54.8229C14.3133 54.0618 12.5136 53.0803 11.2689 52.0765C12.1439 51.145 16.4703 44.2689 16.7217 43.1325C15.3919 42.2804 2.13076 43.3667 0 43.1738V38.6468Z" fill="#F0E7DD"/>
<path d="M11.0259 27.6687C10.0593 25.7751 9.04579 23.9057 7.98629 22.0624C7.1881 20.6922 2.81943 13.8765 2.66103 13.0401C3.34087 12.4202 5.54442 11.2022 6.41963 10.7011C8.04758 13.0457 10.8429 18.6103 12.4611 21.4306C13.6944 23.5549 14.9489 25.6669 16.2244 27.7661C17.0047 29.062 18.2343 31.0123 18.7641 32.377C14.7659 31.9425 10.1419 31.9082 6.1063 31.8937C4.35629 31.8875 1.50677 32.2947 0 32.2261V27.4605C0.937658 27.3329 1.79984 27.4285 2.73654 27.4777C5.46613 27.6209 8.29435 27.8214 11.0259 27.6687Z" fill="#F0E7DD"/>
</svg>
