<svg width="215" height="214" viewBox="0 0 215 214" fill="none" xmlns="http://www.w3.org/2000/svg">
<path d="M107.299 0C48.1356 0 0 47.9961 0 107C0 166.004 48.1356 214 107.299 214C166.462 214 214.598 165.994 214.598 107C214.598 48.0061 166.472 0 107.299 0ZM115.986 12.2331C135.75 14.0163 153.801 21.8363 168.255 33.8204C169.341 34.7269 168.933 36.4902 167.568 36.8289L133.867 45.2865C133.12 45.4757 132.353 45.147 131.954 44.4895L114.352 14.8431C113.635 13.6278 114.591 12.1036 115.996 12.2232L115.986 12.2331ZM52.19 91.7584C52.5686 91.5392 52.9172 91.3002 53.2559 91.0411L64.7718 95.7929C63.8254 99.3792 63.3074 103.135 63.3074 107.01C63.3074 110.536 63.7358 113.973 64.5327 117.271L53.1065 122.022C52.7578 121.773 52.3893 121.524 52.0007 121.305L28.9291 108.355C27.7636 107.697 27.7437 106.024 28.8993 105.346L52.1801 91.7584H52.19ZM53.0069 50.5264L80.2425 57.6093L85.0541 69.1749C78.5789 72.9804 73.1597 78.3896 69.3542 84.8648L57.7288 80.0732C57.679 79.7444 57.6093 79.4057 57.5296 79.077L50.895 52.6283C50.5762 51.3532 51.7318 50.1977 53.0069 50.5264ZM50.885 160.435L57.4997 134.056C57.5993 133.668 57.6591 133.289 57.7188 132.901L68.8462 128.268C72.5918 134.973 78.041 140.601 84.6158 144.566L80.0931 155.534C79.7345 155.594 79.3758 155.654 79.0172 155.753L52.9969 162.517C51.7318 162.846 50.5662 161.7 50.885 160.415V160.435ZM75.152 107C75.152 89.3377 89.5668 74.9727 107.299 74.9727C125.031 74.9727 139.446 89.3377 139.446 107C139.446 124.662 125.031 139.037 107.299 139.037C89.5668 139.037 75.152 124.662 75.152 107ZM128.567 68.6071L133.07 57.6889C133.07 57.6889 133.16 57.669 133.21 57.6591L161.541 50.5463C162.806 50.2275 163.962 51.3831 163.643 52.6582L156.919 79.0371C156.869 79.2364 156.839 79.4356 156.799 79.6349L145.054 84.5161C141.059 77.8816 135.361 72.3727 128.567 68.6171V68.6071ZM145.423 128.846L156.819 133.548C156.859 133.738 156.889 133.927 156.939 134.116L163.643 160.425C163.972 161.69 162.816 162.856 161.541 162.537L133.21 155.434C133.13 155.414 133.05 155.405 132.961 155.385L128.767 145.293C135.69 141.408 141.458 135.72 145.423 128.866V128.846ZM162.448 121.285C161.87 121.614 161.322 121.983 160.824 122.391L149.916 117.888C150.812 114.402 151.29 110.756 151.29 107.01C151.29 102.995 150.732 99.1102 149.716 95.4144L160.844 90.7921C161.292 91.1507 161.77 91.4894 162.278 91.7783L185.649 105.346C186.804 106.024 186.794 107.707 185.619 108.355L162.457 121.285H162.448ZM108.763 28.6403L122.61 51.9709L117.51 64.3335C114.232 63.5565 110.805 63.1281 107.289 63.1281C103.374 63.1281 99.5784 63.6461 95.9623 64.6025L91.1507 53.0467L105.775 28.6203C106.442 27.4946 108.076 27.5046 108.753 28.6203L108.763 28.6403ZM46.4321 33.7507C60.8668 21.8064 78.8778 14.0163 98.6022 12.2331C100.007 12.1036 100.963 13.6377 100.246 14.8531L82.4042 44.6589C82.0058 45.3164 81.2287 45.6351 80.4816 45.4459L47.1095 36.7691C45.7447 36.4204 45.3462 34.6572 46.4321 33.7606V33.7507ZM12.253 98.1738C14.086 78.3797 22.0256 60.3288 34.179 45.9041C35.0856 44.8183 36.8388 45.2367 37.1775 46.6114L45.6551 80.4119C45.8443 81.159 45.5156 81.946 44.8482 82.3245L14.8531 99.8275C13.6377 100.535 12.1136 99.5784 12.2431 98.1738H12.253ZM36.1913 170.417C22.8724 155.594 14.1358 136.587 12.2331 115.657C12.1136 114.272 13.5979 113.306 14.8132 113.993L44.7983 130.819C45.4857 131.207 45.8244 131.994 45.6351 132.751L36.271 170.068C36.2411 170.188 36.2212 170.297 36.1913 170.417ZM45.5554 179.522C44.4895 178.616 44.888 176.882 46.2428 176.524C55.2782 174.183 80.4716 167.638 80.4716 167.638C81.2188 167.438 81.9958 167.757 82.3943 168.425C82.3943 168.425 95.9822 191.108 100.854 199.217C101.581 200.432 100.634 201.956 99.2298 201.837C78.8578 200.133 60.289 192.014 45.5455 179.532L45.5554 179.522ZM105.795 184.433L91.7385 160.973C91.5392 160.634 91.3101 160.316 91.081 160.007L95.514 149.268C99.2696 150.314 103.215 150.882 107.309 150.882C110.915 150.882 114.412 150.444 117.759 149.617L122.57 161.192L108.773 184.433C108.106 185.559 106.472 185.569 105.795 184.433ZM115.368 201.827C113.963 201.946 113.007 200.422 113.734 199.207C118.556 191.128 131.954 168.574 131.954 168.574C132.343 167.917 133.12 167.588 133.867 167.777C133.867 167.777 159.329 174.163 168.445 176.434C169.809 176.773 170.228 178.516 169.152 179.432C154.398 191.964 135.79 200.113 115.368 201.827ZM202.375 115.657C200.571 135.431 192.682 153.482 180.588 167.917C179.681 168.992 177.928 168.594 177.59 167.229C175.278 158.114 168.823 132.761 168.823 132.761C168.624 132.004 168.973 131.207 169.66 130.819L199.804 113.983C201.02 113.306 202.504 114.262 202.375 115.647V115.657ZM199.765 99.8374L169.61 82.3245C168.943 81.936 168.604 81.149 168.803 80.3919L177.43 46.5616C177.779 45.1968 179.522 44.7884 180.429 45.8643C192.592 60.2989 200.542 78.3597 202.365 98.1639C202.494 99.5685 200.98 100.525 199.765 99.8175V99.8374Z" fill="black"/>
</svg>
