<svg width="800" height="801" viewBox="0 0 800 801" fill="none" xmlns="http://www.w3.org/2000/svg">
<g clip-path="url(#clip0_688_1712)">
<mask id="mask0_688_1712" style="mask-type:luminance" maskUnits="userSpaceOnUse" x="0" y="0" width="800" height="801">
<path d="M800 800.11V0.110352L0 0.110352V800.11H800Z" fill="white"/>
</mask>
<g mask="url(#mask0_688_1712)">
<path d="M333.085 816.517L333.12 812.952L333.382 812.878L333.12 811.746V811.114L333.73 741.453L334.131 671.774L334.445 602.094L334.585 534.104L335.978 534.141L339.813 501.037L521.649 637.091C528.202 648.231 534.895 659.297 541.518 670.381L560.951 702.37C543.296 693.905 525.536 685.698 507.828 677.343C488.918 668.413 469.92 659.724 450.923 650.961L422.426 637.834L393.842 624.931C374.81 616.316 355.726 607.813 336.571 599.457C355.343 608.722 374.165 617.894 393.041 626.899L421.345 640.452L449.754 653.783C468.683 662.677 487.61 671.607 506.608 680.296C525.622 688.985 544.533 697.878 563.618 706.437L567.313 708.09L565.081 704.58L542.756 669.509C535.819 658.796 528.934 648.009 521.927 637.315L546.468 655.677L547.06 654.767L548.42 656.624L550.145 659V655.992L549.832 461.677L737.646 394.95L739.859 394.169L738.291 392.332L709.829 359.581C713.803 360.082 717.812 360.435 721.785 360.899C726.143 361.308 730.465 361.679 734.822 361.994L739.127 362.31L735.554 359.6C730.186 355.514 724.783 351.486 719.345 347.568C713.925 343.595 708.417 339.752 702.927 335.871C697.402 332.047 691.86 328.259 686.283 324.545C681.071 321.092 675.79 317.732 670.475 314.446L660.82 303.399L620.89 257.652C625.508 256.148 630.091 254.588 634.71 253.028C639.8 251.301 644.889 249.593 649.926 247.793C660.035 244.21 670.196 240.757 680.27 237.043L710.509 225.977C720.583 222.283 730.587 218.402 740.644 214.614L741.428 214.318L741.567 213.463L744.966 194.377L748.19 175.254C749.288 168.868 750.351 162.481 751.345 156.093C752.356 149.743 753.367 143.394 754.29 137.007L771.824 128.894L774.752 127.557L771.911 125.998C753.402 115.694 734.822 105.593 716.26 95.4369L660.54 65.0261L649.107 58.8616L678.44 20.7823L708.993 -19.2656L710.509 -21.2516L708.086 -21.104C690.03 -19.915 671.956 -18.8008 653.9 -17.5022L601.247 -13.807L599.661 -44.6272L599.557 -46.8174L597.605 -46.0942L558.145 -31.8161L555.984 -74.2595L555.897 -76.0967L554.259 -75.5766C533.814 -69.3014 513.44 -62.7851 493.031 -56.398L462.443 -46.7251L432.203 -37.0337L429.571 -55.5065C432.046 -59.0161 434.487 -62.4506 436.787 -65.718C434.469 -62.581 432.029 -59.2755 429.519 -55.8594L429.362 -56.992L429.502 -55.8225C403.481 -20.5654 367.751 27.6331 343.891 60.5327C335.839 27.6884 324.597 -17.335 316.231 -50.1966C335.926 -52.629 355.603 -55.3773 375.438 -58.0138C383.856 -59.1833 396.945 -60.9467 409.598 -62.6179L411.464 -61.077L412.91 -63.0631C421.677 -64.2337 429.973 -65.3282 436.107 -66.1274C428.979 -65.3282 421.328 -64.5116 413.328 -63.657L477.675 -151.996L452.177 -46.3168L455.227 -45.4807L483.828 -163.972L410.348 -99.9925L451.48 -335.673L392.849 -215.642L319.665 -328.859L217.253 -203.128L213.192 -253.684L213.14 -254.315L133.314 -336.806L88.2267 -219.856L40.9238 -251.401C25.2728 -261.891 9.56979 -272.25 -6.13431 -282.592L-6.55222 -283.409L-6.98853 -283.149C-7.14444 -283.242 -7.28414 -283.353 -7.44113 -283.446L-9.00989 -284.504L-8.92221 -282.518L-8.90488 -282.035L-9.32385 -281.794L-8.85287 -280.884L-6.46564 -227.042L-6.02933 -217.703L-55.2831 -215.846C-71.9107 -215.234 -88.5556 -214.528 -105.182 -213.804L-107.134 -213.711L-105.879 -212.096L-67.8843 -163.044L-31.8239 -116.851L-88.8523 -119.579L-149.173 -122.253H-149.784L-150.219 -121.808L-190.149 -80.9246L-229.939 -39.8744L-234.383 -35.2888L-230.008 -37.6093L-125.679 60.1983L-99.5188 84.7064L-86.4466 96.9593L-79.9106 103.105L-76.6517 106.168C-76.0411 106.819 -75.4315 107.58 -74.822 108.341C-74.9779 109.956 -74.9779 112.166 -76.1634 113.243C-77.0696 114.449 -79.8932 115.006 -81.1827 115.488L-103.632 122.822C-161.495 141.668 -313.091 191.76 -372.963 211.569L-378.571 213.426L-372.8 214.726C-317.487 227.221 -249.686 242.65 -183.073 257.688L-183.979 259.582L-107.588 300.93L-136.066 341.162L-165.364 383.196L-167.317 386L-164.075 385.555C-149.243 383.476 -134.499 381.08 -119.683 378.815C-112.312 377.701 -104.904 376.513 -97.5137 375.27L-77.192 371.872L-130.873 498.345L-130.768 498.401L-130.804 498.439V499.051L-131.309 588.337L-131.396 677.622V680.649L-129.183 678.792L-74.0717 632.042L-46.6045 608.536L-19.6244 585.292L46.8503 607.999L68.5838 586.257L87.8781 646.003L106.422 703.132L106.823 706.307L107.433 706.214L107.502 706.419L107.746 707.18L108.496 707.068L208.312 693.923L208.678 693.887L208.973 693.663L246.603 663.864L288.014 737.22L329.6 810.389L330.314 813.676L331.325 813.416L333.085 816.517ZM334.567 534.123L333.294 602.113L332.162 671.774L331.116 741.435L330.418 799.882L269.19 532.488L334.567 534.123ZM333.207 530.743L213.732 527.735L250.838 395.154L348.701 396.881L333.207 530.743ZM53.734 395.618L81.3074 400.724L-43.6932 533.882L53.734 395.618ZM-65.4797 559.206L-19.0484 355.588L50.6148 394.467L-65.4797 559.206ZM57.0112 392.814L104.191 311.55L151.963 410.007L151.214 410.229L57.0112 392.814ZM212.878 394.522L213 394.485L247.562 395.098L211.239 524.895L156.513 412.105L212.878 394.522ZM343.839 65.5266L365.294 81.0665L302.289 109.715L342.236 66.3812C342.322 66.7157 342.41 67.0675 342.497 67.3835C342.933 66.7711 343.403 66.1402 343.839 65.5266ZM365.45 84.6499L280.956 211.106L218.002 151.712L365.45 84.6499ZM369.354 84.5945L403.847 215.58L284.232 212.016L369.354 84.5945ZM404.526 218.959L422.165 394.801L215.126 391.163L282.28 215.32L404.526 218.959ZM339.83 501.056L351.891 396.936L358.549 397.048L452.77 526.158L542.842 648.974L339.83 501.056ZM547.409 461.881L548.229 652.91L548.018 652.761L453.798 525.304L358.567 397.029L425.686 398.217L421.554 357.037L547.409 461.881ZM734.456 392.703L549.256 459.17L421.537 357L414.514 286.968L710.439 383.141L710.823 381.823L734.021 392.183L734.456 392.703ZM685.115 326.384C690.448 330.506 695.834 334.534 701.237 338.526C706.657 342.499 712.112 346.454 717.602 350.316C721.907 353.38 726.247 356.369 730.604 359.339C727.676 359.302 724.748 359.247 721.838 359.247C717.794 359.302 713.751 359.284 709.69 359.432L699.581 347.809L671.102 315.207C675.738 318.995 680.409 322.727 685.115 326.384ZM658.623 305.497L697.298 350.056L733.968 392.146L710.875 381.582L711.345 379.929L697.228 375.344L582.511 322.857L432.117 254.513L583.4 218.811L658.623 305.497ZM431.454 251.228L506.468 161.497L580.698 215.989L431.454 251.228ZM596.645 -42.1948L598.337 -11.9501L598.423 -10.3355L599.94 -10.4462L654.092 -14.5312C671.346 -15.7941 688.601 -17.2415 705.838 -18.6151L677.411 19.9462L649.037 58.8247L604.645 34.8736C586.31 25.0704 567.958 15.2302 549.57 5.55731L561.962 -7.12344L595.425 -41.7497L596.645 -42.1948ZM429.485 -55.488L431.628 -36.607L431.663 -36.2541L431.994 -36.3464L462.774 -45.333L493.519 -54.4304C513.458 -60.3712 533.413 -66.2382 553.317 -72.2723L555.322 -29.6075L555.426 -27.5465L557.256 -28.1958L595.182 -41.6931L560.951 -8.25601L524.002 28.2455C499.34 52.5494 474.974 77.1683 450.434 101.62L447.088 104.962L451.655 104.46C470.286 102.418 488.918 100.134 507.549 97.9811L563.443 91.3899L619.286 84.5392C637.899 82.1437 656.531 79.8417 675.111 77.3355C656.444 79.0805 637.796 81.0111 619.112 82.868L563.165 88.7534L507.235 94.9179C490.12 96.8301 472.97 98.6685 455.854 100.673C479.105 77.1314 502.46 53.7189 525.588 30.0285L549.518 5.55731C567.592 15.9361 585.753 26.1292 603.879 36.396L659.303 67.4388L714.884 98.1853C732.469 107.895 750.055 117.643 767.693 127.26L723.389 148.055C707.668 155.406 691.947 162.834 676.261 170.315L629.202 192.744L583.713 214.726L629.708 194.08L677.115 172.488C692.923 165.303 708.714 158.061 724.469 150.747L754.221 136.97C752.792 143.245 751.484 149.539 750.142 155.816C748.748 162.128 747.493 168.44 746.203 174.79L742.352 193.783L738.866 211.959C729.053 215.58 719.206 219.108 709.411 222.784L679.294 234.202C669.237 237.99 659.268 242.018 649.263 245.918C644.261 247.867 639.277 249.909 634.292 251.914C629.761 253.752 625.246 255.591 620.733 257.484L583.487 214.8L583.208 214.467L583.103 214.355L582.981 214.261L506.922 158.748L506.067 158.118L505.387 158.953L505.126 159.269C500.002 156.967 494.843 154.831 489.702 152.622C484.159 150.32 478.6 148.035 473.022 145.808C462.007 141.407 450.923 137.137 439.803 132.979C436.09 129.21 432.412 125.385 428.665 121.653C424.831 117.792 421.031 113.966 417.163 110.179C413.311 106.373 409.424 102.604 405.537 98.8726C401.598 95.1589 397.712 91.3899 393.721 87.7696C397.259 91.91 400.936 95.9201 404.526 100.005C408.169 104.034 411.83 108.044 415.524 112.017C419.202 116.009 422.931 119.945 426.644 123.881C430.339 127.817 434.121 131.697 437.868 135.615L438.094 135.856L438.425 135.986C449.632 140.238 460.875 144.378 472.168 148.37C477.798 150.357 483.462 152.343 489.144 154.237C494.443 155.963 499.688 157.728 505.004 159.379L428.073 251.933L427.585 252.044L427.655 252.416L427.184 252.991L426.243 254.105L427.55 254.662L428.195 254.96L428.265 255.331L428.753 255.219L581.935 324.156L693.777 374.156L414.112 283.254L407.472 217.065L370.976 78.3746L368.693 79.4149L345.721 62.761C370.331 28.6734 403.916 -19.2841 429.485 -55.488ZM444.509 -314.118L400.762 -63.8243L403.865 -63.2118L409.807 -97.2256L410.713 -96.0562L471.279 -148.784L408.953 -63.2303C378.436 -59.9814 343.943 -56.4165 317.085 -53.2414L317.12 -53.3163H317.626L317.643 -54.3739L444.509 -314.118ZM390.723 -213.024L392.047 -213.989L317.731 -61.8382L321.042 -320.839L390.723 -213.024ZM317.888 -321.544L314.489 -55.1916L313.304 -52.7777L312.71 -52.7039L312.867 -52.0719L237.226 45.6237L236.145 32.1449L236.337 32.0895L236.059 31.0676L217.636 -198.449L317.888 -321.544ZM210.107 -252.756L214.377 -199.582L213.906 -199.006L214.464 -198.486L231.597 15.0261L135.999 -329.342L210.107 -252.756ZM133.733 -329.026L186.665 60.3655L136.26 -322.12L232.938 31.6801L234.403 50.0052L235.971 49.8576L237.191 50.9336L313.844 -48.0803C322.018 -14.7908 332.859 29.3965 341.294 62.6122L294.898 112.945L294.986 113.038L212.199 150.69L279.125 213.853L278.236 215.19L278.916 215.209L213.941 385.332L208.295 284.034L211.187 391.533L155.049 409.041L105.759 307.465L73.7081 215.822L137.794 207.114L72.593 212.684L-9.25354 20.4479L138.526 148.723L0.645294 25.0715L209.933 149.669L168.417 56.8006L168.94 56.5226L68.9325 -160.909L133.733 -329.026ZM-48.5912 21.6173L-97.0438 -33.7468L-144.763 -87.8491C-120.764 -83.0778 -96.7471 -78.4184 -72.7303 -73.7578L2.28448 -59.1833L82.3521 34.3915L-16.1555 12.3158L-0.243561 49.7088L-48.3822 21.1906L-48.5912 21.6173ZM164.704 56.2804L202.839 141.593L-3.92029 18.4987L164.704 56.2804ZM-49.8287 24.18L-0.190491 49.838L61.7165 195.25C54.7279 192.669 47.7208 190.2 40.7149 187.693L17.8825 179.765C10.267 177.129 2.66775 174.492 -5.00079 171.986L-27.1705 164.615C-30.3081 154.663 -33.5669 144.712 -36.8442 134.797L-46.9 104.275L-57.2536 73.8628C-60.6867 64.0411 -64.0679 54.2206 -67.606 44.4727C-63.7366 39.9794 -49.794 23.548 -49.1314 22.7499L-49.8287 24.18ZM40.3489 -250.342L88.2267 -219.819L65.7429 -161.484L65.4636 -160.778L149.907 22.8064L-4.26892 -278.953C10.5799 -269.391 25.4298 -259.811 40.3489 -250.342ZM-3.92029 -227.134L-6.63998 -276.595L152.661 28.7656L163.641 52.6232L82.4225 34.4284L4.58517 -61.4484L-1.04471 -171.676L-3.92029 -227.134ZM-188.319 -78.8821L-148.65 -119.097L-88.9216 -116.219L-28.5997 -113.545L-25.2704 -113.396L-27.3969 -116.108L-65.7763 -164.844L-103.074 -211.818C-87.1092 -212.708 -71.1442 -213.599 -55.1791 -214.62L-6.01199 -217.646L-3.83365 -171.547L1.43027 -62.7102L-72.2074 -76.7288C-97.3924 -81.5185 -122.595 -86.3083 -147.796 -90.9689L-151.282 -91.6182L-148.842 -88.9079L-144.189 -83.7652L-186.541 -62.1347C-199.09 -55.7672 -211.604 -49.3247 -224.1 -42.8453L-188.319 -78.8821ZM-76.0584 105.501L-79.301 102.381L-85.784 96.1796L-98.7338 83.7779L-124.616 58.955L-226.959 -39.187C-213.312 -46.4472 -199.683 -53.7431 -186.088 -61.1324L-144.206 -83.7652L-98.0885 -32.7076L-48.6085 21.6173L-49.1487 22.713L-67.7804 44.0091C-67.8323 43.8418 -67.9027 43.693 -67.9547 43.5258C-67.9027 43.693 -67.8496 43.8603 -67.7977 44.046L-68.9832 45.4011C-69.0871 45.438 -73.5845 95.3446 -73.5845 95.3446L-74.6651 107.171C-75.083 106.633 -75.5355 106.076 -76.0584 105.501ZM-73.5141 108.638C-73.4968 108.397 -73.4795 108.174 -73.4622 107.951C-72.8342 99.485 -69.3145 55.1479 -68.5988 45.5868C-68.6346 45.6606 -68.2859 45.2523 -67.6407 44.5096C-64.7824 54.517 -61.7845 64.4506 -58.8213 74.4199L-49.375 105.166L-39.6321 135.801C-36.8085 144.694 -33.9676 153.569 -31.0573 162.425L-73.1482 109.064C-73.2879 108.917 -73.3918 108.786 -73.5141 108.638ZM-97.6533 374.174C-105.078 375.027 -112.503 375.919 -119.928 376.884C-133.696 378.648 -147.447 380.319 -161.182 382.213L-133.557 343.168L-105.81 303.287L-77.087 371.63L-77.1574 371.797L-97.6533 374.174ZM-73.6365 371.648L-102.917 301.988C-96.9388 302.73 -90.943 303.399 -84.9482 304.104L-64.3645 306.499C-57.5145 307.334 -50.6299 308.022 -43.7636 308.765L-23.1625 310.918V310.844L-43.6585 307.669C-50.4912 306.648 -57.3056 305.571 -64.1545 304.606L-84.6689 301.673C-91.2396 300.744 -97.8104 299.759 -104.416 298.887L-178.646 258.709C-123.413 271.186 -69.2095 283.348 -23.8771 293.298C-23.667 293.169 64.2261 243.318 76.7407 236.245C64.2261 243.077 -22.5692 290.68 -23.824 291.59C-123.274 268.549 -263.891 236.041 -366.391 212.869C-292.98 188.324 -148.79 140.127 -80.6771 116.955C-78.9697 116.306 -76.3378 115.841 -75.1003 114.245C-74.0198 113.131 -73.7058 111.441 -73.5661 109.807L-31.0053 162.536C-30.5863 163.817 -30.1684 165.099 -29.7505 166.379L-29.5059 167.16L-28.7913 167.382L-5.80307 174.753C1.84814 177.241 9.51668 179.617 17.221 181.957L40.2797 189.012C47.4426 191.109 54.5882 193.282 61.7695 195.324L69.7867 214.151L77.3675 235.837C77.1932 235.947 76.967 236.059 76.7407 236.188C76.9843 236.059 77.1932 235.947 77.3848 235.837L102.587 307.91L53.5954 392.275L-21.1401 350.576L-31.2836 395.061L-54.9702 419.42L-80.1899 445.561L-124.773 492.125L-73.6365 371.648ZM-47.2487 607.72L-75.1707 630.575L-128.643 674.707L-128.154 588.411L-128.067 499.756L-127.997 499.794L-127.875 499.496L-78.9351 446.972L-54.273 420.255L-31.3367 395.283L-70.3593 566.41L-70.7079 567.932L-19.659 585.366L-47.2487 607.72ZM46.0481 604.211L-66.2289 565.853L-57.114 552.931L85.1238 401.411L151.057 413.608L151.423 413.683L153.463 413.051L169.915 446.972L169.88 446.953L146.09 504.1L46.0481 604.211ZM290.699 735.493L248.241 660.801L247.422 659.353L246.133 660.355L209.758 689.375L211.762 533.863L206.603 691.25L109.786 704.896L89.5334 567.245L105.29 694.034L88.8535 645.67L68.5838 586.294L148.444 506.366L148.67 506.124L171.711 450.797L210.647 531.041L269.156 532.508L327.474 800.735L290.699 735.493Z" fill="white"/>
</g>
</g>
<defs>
<clipPath id="clip0_688_1712">
<rect width="800" height="801" fill="white"/>
</clipPath>
</defs>
</svg>
