<svg width="801" height="801" viewBox="0 0 801 801" fill="none" xmlns="http://www.w3.org/2000/svg">
<mask id="mask0_688_1706" style="mask-type:luminance" maskUnits="userSpaceOnUse" x="0" y="0" width="801" height="801">
<path d="M0.625977 0.962891L0.625977 800.963H800.626V0.962891H0.625977Z" fill="white"/>
</mask>
<g mask="url(#mask0_688_1706)">
<path d="M480.28 -12.9775L480.244 -9.42023L479.974 -9.34655L480.244 -8.21642V-7.58578L479.616 61.926L479.204 131.456L478.881 200.988L478.737 268.832L477.303 268.795L473.358 301.828L286.277 166.065C279.535 154.949 272.648 143.906 265.835 132.846L245.841 100.925C264.006 109.372 282.278 117.562 300.497 125.899C319.952 134.81 339.498 143.48 359.043 152.225L388.362 165.324L417.77 178.199C437.351 186.795 456.986 195.28 476.693 203.618C457.38 194.374 438.015 185.221 418.594 176.235L389.474 162.711L360.245 149.408C340.771 140.534 321.298 131.623 301.752 122.953C282.189 114.282 262.733 105.408 243.098 96.8671L239.296 95.2179L241.592 98.72L264.562 133.717C271.698 144.407 278.782 155.171 285.991 165.842L260.742 147.519L260.133 148.427L258.734 146.574L256.959 144.203V147.205L257.281 341.104L64.0504 407.688L61.7732 408.467L63.387 410.301L92.6693 442.981C88.5809 442.482 84.4566 442.13 80.3682 441.666C75.8853 441.259 71.4383 440.888 66.9553 440.574L62.5263 440.259L66.2022 442.963C71.7251 447.039 77.2839 451.059 82.8787 454.969C88.4554 458.933 94.1218 462.768 99.7702 466.641C105.455 470.457 111.157 474.236 116.895 477.942C122.257 481.388 127.69 484.741 133.159 488.02L143.093 499.043L184.174 544.693C179.422 546.194 174.707 547.75 169.955 549.307C164.719 551.03 159.482 552.734 154.301 554.53C143.9 558.106 133.446 561.552 123.081 565.258L91.97 576.3C81.6055 579.986 71.3128 583.859 60.9661 587.638L60.1592 587.934L60.0158 588.787L56.5191 607.832L53.2019 626.915C52.0721 633.287 50.9783 639.66 49.9562 646.034C48.9161 652.371 47.8761 658.706 46.9257 665.079L28.8865 673.176L25.874 674.51L28.7969 676.065C47.8402 686.347 66.9553 696.426 86.0525 706.561L143.38 736.907L155.143 743.058L124.964 781.056L93.5301 821.018L91.97 823L94.4625 822.853C113.04 821.666 131.635 820.554 150.211 819.258L204.383 815.571L206.015 846.325L206.122 848.511L208.131 847.789L248.729 833.542L250.952 875.894L251.041 877.728L252.727 877.209C273.761 870.947 294.723 864.444 315.721 858.071L347.19 848.419L378.303 838.748L381.01 857.181C378.464 860.683 375.953 864.111 373.586 867.371C375.971 864.241 378.482 860.942 381.064 857.534L381.225 858.664L381.082 857.497C407.853 822.315 444.614 774.22 469.162 741.39C477.446 774.164 489.013 819.092 497.62 851.883C477.357 854.31 457.112 857.052 436.705 859.683C428.045 860.85 414.578 862.61 401.56 864.278L399.64 862.74L398.152 864.722C389.133 865.89 380.597 866.982 374.286 867.78C381.62 866.982 389.492 866.167 397.722 865.315L331.519 953.464L357.752 848.011L354.614 847.177L325.189 965.415L400.789 901.572L358.47 1136.75L418.792 1016.97L494.086 1129.95L599.453 1004.49L603.631 1054.94L603.685 1055.57L685.812 1137.88L732.2 1021.18L780.868 1052.66C796.97 1063.12 813.126 1073.46 829.283 1083.78L829.713 1084.6L830.162 1084.34C830.322 1084.43 830.466 1084.54 830.627 1084.63L832.241 1085.69L832.151 1083.71L832.133 1083.23L832.565 1082.98L832.08 1082.08L829.624 1028.35L829.175 1019.03L879.849 1017.18C896.957 1016.57 914.082 1015.86 931.188 1015.14L933.196 1015.05L931.905 1013.44L892.814 964.488L855.714 918.394L914.387 921.117L976.447 923.785H977.076L977.523 923.341L1018.61 882.545L1059.54 841.583L1064.12 837.007L1059.61 839.322L952.276 741.724L925.361 717.268L911.912 705.042L905.187 698.909L901.834 695.852C901.206 695.203 900.579 694.443 899.952 693.684C900.112 692.073 900.112 689.868 901.332 688.793C902.264 687.589 905.169 687.033 906.496 686.552L929.593 679.234C989.125 660.429 1145.09 610.444 1206.69 590.677L1212.46 588.824L1206.52 587.527C1149.62 575.058 1079.86 559.662 1011.32 544.656L1012.26 542.766L933.663 501.507L962.963 461.361L993.106 419.417L995.114 416.619L991.779 417.063C976.519 419.138 961.35 421.528 946.107 423.789C938.523 424.9 930.901 426.086 923.298 427.326L902.39 430.717L957.619 304.514L957.511 304.459L957.548 304.421V303.81L958.068 214.715L958.157 125.62V122.6L955.88 124.453L899.18 171.103L870.92 194.559L843.162 217.753L774.77 195.095L752.41 216.79L732.559 157.172L713.48 100.166L713.068 96.9972L712.44 97.0892L712.369 96.8855L712.118 96.1259L711.346 96.2376L608.652 109.354L608.275 109.391L607.971 109.614L569.256 139.349L526.651 66.1496L483.865 -6.86305L483.13 -10.1429L482.091 -9.88285L480.28 -12.9775ZM478.755 268.813L480.065 200.968L481.23 131.456L482.306 61.9444L483.023 3.62242L546.017 270.444L478.755 268.813ZM480.154 272.185L603.075 275.187L564.899 407.484L464.213 405.762L480.154 272.185ZM767.688 407.022L739.319 401.927L867.925 269.054L767.688 407.022ZM890.34 243.783L842.57 446.966L770.897 408.17L890.34 243.783ZM764.316 409.82L715.776 490.91L666.625 392.664L667.396 392.442L764.316 409.82ZM603.954 408.115L603.828 408.152L568.27 407.541L605.64 278.021L661.945 390.57L603.954 408.115ZM469.215 736.407L447.141 720.9L511.964 692.313L470.865 735.554C470.776 735.221 470.686 734.87 470.597 734.554C470.148 735.165 469.664 735.795 469.215 736.407ZM446.981 717.325L533.913 591.139L598.682 650.406L446.981 717.325ZM442.964 717.38L407.477 586.675L530.542 590.231L442.964 717.38ZM406.778 583.303L388.631 407.837L601.641 411.468L532.55 586.934L406.778 583.303ZM473.34 301.809L460.931 405.706L454.081 405.595L357.143 276.761L264.472 154.208L473.34 301.809ZM259.774 340.901L258.931 150.28L259.147 150.428L356.085 277.613L454.063 405.613L385.008 404.428L389.259 445.52L259.774 340.901ZM67.3319 409.93L257.874 343.605L389.277 445.557L396.502 515.439L92.0417 419.472L91.6472 420.787L67.7802 410.449L67.3319 409.93ZM118.096 476.108C112.609 471.995 107.068 467.975 101.51 463.992C95.9329 460.027 90.3203 456.081 84.6718 452.226C80.2426 449.17 75.7777 446.187 71.2948 443.223C74.3074 443.26 77.3198 443.315 80.3144 443.315C84.4746 443.26 88.6347 443.278 92.8127 443.13L103.213 454.728L132.513 487.261C127.744 483.481 122.938 479.757 118.096 476.108ZM145.353 496.95L105.562 452.486L67.834 410.486L91.5935 421.028L91.1092 422.677L105.634 427.253L223.659 479.627L378.392 547.824L222.745 583.45L145.353 496.95ZM379.073 551.103L301.896 640.642L225.525 586.266L379.073 551.103ZM209.118 843.898L207.378 813.718L207.289 812.107L205.728 812.217L150.014 816.294C132.262 817.554 114.51 818.998 96.7757 820.369L126.022 781.89L155.215 743.095L200.887 766.995C219.751 776.777 238.632 786.596 257.551 796.248L244.801 808.902L210.373 843.454L209.118 843.898ZM381.1 857.163L378.894 838.322L378.858 837.97L378.518 838.062L346.851 847.03L315.218 856.108C294.705 862.036 274.173 867.89 253.696 873.911L251.633 831.338L251.526 829.281L249.643 829.929L210.624 843.398L245.842 810.032L283.857 773.609C309.23 749.357 334.298 724.79 359.546 700.391L362.989 697.056L358.29 697.557C339.121 699.595 319.952 701.873 300.783 704.022L243.277 710.599L185.824 717.435C166.674 719.826 147.505 722.123 128.389 724.624C147.594 722.882 166.781 720.956 186.003 719.103L243.564 713.23L301.106 707.079C318.716 705.171 336.36 703.336 353.97 701.336C330.049 724.827 306.02 748.19 282.225 771.829L257.604 796.248C239.009 785.892 220.324 775.72 201.676 765.475L144.653 734.499L87.4692 703.818C69.3762 694.129 51.2832 684.402 33.1363 674.805L78.7185 654.055C94.8928 646.72 111.067 639.308 127.206 631.843L175.622 609.462L222.423 587.527L175.101 608.128L126.327 629.674C110.063 636.844 93.8169 644.071 77.6067 651.369L46.9975 665.116C48.4678 658.854 49.8127 652.574 51.1935 646.311C52.628 640.013 53.9191 633.714 55.246 627.377L59.2089 608.425L62.7953 590.288C72.8907 586.675 83.0222 583.155 93.0997 579.486L124.086 568.092C134.432 564.313 144.689 560.293 154.982 556.402C160.128 554.457 165.257 552.419 170.385 550.418C175.047 548.584 179.692 546.75 184.336 544.86L222.656 587.453L222.942 587.786L223.05 587.897L223.176 587.99L301.429 643.385L302.308 644.014L303.008 643.181L303.276 642.866C308.548 645.163 313.856 647.294 319.146 649.498C324.848 651.795 330.568 654.075 336.307 656.297C347.639 660.689 359.043 664.949 370.484 669.099C374.304 672.86 378.088 676.677 381.943 680.401C385.887 684.254 389.797 688.071 393.777 691.851C397.74 695.648 401.739 699.409 405.738 703.132C409.79 706.838 413.789 710.599 417.895 714.212C414.255 710.08 410.472 706.079 406.778 702.002C403.03 697.982 399.264 693.981 395.463 690.016C391.679 686.033 387.842 682.105 384.022 678.177C380.221 674.249 376.33 670.378 372.475 666.468L372.242 666.228L371.901 666.098C360.371 661.856 348.804 657.724 337.185 653.741C331.393 651.758 325.565 649.776 319.719 647.887C314.268 646.164 308.871 644.403 303.402 642.755L382.552 550.399L383.054 550.288L382.982 549.918L383.467 549.344L384.435 548.232L383.09 547.676L382.426 547.379L382.355 547.008L381.853 547.12L224.252 478.331L109.184 428.438L396.916 519.145L403.747 585.193L441.296 723.587L443.645 722.549L467.279 739.167C441.959 773.182 407.405 821.036 381.1 857.163ZM365.642 1115.24L410.651 865.481L407.459 864.87L401.345 898.811L400.412 897.644L338.1 950.259L402.223 864.889C433.621 861.647 469.108 858.089 496.741 854.921L496.705 854.996H496.185L496.167 856.051L365.642 1115.24ZM420.979 1014.36L419.617 1015.33L496.077 863.5L492.671 1121.95L420.979 1014.36ZM495.915 1122.65L499.412 856.867L500.632 854.458L501.242 854.385L501.081 853.754L578.904 756.267L580.016 769.717L579.818 769.773L580.105 770.792L599.059 999.818L495.915 1122.65ZM606.805 1054.01L602.412 1000.95L602.896 1000.37L602.322 999.855L584.695 786.8L683.05 1130.43L606.805 1054.01ZM685.381 1130.12L630.923 741.557L682.781 1123.22L583.315 770.181L581.808 751.895L580.195 752.043L578.94 750.969L500.076 849.771C491.666 816.553 480.512 772.46 471.834 739.315L519.568 689.09L519.478 688.998L604.653 651.426L535.796 588.398L536.711 587.064L536.011 587.044L602.86 417.285L608.669 518.367L605.693 411.098L663.451 393.627L714.162 494.986L747.138 586.433L681.203 595.122L748.285 589.565L832.492 781.389L680.45 653.389L822.308 776.776L606.984 652.444L649.698 745.114L649.159 745.392L752.051 962.358L685.381 1130.12ZM872.964 780.223L922.815 835.468L971.911 889.455C947.219 884.694 922.509 880.044 897.8 875.394L820.621 860.85L738.244 767.476L839.593 789.504L823.222 752.191L872.749 780.648L872.964 780.223ZM653.517 745.634L614.282 660.504L827.005 783.334L653.517 745.634ZM874.238 777.665L823.168 752.062L759.475 606.961C766.665 609.537 773.875 612.001 781.083 614.502L804.573 622.413C812.409 625.043 820.227 627.674 828.117 630.175L850.926 637.53C854.154 647.461 857.507 657.391 860.879 667.284L871.224 697.742L881.877 728.089C885.409 737.889 888.888 747.689 892.528 757.416C888.547 761.9 874.202 778.296 873.52 779.092L874.238 777.665ZM781.459 1051.6L732.2 1021.14L755.333 962.932L755.62 962.228L668.741 779.036L827.364 1080.15C812.087 1070.61 796.809 1061.05 781.459 1051.6ZM827.005 1028.44L829.803 1077.8L665.908 773.09L654.611 749.283L738.172 767.439L818.254 863.111L824.047 973.102L827.005 1028.44ZM1016.72 880.507L975.909 920.636L914.458 917.764L852.396 915.096L848.971 914.947L851.159 917.653L890.645 966.285L929.019 1013.16C912.593 1014.05 896.168 1014.94 879.742 1015.95L829.157 1018.97L826.916 972.974L821.5 864.37L897.262 878.358C923.173 883.138 949.102 887.917 975.031 892.568L978.617 893.216L976.107 890.511L971.319 885.38L1014.89 863.795C1027.8 857.441 1040.68 851.013 1053.54 844.547L1016.72 880.507ZM901.224 696.518L904.56 699.632L911.23 705.82L924.553 718.195L951.182 742.965L1056.48 840.897C1042.44 848.141 1028.41 855.422 1014.43 862.795L971.337 885.38L923.889 834.431L872.982 780.223L873.538 779.129L892.707 757.879C892.761 758.046 892.833 758.194 892.886 758.361C892.833 758.194 892.778 758.027 892.725 757.842L893.945 756.49C894.051 756.453 898.679 706.653 898.679 706.653L899.79 694.852C900.22 695.388 900.686 695.944 901.224 696.518ZM898.606 693.388C898.588 693.629 898.571 693.851 898.553 694.073C897.907 702.521 894.285 746.764 893.549 756.304C893.586 756.231 893.227 756.638 892.563 757.379C889.623 747.393 886.538 737.481 883.49 727.533L873.771 696.852L863.747 666.283C860.842 657.409 857.919 648.553 854.925 639.716L898.23 692.962C898.373 693.11 898.48 693.24 898.606 693.388ZM923.442 428.42C931.081 427.568 938.72 426.678 946.359 425.715C960.524 423.955 974.672 422.288 988.803 420.398L960.381 459.359L931.834 499.155L902.282 430.958L902.355 430.792L923.442 428.42ZM898.732 430.94L928.857 500.452C922.706 499.711 916.538 499.043 910.37 498.34L889.193 495.95C882.145 495.116 875.062 494.43 867.998 493.689L846.802 491.541V491.614L867.889 494.783C874.919 495.801 881.93 496.876 888.977 497.839L910.083 500.766C916.843 501.692 923.603 502.675 930.399 503.545L1006.77 543.638C949.945 531.188 894.177 519.052 847.537 509.122C847.321 509.251 756.893 558.996 744.018 566.054C756.893 559.236 846.192 511.735 847.483 510.827C949.801 533.818 1094.47 566.258 1199.93 589.379C1124.4 613.872 976.053 661.966 905.976 685.088C904.219 685.736 901.511 686.2 900.238 687.793C899.126 688.904 898.803 690.59 898.66 692.221L854.871 639.605C854.44 638.327 854.01 637.048 853.58 635.771L853.329 634.991L852.593 634.769L828.942 627.414C821.07 624.932 813.181 622.561 805.254 620.226L781.53 613.186C774.161 611.093 766.809 608.925 759.421 606.887L751.172 588.101L743.373 566.461C743.552 566.351 743.785 566.239 744.018 566.11C743.767 566.239 743.552 566.351 743.355 566.461L717.426 494.542L767.83 410.357L844.722 451.967L855.158 407.578L879.527 383.27L905.474 357.185L951.344 310.721L898.732 430.94ZM871.583 195.374L900.31 172.567L955.325 128.53L954.822 214.641L954.732 303.106L954.661 303.068L954.535 303.365L904.183 355.778L878.81 382.437L855.212 407.356L895.36 236.595L895.719 235.076L843.198 217.68L871.583 195.374ZM775.595 198.875L891.111 237.151L881.733 250.045L735.393 401.241L667.558 389.07L667.181 388.995L665.083 389.625L648.156 355.778L648.191 355.796L672.668 298.771L775.595 198.875ZM523.889 67.8736L567.571 142.406L568.413 143.851L569.74 142.851L607.163 113.893L605.102 269.072L610.409 112.022L710.019 98.4046L730.856 235.762L714.645 109.244L731.555 157.505L752.41 216.753L670.247 296.511L670.014 296.751L646.308 351.96L606.249 271.888L546.053 270.424L486.053 2.7708L523.889 67.8736Z" fill="white"/>
</g>
</svg>
