<svg width="80" height="36" viewBox="0 0 80 36" fill="none" xmlns="http://www.w3.org/2000/svg">
<path d="M45.8679 23.3586L43.6106 25.621L41.3296 23.3703V27.6735H40.4668V21.3528L43.5869 24.4315L46.7189 21.3528V27.6735H45.8679V23.3586Z" fill="white"/>
<path d="M50.5363 27.8134C49.2362 27.8134 48.1725 26.7638 48.1607 25.4694V21.481H49.0117V25.4694C49.0117 26.2974 49.6971 26.9738 50.5363 26.9738C51.3872 26.9738 52.0727 26.2974 52.0609 25.4694V21.481H52.9118V25.4694C52.9118 26.7638 51.8481 27.8134 50.5363 27.8134Z" fill="white"/>
<path d="M54.3537 27.6035V21.3411L58.4547 25.586V21.4927H59.2938V27.7434L55.1928 23.5102V27.6035H54.3537Z" fill="white"/>
<path d="M60.7475 27.6618V21.481H61.5985V27.6618H60.7475Z" fill="white"/>
<path d="M67.8978 27.172C67.3659 27.5918 66.7041 27.8251 65.995 27.8251C64.2222 27.8251 62.804 26.3673 62.804 24.5831C62.804 22.8105 64.234 21.3644 65.995 21.3644C66.7041 21.3644 67.3659 21.5977 67.8978 22.0175L67.2832 22.6472C66.9286 22.3907 66.4677 22.2507 65.995 22.2507C64.7068 22.2507 63.6667 23.312 63.6667 24.5831C63.6667 25.8892 64.7068 26.9388 65.995 26.9388C66.4677 26.9388 66.9286 26.7988 67.2832 26.5306L67.8978 27.172Z" fill="white"/>
<path d="M73.0507 27.6618V24.9913H69.7297V27.6618H68.8669V21.4927H69.7297V24.1399H73.0507V21.481H73.9016V27.6501H73.0507V27.6618Z" fill="white"/>
<path d="M46.2579 16.0233C45.5725 17.481 43.6578 17.9475 42.2278 17.4111C41.495 17.1429 40.8923 16.6064 40.5614 15.9067C40.4077 15.5452 40.2777 15.1837 40.3014 14.7988H42.2514C42.2514 15.2536 42.606 15.6385 43.0196 15.7901C43.6224 16.0233 44.3197 15.7784 44.627 15.2187C44.7806 14.9155 44.757 14.5423 44.5442 14.2624C44.2251 13.7609 43.5869 13.7026 43.0433 13.656C42.3933 13.586 41.7787 13.3644 41.235 13.0029C40.1714 12.2566 39.9705 10.7405 40.5023 9.64431C41.1878 8.19825 43.1024 7.72012 44.5324 8.25656C45.2652 8.51312 45.8679 9.06122 46.1988 9.76093C46.3761 10.0991 46.4589 10.484 46.447 10.8688H44.5088C44.497 10.414 44.1779 10.0058 43.7288 9.87755C43.2797 9.69096 42.7596 9.78426 42.4051 10.0991C42.0151 10.4257 41.9323 10.9854 42.216 11.4052C42.5351 11.895 43.1733 11.965 43.7051 12C44.3551 12.0583 44.9815 12.2915 45.5252 12.6531C46.577 13.3994 46.7779 14.9271 46.2579 16.0233Z" fill="white"/>
<path d="M54.4719 9.88921H51.9427V17.4227H50.229V9.88921H47.7116V8.23324H54.46V9.88921H54.4719Z" fill="white"/>
<path d="M59.1875 8.22157L54.6137 17.4344H56.4101L59.1875 11.8484L61.9648 17.4344H63.7613L59.1875 8.22157Z" fill="white"/>
<path d="M72.1525 17.4227H70.0606L68.406 15.0321L67.886 14.309L67.8741 14.2857H66.6214V17.4344H64.9313V8.18659H68.3587C70.0724 8.18659 71.4552 9.56268 71.4552 11.242C71.4552 12.4082 70.7815 13.4577 69.7296 13.9708H69.7415L72.1525 17.4227ZM69.7296 11.242C69.7296 10.5306 69.1742 9.93586 68.4532 9.88921H66.6332V12.6064H68.4532C69.1742 12.5481 69.7296 11.9534 69.7296 11.242Z" fill="white"/>
<path d="M80 9.88921H77.4708V17.4227H75.7571V9.88921H73.2398V8.23324H79.9882L80 9.88921Z" fill="white"/>
<path d="M11.8422 6.19242C5.29473 6.19242 0 11.4169 0 17.8776C0 24.3382 5.29473 29.5627 11.8304 29.5627C18.3661 29.5627 23.6726 24.3382 23.6726 17.8892C23.6726 11.4169 18.3779 6.19242 11.8422 6.19242ZM16.4042 23.1837L11.8304 13.4694L7.25661 23.1837H5.27109L11.8304 9.24781L18.3897 23.1837H16.4042Z" fill="white"/>
<path d="M32.7848 0L31.9338 0V36H32.7848V0Z" fill="white"/>
</svg>
