<svg height="110" viewBox="0 0 276 110" width="276" xmlns="http://www.w3.org/2000/svg"><g fill="none" fill-rule="evenodd"><path d="m169.924 19.751c-.115-.446-.307-.84-.571-1.178-.316-.402-.719-.72-1.198-.943-.483-.226-1.03-.341-1.63-.341-.633 0-1.205.113-1.694.336-.488.219-.889.533-1.194.933-.258.338-.439.738-.533 1.193zm17.073 0c-.114-.446-.306-.84-.569-1.178-.318-.402-.719-.72-1.2-.943-.481-.226-1.03-.341-1.628-.341-.635 0-1.204.113-1.696.336-.485.219-.887.533-1.193.933-.258.34-.437.74-.534 1.193zm49.888 0c-.115-.449-.307-.842-.572-1.178-.313-.402-.717-.72-1.197-.943-.481-.226-1.028-.341-1.628-.341-.633 0-1.205.113-1.694.336-.488.219-.892.533-1.196.933-.26.338-.437.738-.534 1.193zm-93.125 5.1h1.476c1.015 0 1.963-.181 2.821-.541.859-.36 1.62-.873 2.259-1.525.638-.652 1.143-1.428 1.496-2.305.355-.879.536-1.854.536-2.892 0-1.032-.181-2.002-.536-2.888-.353-.882-.858-1.658-1.496-2.305-.639-.648-1.4-1.16-2.261-1.525-.856-.362-1.806-.546-2.819-.546h-1.476zm54.595-5.356c-.331.599-.498 1.295-.498 2.064s.167 1.462.494 2.061c.324.597.781 1.07 1.354 1.408.576.338 1.238.508 1.972.508.732 0 1.392-.17 1.957-.508.567-.338 1.019-.811 1.345-1.401.327-.595.492-1.286.492-2.057 0-.769-.167-1.465-.501-2.069-.326-.601-.78-1.076-1.343-1.412-.562-.338-1.218-.508-1.95-.508s-1.394.17-1.965.508c-.572.336-1.028.811-1.357 1.406zm-58.355 8.779v-21.373h5.591c1.507 0 2.93.274 4.227.816 1.292.539 2.442 1.306 3.419 2.274.975.967 1.745 2.114 2.289 3.407.545 1.293.821 2.707.821 4.201 0 1.498-.276 2.908-.814 4.196-.54 1.291-1.308 2.433-2.283 3.401s-2.129 1.732-3.428 2.269c-1.301.537-2.724.809-4.231.809zm80.967 0h-3.745v-17.976h-5.685v-3.397h15.128v3.397h-5.698zm51.033 0h-3.592v-7.743c0-1.021-.251-1.814-.75-2.358-.491-.543-1.166-.809-2.056-.809-.61 0-1.14.124-1.577.372-.432.243-.772.574-1.005.983-.234.409-.351.868-.351 1.368v8.187h-3.593v-22.274h3.593v10.043c.408-.404.902-.751 1.476-1.034.772-.38 1.669-.572 2.66-.572 1.03 0 1.945.225 2.724.667.781.446 1.394 1.085 1.824 1.898.43.807.647 1.772.647 2.868zm-111.746-3.061c-.658-1.071-.991-2.291-.991-3.63 0-.99.19-1.927.565-2.791.373-.86.895-1.624 1.553-2.276.659-.65 1.438-1.165 2.311-1.531.876-.365 1.834-.548 2.846-.548 1.383 0 2.614.291 3.657.864 1.05.576 1.88 1.39 2.466 2.417.589 1.028.885 2.239.885 3.598 0 .121-.004.22-.013.3-.009.073-.027.197-.053.369l-.029.188h-10.524c.031.654.196 1.237.496 1.739.331.559.803.999 1.401 1.315.602.314 1.308.473 2.093.473.746 0 1.419-.151 1.997-.451.58-.301 1.116-.767 1.59-1.39l.113-.146 2.664 1.372-.119.201c-.637 1.063-1.528 1.903-2.651 2.5-1.121.594-2.385.895-3.757.895-1.414 0-2.7-.314-3.823-.929-1.122-.616-2.025-1.471-2.677-2.539zm17.073 0c-.658-1.071-.988-2.291-.988-3.63 0-.99.187-1.927.562-2.791.373-.86.896-1.624 1.553-2.276.66-.65 1.438-1.165 2.312-1.531.875-.365 1.833-.548 2.845-.548 1.386 0 2.616.291 3.66.864 1.048.574 1.877 1.387 2.466 2.417.587 1.025.884 2.236.884 3.598 0 .121-.006.22-.015.3-.009.071-.024.194-.053.369l-.026.188h-10.524c.028.654.196 1.237.494 1.739.333.557.803.999 1.4 1.315.603.314 1.308.473 2.096.473.745 0 1.416-.151 1.994-.451.58-.301 1.116-.767 1.59-1.39l.113-.146 2.665 1.372-.12.201c-.633 1.061-1.526 1.903-2.651 2.5-1.121.594-2.385.895-3.757.895-1.413 0-2.7-.314-3.822-.929-1.123-.616-2.023-1.471-2.678-2.539zm49.887 0c-.655-1.071-.988-2.291-.988-3.63 0-.992.19-1.929.562-2.791.371-.857.894-1.624 1.553-2.276.66-.65 1.439-1.165 2.314-1.531.876-.365 1.831-.548 2.844-.548 1.383 0 2.616.291 3.657.864 1.05.574 1.879 1.387 2.468 2.417.587 1.028.883 2.239.883 3.598 0 .121-.005.22-.014.3-.006.069-.024.192-.05.369l-.029.188h-10.526c.031.654.196 1.237.496 1.739.331.559.803.999 1.403 1.315.602.314 1.306.473 2.093.473.746 0 1.419-.151 1.994-.451.578-.298 1.114-.767 1.593-1.39l.112-.146 2.665 1.372-.121.201c-.633 1.061-1.524 1.903-2.652 2.5-1.12.594-2.384.895-3.756.895-1.416 0-2.702-.314-3.823-.929-1.12-.616-2.023-1.469-2.678-2.539zm18.591 1.415c-.675-.643-1.215-1.403-1.599-2.265-.388-.862-.582-1.806-.582-2.804 0-.966.185-1.89.553-2.747.371-.858.893-1.622 1.555-2.27.667-.654 1.456-1.173 2.35-1.544.897-.374 1.877-.561 2.916-.561.862 0 1.703.126 2.492.377.792.252 1.461.588 1.985 1.001l.146.113-1.334 2.526-.208-.159c-.699-.533-1.579-.802-2.611-.802-.852 0-1.595.187-2.204.554-.613.372-1.09.873-1.416 1.49-.327.618-.494 1.299-.494 2.022 0 .762.174 1.458.518 2.066.34.61.829 1.1 1.449 1.46.622.358 1.352.54 2.169.54.505 0 .988-.073 1.433-.217.446-.146.83-.343 1.141-.588l.207-.159 1.352 2.528-.15.113c-.531.404-1.195.736-1.976.994-.779.254-1.617.385-2.486.385-1.004 0-1.963-.184-2.85-.544-.891-.36-1.681-.868-2.356-1.509zm-94.734 18.039c.739.288 1.364.685 1.87 1.192.503.503.886 1.071 1.145 1.701s.389 1.281.389 1.952c0 1.16-.389 2.193-1.16 3.085-.555.642-1.289 1.244-2.203 1.809l-.351.21-.271.152 3.656 3.918.239-.23.18-.185.511-.544c.086-.093.172-.187.259-.282.173-.189.337-.373.491-.551l.993-1.175 2.543 2.356-.199.253c-.428.546-.889 1.11-1.384 1.692-.248.293-.486.564-.712.812l-.222.241-.186.194 4.386 4.683h-5.073l-2.23-2.407-.082.075c-.694.614-1.427 1.13-2.201 1.548l-.39.201-.397.184c-1.207.532-2.482.799-3.822.799-1.299 0-2.464-.238-3.491-.714-1.036-.481-1.857-1.168-2.456-2.06-.602-.897-.903-1.955-.903-3.164 0-1.43.442-2.688 1.323-3.76.682-.829 1.624-1.558 2.824-2.19l.334-.17.27-.13-.18-.212c-.232-.277-.441-.54-.629-.79l-.179-.246-.165-.237c-.376-.555-.647-1.088-.812-1.601-.166-.514-.248-1.04-.248-1.576 0-1.094.271-2.042.817-2.836.541-.786 1.27-1.39 2.18-1.807.902-.414 1.904-.62 3.003-.62.949 0 1.794.143 2.533.43zm121.558 8.251c1.06.581 1.891 1.393 2.485 2.433.594 1.038.89 2.244.89 3.611 0 .081-.002.153-.006.218l-.017.157-.088.6h-10.361l.015.168c.039.334.119.644.237.932l.097.211.111.204c.317.531.758.944 1.331 1.244.577.302 1.244.454 2.006.454.721 0 1.356-.144 1.908-.43.487-.252.937-.622 1.352-1.115l.175-.218.178-.232 2.854 1.467-.191.32c-.642 1.072-1.533 1.91-2.668 2.511-1.131.598-2.389.897-3.77.897-1.424 0-2.705-.31-3.837-.931s-2.032-1.471-2.693-2.549c-.663-1.081-.995-2.298-.995-3.645 0-.998.189-1.933.566-2.802.376-.866.898-1.628 1.563-2.285.666-.657 1.441-1.169 2.324-1.536.885-.368 1.839-.552 2.859-.552 1.39 0 2.617.288 3.675.868zm-88.167-8.101c1.176.377 2.197.881 3.062 1.513l.242.177-1.771 3.42-.334-.266c-.59-.473-1.294-.841-2.113-1.103-.823-.264-1.691-.396-2.605-.396-1.082 0-2.075.184-2.982.55-.909.367-1.698.873-2.369 1.521-.67.646-1.187 1.401-1.552 2.265-.365.865-.548 1.798-.548 2.802s.183 1.937.548 2.801c.365.865.882 1.619 1.552 2.266.671.647 1.46 1.154 2.369 1.521.907.366 1.9.549 2.982.549.914 0 1.782-.132 2.605-.396.819-.262 1.523-.63 2.113-1.102l.334-.267 1.771 3.421-.242.177c-.839.614-1.845 1.114-3.016 1.5-1.173.387-2.425.58-3.753.58-1.603 0-3.101-.282-4.494-.845-1.39-.562-2.613-1.346-3.666-2.352-1.054-1.007-1.879-2.18-2.472-3.518-.596-1.341-.893-2.787-.893-4.335 0-1.54.3-2.985.899-4.33.598-1.341 1.422-2.516 2.471-3.523 1.049-1.006 2.268-1.79 3.655-2.353 1.388-.563 2.881-.844 4.475-.844 1.311 0 2.555.189 3.732.567zm57.192 7.894c.448.222.851.488 1.207.798l.209.191.078.081.001-1.331h3.813v13.5h-3.813l-.001-1.448-.01.012c-.306.31-.639.584-.999.822l-.274.172-.285.158c-.871.456-1.821.684-2.843.684-1.247 0-2.383-.311-3.402-.933-1.015-.619-1.82-1.471-2.412-2.549-.591-1.078-.886-2.307-.886-3.681 0-1.356.286-2.573.86-3.646.574-1.075 1.369-1.927 2.381-2.552 1.015-.626 2.17-.939 3.459-.939 1.053 0 2.027.22 2.917.661zm14.225-5.049v4.788h2.95v3.062h-2.95v5.988c0 .427.072.751.205.978l.062.091c.156.206.373.306.683.306.358 0 .681-.109.979-.331l.394-.293 1.021 3.224-.243.14c-.405.234-.864.415-1.378.543-.511.128-1.014.192-1.51.192-1.256 0-2.256-.416-2.972-1.247-.705-.82-1.053-1.954-1.053-3.391l-.001-6.2h-1.562v-3.062h1.562l.001-4.788zm-29.391 4.998c.77.409 1.38.997 1.825 1.757.446.76.667 1.669.667 2.72v8.813h-3.813v-7.963c0-.869-.22-1.537-.654-2.023-.428-.477-.996-.714-1.733-.714-.511 0-.962.107-1.36.321s-.708.494-.934.844c-.222.344-.331.707-.331 1.097v8.438h-3.813v-8.088c0-.818-.213-1.453-.635-1.922-.414-.46-.977-.69-1.715-.69-.519 0-.977.107-1.379.321-.404.215-.718.495-.948.841-.225.339-.335.699-.335 1.088v8.45h-3.813v-13.5h3.813v1.043l.104-.093c.324-.279.658-.514 1.002-.705l.26-.135c.703-.34 1.474-.51 2.309-.51 1.068 0 2.027.244 2.87.735.619.36 1.11.815 1.468 1.363l.082.134.07-.088c.428-.512.894-.938 1.4-1.277l.255-.162c.79-.471 1.702-.705 2.73-.705.972 0 1.843.202 2.608.61zm-35.67 13.29h3.813v-22.2h-3.813zm8.349 0h3.813v-13.5h-3.813zm38.585-10.055c-.545.322-.972.765-1.283 1.335-.313.572-.47 1.227-.47 1.97s.157 1.398.47 1.969c.311.57.738 1.014 1.283 1.336.545.321 1.166.482 1.872.482.714 0 1.335-.161 1.87-.481.538-.322.961-.766 1.273-1.337s.47-1.226.47-1.969c0-.751-.157-1.408-.47-1.975-.312-.567-.735-1.009-1.273-1.331-.535-.321-1.156-.482-1.87-.482-.706 0-1.327.161-1.872.483zm-90.808.575-.076.035c-.765.368-1.365.834-1.805 1.398-.486.622-.726 1.301-.726 2.047 0 .558.13 1.024.385 1.405.26.387.607.68 1.049.883.453.208.953.312 1.504.312.697 0 1.394-.165 2.094-.498.531-.252 1.043-.589 1.535-1.011l.238-.213zm120.379-1.026c-.464.21-.839.503-1.128.881-.205.268-.357.575-.454.924l-.009.038h6.388l-.006-.021c-.089-.277-.21-.529-.364-.758l-.121-.167c-.299-.382-.676-.678-1.135-.893-.461-.215-.977-.323-1.552-.323-.611 0-1.149.107-1.619.319zm-119.763-7.883c-.321.181-.571.43-.757.751-.185.321-.278.685-.278 1.1 0 .322.06.632.181.932.124.309.326.644.607 1.003.193.246.43.515.712.808l.274.277.085-.046c.402-.222.76-.441 1.075-.657l.228-.161c.418-.308.728-.632.931-.973.196-.328.295-.699.295-1.12 0-.439-.099-.818-.295-1.146-.197-.33-.46-.584-.793-.766-.334-.184-.712-.276-1.138-.276-.433 0-.806.092-1.127.274zm54.646-1.204c.327.201.592.468.792.8.204.338.307.713.307 1.118 0 .412-.102.793-.306 1.135-.199.336-.465.606-.793.807-.335.205-.713.308-1.126.308-.405 0-.781-.102-1.123-.306-.338-.2-.609-.471-.809-.809-.204-.342-.306-.723-.306-1.135 0-.405.103-.78.307-1.118.2-.333.471-.602.808-.802.342-.203.718-.305 1.123-.305.413 0 .791.102 1.126.307zm3.746-30.988c1.006.619 1.809 1.474 2.389 2.537s.874 2.291.874 3.653c0 1.343-.292 2.565-.867 3.63-.578 1.072-1.375 1.929-2.369 2.55-1 .623-2.145.942-3.404.942-1.008 0-1.963-.228-2.837-.679-.681-.353-1.284-.822-1.793-1.399v8.267h-3.593l.006-20.029h3.587v1.562c.479-.541 1.054-.981 1.72-1.315.863-.433 1.816-.651 2.835-.651 1.284 0 2.446.313 3.452.932zm-47.706 79.445c-.339.594-.514 1.288-.514 2.066 0 .769.175 1.461.514 2.053.344.592.819 1.065 1.414 1.401.596.34 1.275.512 2.019.512.752 0 1.433-.172 2.022-.512.594-.336 1.066-.809 1.41-1.401.34-.592.514-1.284.514-2.053 0-.778-.174-1.472-.514-2.066-.342-.59-.814-1.059-1.407-1.397-.596-.333-1.278-.504-2.025-.504-.742 0-1.421.171-2.021.504-.596.338-1.07.807-1.412 1.397zm34.987.009c-.326.605-.492 1.303-.492 2.083 0 .761.163 1.45.488 2.042.32.595.772 1.065 1.341 1.401s1.231.511 1.965.511c.741 0 1.405-.175 1.97-.511.567-.336 1.019-.806 1.346-1.401.326-.592.489-1.286.489-2.055 0-.773-.165-1.467-.492-2.07-.324-.599-.776-1.074-1.343-1.415-.567-.335-1.231-.508-1.97-.508-.723 0-1.378.173-1.952.508-.569.341-1.023.816-1.35 1.415zm-49.473 8.772h-3.76v-21.372h11.752v3.359h-7.992v5.621h7.434v3.359h-7.434zm41.753 0h-3.594v-7.743c0-1.02-.251-1.814-.747-2.355-.492-.539-1.185-.813-2.058-.813-.609 0-1.139.128-1.578.373-.434.245-.772.575-1.005.983-.232.407-.351.869-.351 1.368v8.187h-3.596v-13.43h3.596v1.199c.408-.404.902-.751 1.475-1.032.77-.382 1.666-.574 2.661-.574 1.03 0 1.947.225 2.724.669.781.447 1.396 1.085 1.826 1.896.431.807.647 1.77.647 2.869zm-30.492-3.005c-.679-1.074-1.021-2.32-1.021-3.71 0-1.397.344-2.645 1.021-3.715.675-1.065 1.604-1.909 2.758-2.508 1.147-.596 2.459-.899 3.9-.899 1.431 0 2.741.303 3.893.899 1.158.599 2.087 1.443 2.757 2.508.675 1.068 1.017 2.316 1.017 3.715 0 1.392-.342 2.638-1.017 3.71-.67 1.065-1.597 1.914-2.757 2.513-1.152.596-2.464.897-3.893.897-1.43 0-2.742-.301-3.894-.897-1.16-.599-2.089-1.446-2.764-2.513zm34.855-.04c-.582-1.065-.88-2.302-.88-3.67 0-1.359.293-2.59.869-3.653.578-1.065 1.379-1.918 2.382-2.534 1.004-.621 2.166-.935 3.452-.935 1.028 0 1.986.221 2.848.658.664.334 1.235.778 1.705 1.315v-10.408h3.596v22.272h-3.596v-1.675c-.509.575-1.107 1.043-1.784 1.397-.867.455-1.825.683-2.844.683-1.217 0-2.345-.307-3.35-.917-1.006-.612-1.811-1.465-2.398-2.533zm17.331.97-.086-.121 1.65-2.437.188.247c.478.634 1.017 1.129 1.601 1.476.576.343 1.18.517 1.791.517.369 0 .699-.068.984-.203.274-.13.494-.32.655-.568.163-.245.245-.544.245-.886 0-.351-.086-.612-.26-.8-.188-.208-.483-.398-.876-.57-.419-.186-.951-.405-1.588-.659-.558-.236-1.085-.497-1.575-.775-.512-.292-.94-.668-1.275-1.121-.344-.459-.516-1.051-.516-1.759 0-.797.225-1.513.668-2.134.439-.614 1.048-1.098 1.809-1.443.759-.34 1.63-.513 2.592-.513.695 0 1.407.126 2.113.374.693.243 1.401.603 2.1 1.071l.17.115-1.372 2.4-.201-.168c-.944-.784-1.879-1.182-2.784-1.182-.512 0-.924.119-1.226.358-.287.227-.428.513-.428.866 0 .281.119.517.364.72.278.233.631.438 1.045.615.437.183.876.36 1.311.53.686.248 1.31.526 1.85.822.552.303.993.705 1.308 1.189.318.495.477 1.149.477 1.949 0 .955-.23 1.785-.688 2.468-.457.685-1.114 1.213-1.953 1.571-.822.354-1.811.531-2.936.531-1.116 0-2.126-.212-2.999-.637-.883-.424-1.606-1.043-2.158-1.843z" fill="#fff"/><path d="m.47945635 44.203548 13.58758605 2.3942537-.4794564 2.7147282-13.587586-2.3942538zm108.22199065 0 .479456 2.7147281-13.5875857 2.3942538-.4794564-2.7147282zm-105.50040324-9.2209783 12.96532754 4.7147639-.9430458 2.5899844-12.96532754-4.714764zm102.77881624 0 .943045 2.5899843-12.9653272 4.714764-.9430458-2.5899844zm-98.49440809-8.6086999 11.94846619 6.8919221-1.3797305 2.388051-11.9484662-6.8919221zm94.20999909 0 1.379731 2.388051-11.9484663 6.8919221-1.3797305-2.388051zm-88.4959142-7.7351488 10.5694255 8.8609442-1.7729537 2.111685-10.5694255-8.8602551zm82.7818297 0 1.7729537 2.1123741-10.5694256 8.8602551-1.7729537-2.111685zm-75.8083958-6.6256183 8.8682178 10.5598031-2.1137471 1.771224-8.8682178-10.5591139zm68.8355827 0 2.1137472 1.7719132-8.8682179 10.5591139-2.1137471-1.771224zm-60.8171409-5.31518818 6.8986525 11.93680918-2.3903831 1.3783844-6.8986525-11.93680915zm52.7986991 0 2.3903831 1.37838443-6.8986525 11.93680915-2.3903831-1.3783844zm-43.9794617-3.84383173 4.7193682 12.95267841-2.5925136.9421258-4.7193682-12.95267845zm35.1595345 0 2.5925136.94212576-4.7193682 12.95267845-2.5925136-.9421258zm-25.8044788-2.2564153 2.3959021 13.57501901-2.7173793.4789886-2.3965919-13.57432983zm16.4494231 0 2.718069.47967778-2.395902 13.57432983-2.7173792-.4789886zm-6.8448431-.59766749v13.7838443h-2.759461v-13.7838443z" fill="#fff"/><path d="m.47945635 104.891018 13.58758605 2.394254-.4794564 2.714728-13.587586-2.394254zm108.22199065 0 .479456 2.714728-13.5875857 2.394254-.4794564-2.714728zm-105.50040324-9.2209782 12.96532754 4.7147642-.9430458 2.589984-12.96532754-4.7147638zm102.77881624 0 .943045 2.5899844-12.9653272 4.7147638-.9430458-2.589984zm-98.49440809-8.6086999 11.94846619 6.8919221-1.3797305 2.388051-11.9484662-6.8919221zm94.20999909 0 1.379731 2.388051-11.9484663 6.8919221-1.3797305-2.388051zm-88.4959142-7.7351488 10.5694255 8.8609443-1.7729537 2.1116849-10.5694255-8.8602551zm82.7818297 0 1.7729537 2.1123741-10.5694256 8.8602551-1.7729537-2.1116849zm-75.8083958-6.6256183 8.8682178 10.5598031-2.1137471 1.771224-8.8682178-10.5591139zm68.8355827 0 2.1137472 1.7719132-8.8682179 10.5591139-2.1137471-1.771224zm-60.8171409-5.3151882 6.8986525 11.9368092-2.3903831 1.3783844-6.8986525-11.9368091zm52.7986991 0 2.3903831 1.3783845-6.8986525 11.9368091-2.3903831-1.3783844zm-43.9794617-3.8438317 4.7193682 12.9526785-2.5925136.9421257-4.7193682-12.9526784zm35.1595345 0 2.5925136.9421258-4.7193682 12.9526784-2.5925136-.9421257zm-25.8044788-2.2564153 2.3959021 13.575019-2.7173793.4789886-2.3965919-13.5743298zm16.4494231 0 2.718069.4796778-2.395902 13.5743298-2.7173792-.4789886zm-6.8448431-.5976675v13.7838443h-2.759461v-13.7838443z" fill="#00e6b6" transform="matrix(1 0 0 -1 0 170.68747)"/></g></svg>